<svg xmlns="http://www.w3.org/2000/svg" width="196" height="53" viewBox="0 0 196 53">
    <g fill="none" fill-rule="evenodd">
        <path fill="#B52E31" fill-rule="nonzero" d="M57.914 39.38V15.447H61L75.667 34.72V15.447H78.6V39.38h-3.086L60.83 19.918V39.38h-2.933.017zm44.58-.95c-2 .737-4.116 1.11-6.247 1.102-8.687 0-13.032-4.144-13.032-12.468 0-7.868 4.19-11.822 12.592-11.822 2.401 0 4.646.341 6.703.99v2.662a17.517 17.517 0 0 0-6.363-1.179c-6.553 0-9.83 3.118-9.83 9.275 0 6.652 3.238 9.96 9.678 9.96 1.028 0 2.172-.152 3.43-.417v-8.02h3.085v9.92l-.015-.003zm4.954-8.288V15.433h3.086v14.71c0 4.6 2.305 6.9 6.916 6.9 4.572 0 6.917-2.3 6.917-6.9v-14.71h3.086v14.71c0 6.271-3.317 9.426-9.985 9.426-6.668 0-9.985-3.155-9.985-9.427h-.035zm28.578-14.695v21.456h12.592v2.509h-15.66V15.447h3.086-.018zm17.032 23.947h-3.238l11.921-27.084 11.927 27.102h-3.43l-3.086-7.527h-7.927l.839-2.509h6.058l-4.496-10.833-8.575 20.869.007-.018zm23.928 0V15.447h10.251c4.572 0 6.858 1.9 6.858 5.74 0 3.117-2.249 5.435-6.704 6.9l8.23 11.287h-4.08l-7.62-10.757v-1.976c4.572-.722 6.916-2.47 6.916-5.283 0-2.204-1.241-3.308-3.81-3.308h-6.857v21.33h-3.162l-.022.014z"/>
        <path fill="#E23237" d="M0 8.753L24.675 0l25.327 8.602-4.096 32.471L24.675 52.76 3.788 41.242z"/>
        <path fill="#B52E31" d="M50 8.602L24.562 0v52.759l21.326-11.687 4.114-32.47z"/>
        <path fill="#FFF" fill-rule="nonzero" d="M25.107 6.173L9.649 40.372l5.768-.114 3.113-7.732h13.802l3.4 7.808 5.497.114L25.121 6.155l-.014.018zm.035 10.984l5.23 10.87h-9.807l4.577-10.866v-.004z"/>
    </g>
</svg>
