<svg xmlns="http://www.w3.org/2000/svg" width="178" height="53" viewBox="0 0 178 53">
    <path class="icon-label" fill="#515151" fill-rule="nonzero" d="M28.598 14.703h-5.333L15.56 34.596h4.828l1.259-3.37h7.28l-1.318-3.728h-4.8l3.119-8.56 5.55 15.658h4.827l-7.706-19.893zm81.179 19.893V14.703h4.363v16.165h8.603v3.728h-12.966zm24.203 0V14.703h4.362v16.165h8.603v3.728H133.98zM86.006 19.028a6.493 6.493 0 0 1 6.483 6.486 6.493 6.493 0 0 1-6.483 6.487 6.493 6.493 0 0 1-6.483-6.487 6.493 6.493 0 0 1 6.483-6.486zm.432-4.325c-5.728.002-10.37 4.647-10.372 10.378 0 5.732 4.644 10.378 10.372 10.38 5.728-.001 10.372-4.648 10.373-10.38-.002-5.731-4.645-10.377-10.373-10.378zm80.821 4.325a6.492 6.492 0 0 1 6.482 6.486 6.492 6.492 0 0 1-6.482 6.487 6.492 6.492 0 0 1-6.484-6.487 6.492 6.492 0 0 1 6.484-6.486zm-.433-4.325c-5.728.001-10.37 4.647-10.373 10.378.001 5.732 4.645 10.379 10.373 10.38 5.728-.001 10.372-4.648 10.373-10.38-.002-5.731-4.645-10.377-10.373-10.378zm-108.35.015H49.27v19.878h4.205V27.75h5.002c3.51 0 6.352-2.989 6.352-6.524 0-3.536-2.846-6.523-6.352-6.523v.015zm-.554 9.5h-5.195v-5.19h5.195c1.426 0 2.585 1.225 2.585 2.592s-1.16 2.592-2.585 2.592v.005zm-12.35 17.144c-.364 0-.703.182-.903.487l-1.488 1.635a24.217 24.217 0 0 1-7.628 5.19 23.705 23.705 0 0 1-9.34 1.898c-3.242 0-6.382-.637-9.339-1.898A23.877 23.877 0 0 1 9.246 43.5a24.097 24.097 0 0 1-5.144-7.677 24.352 24.352 0 0 1-1.886-9.445A24.14 24.14 0 0 1 9.246 9.3a24.001 24.001 0 0 1 7.628-5.178 23.705 23.705 0 0 1 9.34-1.898c3.242 0 6.382.638 9.34 1.898 2.07.88 4.006 2.052 5.751 3.478-.097.284-.161.58-.161.88a2.716 2.716 0 0 0 2.708 2.726 2.716 2.716 0 0 0 2.707-2.725 2.716 2.716 0 0 0-2.707-2.725c-.36 0-.717.072-1.048.212A25.997 25.997 0 0 0 26.197 0C11.717-.003 0 11.807 0 26.378c0 14.57 11.736 26.38 26.212 26.38 8.099 0 15.335-3.698 20.142-9.505a1.116 1.116 0 0 0-.786-1.904l.003.013z"/>
</svg>
