<svg xmlns="http://www.w3.org/2000/svg" xmlns:xlink="http://www.w3.org/1999/xlink" viewBox="0 0 829 363"><defs><path id="a" d="M.297.414h107.726v67.1H.297z"/><path id="c" d="M0 244h279.708V.414H0z"/><path id="e" d="M0 .783h62.227v62.91H0z"/><path id="g" d="M.21.124h40.67v87.773H.21z"/><path id="i" d="M.86.124h39.017v87.015H.86z"/><path id="k" d="M0 .848h55.861v49.34H0z"/><path id="m" d="M.494.537H9.48V27H.493z"/></defs><g fill="none" fill-rule="evenodd"><g opacity=".22"><path fill="#D2DCEB" d="M549 177h280v-10H549z"/><path fill="#D4DBEC" d="M566 319h240V178H566z"/><path fill="#BACAE0" d="M566 193h240v-15H566z"/><g transform="translate(549 75)"><g transform="translate(24.077)"><mask id="b" fill="#fff"><use xlink:href="#a"/></mask><path fill="#D4DBEC" d="M99.744 67.514H8.577c-4.574 0-8.28-3.721-8.28-8.314V8.726c0-4.59 3.706-8.312 8.28-8.312h91.167c4.572 0 8.28 3.721 8.28 8.312V59.2c0 4.593-3.708 8.314-8.28 8.314" mask="url(#b)"/></g><path fill="#BACAE0" d="M126.633.915a8.304 8.304 0 00-5.466 7.811V59.2a8.306 8.306 0 005.466 7.812A8.308 8.308 0 00132.1 59.2V8.726a8.306 8.306 0 00-5.467-7.81"/><path fill="#BABFE8" d="M96.726 84.984h-12.01v-45.53H60.823v52.564h35.903a3.51 3.51 0 003.502-3.517 3.51 3.51 0 00-3.502-3.517"/><path fill="#BACAE0" d="M96.527 84.984h-11.81v-45.53H60.822v45.53c0 3.885 3.138 7.034 7.005 7.034h28.898a3.511 3.511 0 003.498-3.706c-.1-1.902-1.8-3.328-3.696-3.328"/><path fill="#99B3D1" d="M100.228 88.501a3.51 3.51 0 00-3.502-3.517h-12.01v-45.53h-8.1v45.53c0 3.885 3.136 7.034 7.006 7.034h13.104a3.51 3.51 0 003.502-3.517"/><path fill="#BACAE0" d="M100.688 5.452h-53.14a2.326 2.326 0 00-2.321 2.332 2.326 2.326 0 002.321 2.332h53.14a2.329 2.329 0 002.324-2.332 2.329 2.329 0 00-2.324-2.332"/><mask id="d" fill="#fff"><use xlink:href="#c"/></mask><path fill="#BBC9E0" d="M156.441 92.713h89.483V71.166H156.44z" mask="url(#d)"/><path fill="#D4DBEC" d="M147.839 71.166h92.26V56.11h-92.26zm8.988-15.079h88.437V37.23h-88.437z" mask="url(#d)"/><path fill="#BACAE0" d="M156.827 56.089h88.437V49.48h-88.437z" mask="url(#d)"/></g></g><g opacity=".25"><g transform="translate(714 24)"><mask id="f" fill="#fff"><use xlink:href="#e"/></mask><path fill="#D3DBEC" d="M62.227 32.238c0 17.372-13.931 31.456-31.114 31.456S0 49.61 0 32.238 13.93.783 31.113.783s31.114 14.083 31.114 31.455" mask="url(#f)"/></g><path fill="#EBF1F5" d="M769 57c0 12.702-10.298 23-23 23s-23-10.298-23-23 10.298-23 23-23 23 10.298 23 23"/><path fill="#BACAE0" d="M737.968 67a.948.948 0 01-.733-.352 1.056 1.056 0 01.1-1.437l6.73-6.11V43.018c0-.562.433-1.019.966-1.019.536 0 .969.457.969 1.019v16.547c0 .295-.122.577-.335.77l-7.065 6.416a.94.94 0 01-.632.248"/></g><g opacity=".2"><path fill="#BBCBE1" d="M67.795 266.718l1.325.282c1.558-4.231 2.967-10.757.678-17.612-3.901-11.687-5.775-26.407-13.241-37.459C46.356 196.832 43.907 164 43.907 164s-12.418 26.046-3.953 50.595c8.463 24.55 18.474 30.981 23.538 35.776 5.408 5.118 5.298 11.76 4.303 16.347"/><path fill="#9BB3D2" d="M68.062 266.778l1.048.222c1.566-4.231 2.982-10.757.682-17.612-3.921-11.687-5.805-26.407-13.31-37.459C46.228 196.832 43.768 164 43.768 164s-6.902 35.1 1.092 47.463c7.992 12.363 8.357 9.352 14.1 21.098 5.742 11.746 7.558 15.078 9.304 21.906 1.118 4.37.436 9.305-.202 12.31"/><path fill="#BBCBE1" d="M74.9 276.626s2.534-3.832 1.048-18.14c-1.487-14.308-5.545-27.993-3.27-43.596 2.274-15.602 19.06-55.178 19.15-57.788.087-2.61 4.445 45.537-4.221 64.72-8.665 19.185-9.762 25.8-9.516 35.787.247 9.988-.315 18.047-1.268 20.391l-1.923-1.374z"/><path fill="#9BB3D2" d="M76.85 247.565c.906 6.37 1.298 22.386-.331 26.257-.152.361-.361.161-.616-.496.514-2.66.89-7.31.08-15.032-1.5-14.296-5.594-27.968-3.3-43.556C74.979 199.148 91.913 159.609 92 157c0 0-2.894 32.71-11.52 55.362-6.177 16.218-4.535 28.83-3.63 35.203"/><g transform="translate(81 185)"><mask id="h" fill="#fff"><use xlink:href="#g"/></mask><path fill="#BBCBE1" d="M2.417 87.897s-7.433-20.552 4.982-38.274C19.817 31.902 39.695 9.161 40.061.124c0 0 5.276 42.936-10.924 55.02-16.2 12.088-27.583 13.982-24.703 32.684l-2.017.069z" mask="url(#h)"/></g><g transform="translate(82 185)"><mask id="j" fill="#fff"><use xlink:href="#i"/></mask><path fill="#9BB3D2" d="M18.714 46.482C.58 61.13-.848 78.076 2 85.95c.221.613.638.988 1.188 1.189-2.501-18.05 8.835-20.06 24.896-31.994C44.35 43.059 39.053.124 39.053.124s-2.207 31.71-20.34 46.358" mask="url(#j)"/></g><path fill="#BBCBE1" d="M62 277.815l-4.094-14.835C42.664 208.803 0 207 0 207c4.459.89 27.61 18.577 31.196 34.316 1.684 7.39 9.22 12.64 15.875 16.116 4.8 2.507 8.348 6.931 9.833 12.146a88.456 88.456 0 011.94 8.422l3.156-.185z"/><g transform="translate(0 207)"><mask id="l" fill="#fff"><use xlink:href="#k"/></mask><path fill="#9BB3D2" d="M38.724 35.544c4.978 9.488 11.388 13.343 17.137 14.644C39.285 2.523 0 .848 0 .848c.88.175 2.505 1.018 4.548 2.349 8.188 4.542 25.384 15.593 34.176 32.347" mask="url(#l)"/></g><path fill="#D4DBEC" d="M93.54 265H49.46c-5.262 0-9.246 4.833-8.328 10.102l7.915 45.377c.557 3.194 3.288 5.521 6.478 5.521h31.95c3.19 0 5.92-2.327 6.478-5.52l7.915-45.378c.918-5.269-3.066-10.102-8.329-10.102"/><path fill="#BACAE0" d="M102 271c-1.003-3.414-4.254-6-8.227-6H49.228c-3.974 0-7.224 2.586-8.228 6h61z"/><path fill="#BACAE0" d="M93.464 265H82.119c5.308 0 9.33 4.833 8.402 10.102l-7.986 45.377C81.975 323.673 79.219 326 76 326h11.345c3.22 0 5.973-2.327 6.536-5.52l7.986-45.378c.926-5.269-3.094-10.102-8.403-10.102"/><path fill="#D4DBEC" d="M168 319h97v-87h-97z"/><path fill="#BACAE0" d="M175 260h82v-21h-82zm0 26h82v-21h-82zm0 27h82v-21h-82z"/><path fill="#EAF0F6" d="M221.25 249.895c0 2.266-1.927 4.104-4.304 4.104-2.377 0-4.304-1.838-4.304-4.104s1.927-4.102 4.304-4.102c2.377 0 4.304 1.836 4.304 4.102m0 25.905c0 2.268-1.927 4.105-4.304 4.105-2.377 0-4.304-1.837-4.304-4.104 0-2.266 1.927-4.103 4.304-4.103 2.377 0 4.304 1.837 4.304 4.103m0 28.642c0 2.266-1.927 4.103-4.304 4.103-2.377 0-4.304-1.837-4.304-4.103 0-2.267 1.927-4.104 4.304-4.104 2.377 0 4.304 1.837 4.304 4.104"/><g><path fill="#FFF" d="M252.991 27H99.01C94.033 27 90 31.024 90 35.99v99.02c0 4.966 4.033 8.99 9.009 8.99H252.99c4.976 0 9.009-4.024 9.009-8.99V35.99c0-4.966-4.033-8.99-9.009-8.99"/><path fill="#EEF2F7" d="M99.274 138A2.282 2.282 0 0197 135.714V36.286C97 35.026 98.02 34 99.274 34h153.45A2.283 2.283 0 01255 36.286v99.428a2.283 2.283 0 01-2.275 2.286H99.274z"/><path fill="#BACAE0" d="M252.72 34H208c2.414 11.665 11.529 49.934 30.534 69H255V36.286A2.286 2.286 0 00252.72 34"/><path fill="#D3DBEA" d="M239 102v10h15.74l.26-10z"/><path fill="#BBCBE0" d="M255 134.701v-22.546l-.272-.155h-16.435s-7.842 20.16-8.293 24.88l.272.12h22.414a2.309 2.309 0 002.314-2.299"/><path fill="#BACAE0" d="M99.28 34H144c-2.414 11.665-11.529 49.934-30.534 69H97V36.286A2.286 2.286 0 0199.28 34"/><path fill="#D3DBEA" d="M113 102v10H97.26L97 102z"/><path fill="#BACAE0" d="M97 134.701v-22.546l.272-.155h16.435s7.84 20.16 8.293 24.88l-.272.12H99.314A2.309 2.309 0 0197 134.701"/></g></g><g fill="#216D8E"><path d="M377.22 167.163L340.804 258 317 253.175c9.522-22.875 19.628-84.182 44.017-91.668 2.756-.832 19.377-8.818 22.55-7.32 2.84 1.247-9.354 10.148-6.347 12.976zm65.516.142L478.875 258 502 248.781c-9.45-22.84-18.981-79.648-43.267-87.123-2.735-.83-20.224-8.97-23.374-7.475-2.652 1.246 10.36 10.299 7.377 13.122z"/><path d="M459 188.22V328h-97V192.531c0-5.638.75-10.612 2.083-15.006 2.834-9.451 6.834-19.732 13.917-22.8 6.083-2.652 9.167-1.409 13.583-2.984 1.084-.414 5.917-1.244 10.25-.166 4.5 1.16.5-.414 2.917-.414 1.167 0 3.25-1.161 4.417-1.161h11.416c.584 0-.166 3.068.417 3.15 2.417.083 4.333 4.975 6.667 5.555 1.083.249 2.25.58 3.333.83.583.165 1.083.33 1.667.497 4.583 1.326 8.916 3.067 12.583 5.223 5.25 3.067 9.333 7.047 11.75 12.353 1.25 2.902 2 6.467 2 10.612z"/><path d="M459 192.53V343h-97V188.219c0-4.063.75-7.628 2.083-10.695 3.75-8.705 12.334-13.845 22.584-17.078 2.166-.663 4.416-1.327 6.75-1.824 2.333-.58 2.916-8.456 5.333-8.622h13.083c1.167 0 2.25 2.073 3.334 2.073 2.416 0 2.083-.498 6.583-.747 4.833-.165 8.5 1.659 8.833 1.741 0 0 6.417-.58 11.334 3.15 6.333 4.726 11.916 11.607 14.833 21.307 1.5 4.311 2.25 9.368 2.25 15.006z"/></g><path fill="#F9D19B" d="M407.844 184.937c0 .084 0 .084 0 0h.084c18.37-9.854 22.879-29.228 21.96-31.817h-9.77V136c-3.924.919-8.099 1.503-12.274 1.503-4.091 0-8.183-.5-12.107-1.42v17.12l-9.603-.417c-1.002 2.589 3.34 22.297 21.71 32.151z"/><g transform="translate(345)"><path fill="#F9D19B" d="M40.308 152.608c3.471-.97 7.145-1.82 11.021-2.547.412 3.434.523 5.543.332 6.325l-11.353-3.778zm44.814.684c-1.843-1.432-5.252-2.278-10.226-2.539-.95 2.679-1.213 3.543-.788 2.592l11.014-.053z"/><path fill="#DDA66F" d="M50.5 132.025h25.75v20.515H50.5z"/><circle cx="64.604" cy="93.171" r="45.499" fill="#FFDDA8" transform="rotate(-45 64.604 93.17)"/><path fill="#FFDDA8" d="M109 67.998c2.083 25.81-19.167 45.332-44.417 45.332S18.917 93.063 18.917 67.998s20.416-45.332 45.666-45.332c25.25 0 42.334 20.35 44.417 45.332z"/><ellipse cx="20.167" cy="83.467" fill="#F5AF86" rx="8.417" ry="8.355"/><ellipse cx="110.083" cy="83.467" fill="#F5AF86" rx="8.417" ry="8.355"/><ellipse cx="93.79" cy="104.755" fill="#EA9C7A" rx="6.62" ry="6.664" transform="rotate(-76.714 93.79 104.755)"/><ellipse cx="36.459" cy="104.759" fill="#EA9C7A" rx="6.62" ry="6.664" transform="rotate(-76.714 36.459 104.76)"/><path stroke="#BD3A23" stroke-linecap="round" stroke-width="2.722" d="M54.917 112.75c6.666 5.378 14.333 6.619 22.333.166"/><ellipse cx="20.167" cy="83.384" fill="#FFDDA8" rx="8.417" ry="8.769"/><ellipse cx="109.917" cy="83.384" fill="#FFDDA8" rx="8.417" ry="8.769"/><path stroke="#000" stroke-linecap="round" stroke-width="2.131" d="M82.083 83.798c1.834 4.053 8.334 3.888 9.917 0m-53.417 0c1.834 4.053 8.334 3.888 9.917 0"/><path fill="#000" stroke="#492C26" stroke-linecap="round" stroke-width="5.012" d="M82.667 71.803L91 75.36l-8.333-3.557zm-35.75 0l-8.334 3.557 8.334-3.557z"/><path fill="#EA9C7A" d="M69.833 104.148c-.333-.497-.833-.828-1.416-.828-.167 0-.25-.082-.417-.082h-6c-.583 0-1.25.248-1.583.827-.584.827-.417 2.068.416 2.73 1.084.827 2.667 1.158 4.167 1.158 1.667 0 3.333-.414 4.333-1.158.917-.58 1.084-1.737.5-2.647z"/><path fill="#4A454C" d="M115.917 25.313c-3.5-6.535-15.417-13.07-15.25-21.26C90.333 2.316 79 2.978 69.167 6.783c.916-2.316 1.083-4.963.666-6.452-10.166.827-21 3.557-29.166 9.844.083-.58-.084-3.888-.334-5.212-9 2.813-19.583 8.438-20.333 19.027-6.333-.083-13.333 3.557-15.5 6.783 1.667-.166 4.167-.414 7.417-1.076-2 2.482-3.667 5.626-4 8.355-1.834 15.718 2.5 30.939 10.916 45.498.417-13.98 3.834-28.043 17.667-34.91 20-4.218 33 3.723 52.167 4.55-1.667-2.067-3.5-6.12-6.417-7.858 18.417 3.309 27 20.763 28.25 37.639 8.667-16.876 14.583-40.617 5.417-57.658z"/></g><path fill="#F9D19B" d="M358 214.75L340.75 258 317 253.167c4.333-10.334 8.75-28.584 14.5-46.167m129.5 6.556L478.75 258l23.25-9.221c-4.25-10.218-8.583-27.33-14.167-43.779"/><path fill="#B3B6BA" d="M501.67 362.917H320.58c-1.583 0-2.915-1.33-2.915-2.91v-4.239c0-1.58 1.332-2.91 2.914-2.91h181.09c1.583 0 2.915 1.33 2.915 2.91v4.24c0 1.579-1.332 2.909-2.914 2.909z"/><path fill="#E8E8E8" d="M504.667 347.456c0 3.49-2.914 6.4-6.411 6.4H323.993c-3.497 0-6.411-2.91-6.411-6.4V237.149c0-3.492 2.914-6.4 6.411-6.4h174.18c3.497 0 6.41 2.908 6.41 6.4v110.307h.084z"/><path fill="#8D9196" d="M501.67 362.917c0-2.66.083-5.32-3.497-5.32H324.076c-3.58 0-3.497 2.66-3.58 5.32H501.67z"/><path fill="#9FA4AA" d="M498.173 234.322c3.58 0 6.41 2.91 6.41 6.401v110.224c0 3.574-2.913 6.4-6.41 6.4H324.076c-3.58 0-6.494-2.909-6.494-6.4L316.5 240.723c0-3.574 2.83-6.4 6.41-6.4h175.263z"/><path fill="#FFF" d="M476.608 234.322l-49.872 123.109h-46.46l49.873-123.109zm-63.36 0l-49.873 123.109h-15.57l49.873-123.109z" opacity=".3"/><g transform="translate(398 283)"><circle cx="13.243" cy="13.137" r="8.806" fill="#7D848C" transform="rotate(-45 13.243 13.137)"/><circle cx="13.209" cy="15.17" r="8.806" fill="#FFF" transform="rotate(-76.714 13.209 15.17)"/></g><path fill="#DDA66F" d="M421 151.717c0-2.208-4.22-5.717-12.5-5.717-8.28 0-12.5 3.566-12.5 5.717 0 2.15 5.6 3.283 12.5 3.283s12.5-1.132 12.5-3.283z"/><path fill="#A63F44" d="M456 76h-5.75V44.047c0-12.813-10.318-23.238-23-23.238h-34.5c-12.682 0-23 10.425-23 23.238V76H364V44.047C364 28.032 376.897 15 392.75 15h34.5C443.103 15 456 28.032 456 44.047V76z"/><path fill="#A63F44" d="M364 83h-3c-1.657 0-3-1.254-3-2.8v-8.4c0-1.546 1.343-2.8 3-2.8h3c1.656 0 3 1.254 3 2.8v8.4c0 1.547-1.344 2.8-3 2.8"/><g transform="translate(360 62)"><mask id="n" fill="#fff"><use xlink:href="#m"/></mask><path fill="#F23F44" d="M4.987 27c-2.48 0-4.492-1.975-4.492-4.41V4.946c0-2.436 2.011-4.41 4.492-4.41 2.482 0 4.492 1.974 4.492 4.41v17.642C9.48 25.025 7.47 27 4.987 27" mask="url(#n)"/></g><path fill="#A63F44" d="M456 69h3c1.658 0 3 1.254 3 2.8v8.4c0 1.546-1.342 2.8-3 2.8h-3c-1.656 0-3-1.254-3-2.8v-8.4c0-1.546 1.344-2.8 3-2.8"/><path fill="#F23F44" d="M454.5 63c2.486 0 4.5 1.94 4.5 4.334v17.332c0 2.393-2.014 4.334-4.5 4.334-2.485 0-4.5-1.94-4.5-4.334V67.334c0-2.393 2.015-4.334 4.5-4.334"/><g><path fill="#FEDA6F" d="M543.685 89.019l-22.278 4.08c-.527.096-.91.55-.91 1.079v20.046a8.033 8.033 0 00-2.923-.543c-3.63 0-6.574 2.31-6.574 5.16s2.943 5.159 6.574 5.159c3.47 0 6.305-2.111 6.55-4.785h.024V98.923l17.202-3.105v13.92a8.033 8.033 0 00-2.924-.544c-3.63 0-6.574 2.31-6.574 5.16 0 2.849 2.944 5.159 6.574 5.159 3.47 0 6.305-2.111 6.55-4.786H545v-24.63c0-.685-.631-1.203-1.315-1.078z"/><path fill="#54C3C6" d="M309.198 94.027C306.872 90.795 303.094 89 299.175 89h-1.072a.697.697 0 00-.688.705v23.163a8.523 8.523 0 00-3.206-.619c-3.981 0-7.209 2.63-7.209 5.876 0 3.245 3.228 5.875 7.21 5.875 3.804 0 6.913-2.404 7.182-5.45h.026V94.977c8.947-.174 10.463 11.523 10.463 11.523.536-5.918-.802-9.859-2.683-12.473z"/></g><g><path fill="#FFF" d="M526 308h82v-8h-82z"/><path fill="#4A454C" d="M521 293v7.11h87.059v7.764H521V315h94v-22z"/><path fill="#FFF" d="M529 290h77v-6h-77z"/><path fill="#738694" d="M525 279v4.213h81.944v6.566H525V294h86v-15z"/><path fill="#FFF" d="M534 274h68v-10h-68z"/><path fill="#54C3C6" d="M529 259v20h77v-5.35h-71.713v-9.293H606V259z"/></g><g fill="#1FB2DF"><path d="M271 264h-43.8v38.76c0 6.49 5.7 11.776 12.7 11.776h18.4c7 0 12.7-5.285 12.7-11.776V264z"/><path d="M269.2 303.224h-7.1v-4.359h7.1c3.4 0 6.1-2.503 6.1-5.656v-8.53c0-3.154-2.7-5.657-6.1-5.657h-7.1v-4.358h7.1c5.9 0 10.8 4.45 10.8 10.014v8.531c0 5.564-4.8 10.015-10.8 10.015z"/></g></g></svg>