<svg xmlns="http://www.w3.org/2000/svg" width="183" height="59" viewBox="0 0 183 59">
    <g fill="#E10098" fill-rule="evenodd">
        <path fill-rule="nonzero" d="M70.802 16.657c-.929 0-1.796.123-2.6.37-.744.246-1.425.615-1.982 1.17-.557.492-.99 1.17-1.3 2.032-.31.862-.496 1.847-.558 3.017a86.42 86.42 0 0 0 0 5.666c.062 1.17.248 2.155.558 3.018.31.862.804 1.54 1.3 2.093.557.493 1.238.924 1.981 1.17.805.247 1.61.37 2.6.37.93 0 1.797-.123 2.601-.37a5.545 5.545 0 0 0 2.044-1.17c.619-.554 1.052-1.231 1.362-2.093.31-.863.495-1.848.495-2.956v-1.602h-5.51c-.434 0-.682-.246-.682-.677v-.431c0-.493.248-.677.682-.677h6.687c.495 0 .681.246.681.677v2.771c0 1.232-.186 2.402-.557 3.449a6.92 6.92 0 0 1-1.672 2.648c-.743.739-1.61 1.355-2.663 1.724-1.052.37-2.229.616-3.591.616s-2.539-.185-3.591-.616c-1.053-.43-1.92-.985-2.6-1.724a7.945 7.945 0 0 1-1.61-2.587c-.372-1.046-.558-2.155-.62-3.387-.062-.923-.062-1.909-.062-2.956s0-2.032.062-2.956c.062-1.231.248-2.34.62-3.325a7.617 7.617 0 0 1 1.61-2.648 7.225 7.225 0 0 1 2.6-1.663c1.052-.431 2.229-.616 3.53-.616 1.423 0 2.662.246 3.714.678a8.514 8.514 0 0 1 2.539 1.6c.681.617 1.115 1.232 1.424 1.91.31.677.495 1.231.495 1.663 0 .184-.061.37-.185.492a.705.705 0 0 1-.496.185h-.68a.899.899 0 0 1-.434-.123c-.062-.123-.186-.308-.248-.493-.186-.493-.433-.924-.681-1.416-.31-.493-.681-.862-1.176-1.232-.496-.37-1.115-.677-1.796-.924-.681-.246-1.548-.37-2.477-.37l.186-.307zm14.922 6.22c.743-1.417 2.168-2.156 4.273-2.156h1.176c.434 0 .681.247.681.678v.43c0 .432-.247.678-.68.678H89.81c-1.238 0-2.229.37-2.972 1.109-.743.739-1.115 1.724-1.115 2.956v9.73c0 .246-.061.37-.247.493a.705.705 0 0 1-.496.184h-.495c-.433 0-.681-.246-.681-.677V21.4c0-.247.062-.37.186-.493s.31-.246.495-.246h.495c.248 0 .372.061.496.246.124.123.247.308.247.493v1.478zm19.443 14.164c-.433 0-.68-.246-.68-.677v-1.478a3.246 3.246 0 0 1-.744.862c-.31.308-.681.554-1.115.8-.433.247-.99.431-1.61.555-.619.184-1.3.246-2.105.246a6.41 6.41 0 0 1-2.167-.37c-.681-.246-1.3-.554-1.796-.985-.495-.431-.928-.924-1.238-1.478-.31-.554-.433-1.17-.433-1.847 0-.74.123-1.355.433-1.91a4.88 4.88 0 0 1 1.3-1.477 6.04 6.04 0 0 1 1.982-1.047c.805-.308 1.61-.493 2.539-.616l4.953-.678v-1.108c0-1.109-.371-2.032-1.053-2.648-.68-.616-1.733-.924-3.22-.924-1.176 0-2.105.246-2.724.677-.619.432-1.052.924-1.176 1.417a1.19 1.19 0 0 1-.31.554c-.124.062-.248.123-.433.123h-.434a.705.705 0 0 1-.495-.184.697.697 0 0 1-.186-.493c0-.308.124-.678.31-1.109a6.01 6.01 0 0 1 .99-1.293 4.883 4.883 0 0 1 1.858-1.047c.743-.308 1.61-.493 2.663-.493 1.238 0 2.229.185 3.034.493.805.308 1.486.8 1.92 1.293.433.493.804 1.109.928 1.725.186.677.31 1.293.31 1.909v10.53c0 .432-.248.678-.682.678h-.619zm-6.006-1.54c.743 0 1.362-.123 2.043-.369s1.239-.616 1.672-1.109a4.242 4.242 0 0 0 1.115-1.847 8.072 8.072 0 0 0 .433-2.587v-1.046l-4.087.554c-3.467.492-5.2 1.6-5.2 3.325 0 .493.123.986.37 1.355.248.37.558.678.93.924a4.14 4.14 0 0 0 1.3.554c.495.246.929.308 1.424.246zm19.38 1.848c-1.3 0-2.414-.246-3.219-.677-.867-.493-1.548-1.047-2.043-1.725v7.39c0 .431-.248.678-.681.678h-.558c-.433 0-.68-.247-.68-.678V21.46c0-.43.247-.677.68-.677h.558c.433 0 .68.246.68.677v1.478c.496-.739 1.177-1.293 2.044-1.724.867-.493 1.92-.677 3.22-.677 1.238 0 2.229.246 3.096.677a6.296 6.296 0 0 1 2.105 1.663c.495.677.929 1.478 1.115 2.402.247.862.371 1.786.433 2.71 0 .307.062.677.062 1.046 0 .37 0 .74-.062 1.047-.062.924-.186 1.848-.433 2.71a8.503 8.503 0 0 1-1.115 2.402c-.495.677-1.238 1.231-2.105 1.662-.867.308-1.858.493-3.096.493zm-5.262-9.607c0 .308-.062.739-.062 1.232 0 .492 0 .923.062 1.231 0 .616.123 1.294.31 1.91.247.615.557 1.17.928 1.662.433.493.929.924 1.61 1.232.62.308 1.362.492 2.291.492.929 0 1.672-.184 2.291-.492a4.188 4.188 0 0 0 1.486-1.232c.372-.554.681-1.17.867-1.847.186-.74.31-1.417.371-2.217v-1.725a12.058 12.058 0 0 0-.371-2.155c-.186-.678-.434-1.293-.867-1.848a3.778 3.778 0 0 0-1.486-1.293c-.62-.308-1.362-.493-2.291-.493-.929 0-1.672.185-2.291.493-.62.308-1.177.8-1.61 1.293-.371.493-.681 1.109-.929 1.725-.186.739-.31 1.416-.31 2.032zm18.266-4.865c.557-.74 1.238-1.355 2.043-1.786.805-.431 1.858-.678 3.22-.678 1.053 0 1.981.185 2.786.555.805.37 1.486.862 1.982 1.478.557.616.929 1.355 1.238 2.217.248.862.434 1.786.434 2.771v8.93c0 .43-.248.677-.681.677h-.558c-.433 0-.68-.246-.68-.677v-8.745c0-1.663-.434-2.956-1.24-3.942-.804-.985-2.043-1.416-3.59-1.416-1.487 0-2.725.493-3.592 1.416-.929.924-1.362 2.279-1.362 3.942v8.745c0 .43-.248.677-.681.677h-.557c-.434 0-.682-.246-.682-.677V15.425c0-.43.248-.677.682-.677h.557c.433 0 .68.246.68.677v7.452zm24.582-8.068c1.238 0 2.353.185 3.344.555.99.37 1.857.923 2.6 1.6a6.714 6.714 0 0 1 1.672 2.71c.433 1.047.681 2.34.681 3.819.062.923.062 1.786.062 2.648 0 .8 0 1.663-.062 2.648-.124 2.956-.867 5.173-2.29 6.59l2.042 2.832c0 .062.062.062.062.123 0 .062.062.123.062.247a.558.558 0 0 1-.185.43.564.564 0 0 1-.434.185h-.743c-.248 0-.433-.123-.62-.307l-.433-.432-1.362-1.909c-1.238.616-2.724.924-4.396.924-2.6 0-4.644-.677-6.068-2.094-1.424-1.416-2.167-3.572-2.23-6.528-.061-.923-.061-1.785-.061-2.648 0-.8 0-1.662.062-2.648.062-1.478.247-2.71.68-3.818.434-1.108.992-1.97 1.673-2.71.743-.739 1.61-1.293 2.6-1.6.93-.493 2.044-.678 3.344-.617zm0 1.848c-.867 0-1.734.123-2.477.431a5.113 5.113 0 0 0-1.981 1.232c-.558.554-.991 1.293-1.362 2.155-.31.862-.496 1.91-.558 3.14 0 .494-.062.925-.062 1.294v2.34c0 .37.062.8.062 1.294.062 1.231.248 2.278.558 3.14.31.862.804 1.54 1.3 2.094a5.113 5.113 0 0 0 1.981 1.232c.743.246 1.61.37 2.477.37.929 0 1.734-.124 2.477-.37a5.113 5.113 0 0 0 1.981-1.232c.557-.554.99-1.293 1.3-2.094.31-.862.496-1.909.558-3.14 0-.432.062-.863.062-1.294v-1.17-1.17c0-.37 0-.862-.062-1.293-.062-1.232-.248-2.279-.557-3.14-.31-.863-.744-1.602-1.3-2.156a5.113 5.113 0 0 0-1.982-1.232c-.743-.308-1.61-.431-2.415-.431zm15.356 18.475h10.836c.495 0 .681.246.681.677v.493c0 .431-.248.677-.681.677h-12.136c-.434 0-.681-.246-.681-.677V15.795c0-.431.247-.678.68-.678h.62c.433 0 .681.247.681.678v19.337zM5.105 44L3 42.768 26.653 2l2.106 1.232L5.105 44z"/>
        <path d="M3 40h48v3H3z"/>
        <path fill-rule="nonzero" d="M27.94 56L4 42.17l1.253-2.127 23.94 13.83L27.94 56zm20.807-36.043l-23.94-13.83L26.06 4 50 17.83l-1.253 2.127z"/>
        <path d="M5.244 21L4 18.724 27.756 4 29 6.276z"/>
        <path fill-rule="nonzero" d="M47.893 44L24.215 3.232 26.322 2 50 42.768 47.893 44zM5 15.302h2.48V42.46H5V15.302zm41.157 0h2.48V42.46h-2.418l-.062-27.158z"/>
        <path d="M27.023 54L26 52.108 45.977 40 47 41.892z"/>
        <path fill-rule="nonzero" d="M51.245 44.218c-1.438 2.527-4.627 3.348-7.128 1.959-2.5-1.453-3.313-4.675-1.938-7.202 1.438-2.526 4.627-3.348 7.128-1.958a5.297 5.297 0 0 1 2.438 3.222 5.175 5.175 0 0 1-.5 3.98M9.73 19.96c-1.437 2.527-4.626 3.348-7.127 1.959-2.5-1.453-3.314-4.675-1.938-7.202C2.04 12.192 5.29 11.37 7.792 12.76a5.306 5.306 0 0 1 1.938 7.201M.727 44.218a5.306 5.306 0 0 1 1.939-7.2c2.5-1.454 5.689-.57 7.127 1.957a5.306 5.306 0 0 1-1.938 7.202c-2.564 1.39-5.69.568-7.128-1.959m41.515-24.257a5.306 5.306 0 0 1 1.938-7.2c2.5-1.454 5.69-.57 7.127 1.957a5.306 5.306 0 0 1-1.938 7.202c-2.5 1.453-5.69.568-7.127-1.959M25.986 59c-2.876 0-5.19-2.337-5.19-5.243s2.314-5.243 5.19-5.243c2.876 0 5.19 2.337 5.19 5.243 0 2.843-2.314 5.18-5.19 5.243m0-48.514c-2.876 0-5.19-2.337-5.19-5.243S23.11 0 25.987 0c2.876 0 5.19 2.337 5.19 5.243 0 1.39-.563 2.716-1.501 3.727-1 .948-2.313 1.516-3.689 1.516"/>
    </g>
</svg>
