<svg xmlns="http://www.w3.org/2000/svg" width="57" height="64" viewBox="0 0 57 64">
    <g fill="none" fill-rule="evenodd">
        <path fill="#E44D26" d="M5.108 56.815L0 0h56.12l-5.112 56.807-22.984 6.316z"/>
        <path fill="#F16529" d="M46.516 53.565l4.343-49.181h-22.8V58.74z"/>
        <path fill="#EBEBEB" fill-rule="nonzero" d="M28.912 12.274h-18.39l1.982 21.09h16.433V26.39H19.22l-.671-7.14h10.388v-6.976h-.025zm.025 32.204l-.031.008-8.179-2.096-.52-5.562h-7.375l1.03 10.95 15.042 3.948.033-.01v-7.238z"/>
        <path fill="#FFF" fill-rule="nonzero" d="M27.187 33.345h9.051l-.832 9.035-8.198 2.097v7.249l15.069-3.959 2.018-21.393H27.212l-.025 6.971zm18.236-19.201l.174-1.87H27.183v6.967h17.753l.145-1.566.342-3.531z"/>
    </g>
</svg>
