<svg xmlns="http://www.w3.org/2000/svg" width="61" height="60" viewBox="0 0 61 60">
    <g fill="none" fill-rule="evenodd">
        <path fill="#FFD600" d="M.85 60V0h60v60z"/>
        <path fill="#000001" fill-rule="nonzero" d="M40.882 46.471c1.225 1.897 2.555 3.715 5.372 3.715 2.367 0 3.609-1.123 3.609-2.675 0-1.858-1.284-2.518-3.888-3.6l-1.428-.58c-4.12-1.667-6.859-3.756-6.859-8.17 0-4.066 3.263-7.161 8.363-7.161 3.631 0 6.24 1.2 8.122 4.342l-4.446 2.712c-.979-1.668-2.036-2.324-3.676-2.324-1.673 0-2.733 1.008-2.733 2.324 0 1.627 1.061 2.285 3.511 3.292l1.428.58c4.855 1.973 7.593 3.988 7.593 8.517 0 4.88-4.04 7.555-9.463 7.555-5.305 0-8.317-2.54-9.994-5.683l4.49-2.844zm-20.4.14c.896 1.53 2.256 2.706 4.212 2.706 1.872 0 2.949-.706 2.949-3.448V28h5.895v18.733c0 5.682-3.454 8.267-8.499 8.267-4.558 0-7.848-2.946-9.189-5.684l4.633-2.705z"/>
    </g>
</svg>
