<svg xmlns="http://www.w3.org/2000/svg" width="251" height="176" viewBox="0 0 251 176" fill="#FAFAFA">
    <g fill-rule="evenodd">
        <text font-family="Raleway-Bold, Raleway" font-size="140" font-weight="bold" transform="translate(-2 -7)">
            <tspan x="178" y="132">4</tspan>
        </text>
        <text font-family="Raleway-Bold, Raleway" font-size="140" font-weight="bold" transform="translate(-2 -7)">
            <tspan x="0" y="132">4</tspan>
        </text>
        <path fill="#505050" d="M112.908 176l-.908-.447c.117-.242 11.628-24.706 6.345-53.469-5.351-29.133 7.665-50.869 7.798-51.084l.857.537c-.13.212-12.941 21.63-7.663 50.36 5.345 29.106-6.31 53.857-6.429 54.103"/>
        <path fill="#FF3E7D" d="M173.305 55.83c8.547-29.06-4.173-47.99-24.949-54.05-20.775-6.06-41.74 3.042-50.287 32.102-8.32 28.283.854 56 20.504 63.05-2.256 1.367-6.955 4.492-7.994 7.347-.497 1.69 6.601 3.499 6.601 3.499s6.957 2.29 7.453.6c.673-2.961-1.591-8.117-2.75-10.481 20.365 4.624 43.103-13.785 51.422-42.067"/>
        <path fill="#F48FB1" d="M167.082 25.423c-1.39-3.636-4.682-6.22-8.888-5.198-3.55.863-6.74 4.991-5.343 8.643 1.982 5.187 1.837 9.9-.422 14.98-1.59 3.576 1.498 7.856 4.976 8.848 4.191 1.193 7.512-1.273 9.097-4.84 3.121-7.021 3.32-15.267.58-22.433M154.442 59.225c-6.35-1.803-9.234 7.745-2.884 9.55 6.35 1.803 9.234-7.746 2.884-9.55"/>
    </g>
</svg>
