<svg xmlns="http://www.w3.org/2000/svg" width="89" height="64" viewBox="0 0 89 64">
    <path fill="#CF649A" fill-rule="nonzero" d="M76.24 36.75c-3.096.017-5.778.734-8.027 1.802-.83-1.584-1.66-2.969-1.799-4.003-.155-1.2-.346-1.934-.155-3.369.19-1.434 1.055-3.469 1.055-3.635-.018-.15-.19-.884-1.972-.901-1.782-.017-3.322.334-3.495.784-.173.45-.519 1.484-.744 2.552-.311 1.567-3.563 7.12-5.414 10.04-.606-1.135-1.125-2.135-1.229-2.936-.155-1.2-.346-1.935-.155-3.369.19-1.434 1.055-3.469 1.055-3.635-.017-.15-.19-.884-1.972-.901-1.782-.017-3.321.334-3.494.784-.173.45-.364 1.517-.744 2.551-.364 1.035-4.688 10.307-5.813 12.725a50.724 50.724 0 0 1-1.436 2.886c-.363.667-.017.05-.052.116l-.484.884v.017c-.242.417-.502.817-.623.817-.086 0-.26-1.117.035-2.651.64-3.22 2.197-8.24 2.18-8.423 0-.083.293-.967-1.004-1.417-1.263-.45-1.712.3-1.816.3-.104 0-.19.267-.19.267s1.4-5.654-2.682-5.654c-2.56 0-6.09 2.685-7.837 5.137-1.107.584-3.46 1.818-5.95 3.135-.952.5-1.938 1.034-2.872 1.518l-.19-.2c-4.948-5.087-14.1-8.69-13.719-15.527.139-2.485 1.038-9.04 17.577-16.978 13.545-6.504 24.391-4.72 26.277-.75 2.681 5.67-5.795 16.21-19.877 17.728-5.362.584-8.182-1.418-8.891-2.168-.744-.784-.848-.817-1.125-.667-.45.233-.173.934 0 1.35.415 1.051 2.145 2.92 5.086 3.853 2.577.817 8.875 1.268 16.486-1.568C50.76 24.06 57.42 15.22 55.464 7.832c-1.99-7.522-14.93-9.99-27.16-5.804C21.021 4.53 13.133 8.432 7.46 13.552.712 19.622-.361 24.926.089 27.128c1.575 7.855 12.802 12.975 17.3 16.76-.226.117-.433.234-.623.334-2.25 1.067-10.812 5.387-12.957 9.956-2.422 5.17.38 8.89 2.248 9.39 5.778 1.551 11.695-1.234 14.895-5.82 3.183-4.587 2.802-10.54 1.332-13.259l-.052-.1 1.764-1c1.142-.651 2.267-1.252 3.253-1.769-.554 1.451-.952 3.169-1.16 5.67-.241 2.936 1.004 6.738 2.648 8.24.726.65 1.591.666 2.127.666 1.903 0 2.768-1.517 3.72-3.335 1.176-2.218 2.214-4.786 2.214-4.786s-1.297 6.954 2.249 6.954c1.297 0 2.595-1.618 3.183-2.452v.017s.035-.05.104-.167c.072-.103.142-.209.207-.316v-.034c.52-.867 1.678-2.852 3.408-6.137 2.232-4.236 4.377-9.54 4.377-9.54s.208 1.301.848 3.436c.38 1.268 1.21 2.652 1.85 4.003-.518.7-.83 1.1-.83 1.1l.017.017a47.67 47.67 0 0 1-1.366 1.668c-1.765 2.035-3.875 4.353-4.152 5.02-.328.784-.26 1.367.38 1.835.468.333 1.298.4 2.18.333 1.592-.1 2.7-.484 3.253-.717.865-.3 1.85-.75 2.802-1.418 1.73-1.234 2.785-2.985 2.682-5.32-.052-1.284-.485-2.551-1.021-3.752.156-.217.311-.434.467-.667 2.733-3.853 4.844-8.089 4.844-8.089s.207 1.3.847 3.436c.329 1.084.986 2.268 1.575 3.435-2.56 2.018-4.17 4.353-4.723 5.888-1.02 2.835-.225 4.119 1.28 4.42.675.133 1.644-.168 2.37-.468.9-.283 1.99-.767 2.993-1.484 1.73-1.234 3.39-2.952 3.304-5.27-.052-1.068-.346-2.118-.744-3.119 2.18-.867 5-1.368 8.58-.95 7.699.867 9.221 5.503 8.927 7.438-.294 1.934-1.903 3.002-2.44 3.335-.536.317-.709.434-.657.667.07.35.312.334.779.267.64-.1 4.048-1.584 4.186-5.153.208-4.587-4.307-9.59-12.317-9.54zM16.87 56.048c-2.544 2.685-6.125 3.702-7.647 2.835-1.643-.918-1.003-4.87 2.128-7.722 1.903-1.734 4.377-3.335 6.003-4.32.363-.216.917-.533 1.574-.917.104-.066.173-.1.173-.1.121-.067.26-.15.398-.233 1.159 4.069.052 7.638-2.63 10.457zm18.596-12.192c-.882 2.085-2.75 7.438-3.875 7.138-.969-.25-1.557-4.303-.19-8.305.692-2.018 2.162-4.42 3.027-5.354 1.401-1.5 2.923-2.001 3.304-1.384.45.8-1.712 6.604-2.266 7.905zm15.344 7.072c-.38.183-.726.316-.882.217-.121-.067.156-.317.156-.317s1.92-1.985 2.681-2.902c.433-.534.951-1.15 1.505-1.851v.2c0 2.401-2.387 4.002-3.46 4.653zm11.833-2.602c-.277-.2-.242-.817.692-2.752.363-.767 1.193-2.051 2.63-3.269.172.5.276.984.259 1.435-.017 3.001-2.232 4.119-3.581 4.586z"/>
</svg>
