<?xml version="1.0" encoding="UTF-8"?>
<svg width="300px" height="170px" viewBox="0 0 300 170" version="1.1" xmlns="http://www.w3.org/2000/svg" xmlns:xlink="http://www.w3.org/1999/xlink">
    <!-- Generator: Sketch 63.1 (92452) - https://sketch.com -->
    <title>Thumbnail Playground/SVG</title>
    <desc>Created with Sketch.</desc>
    <defs>
        <polygon id="path-1" points="0.687237876 0.0651745623 12.7379807 0.0651745623 12.7379807 16.424581 0.687237876 16.424581"></polygon>
        <polygon id="path-3" points="0.27191592 0.213710652 11.4010056 0.213710652 11.4010056 11.950973 0.27191592 11.950973"></polygon>
    </defs>
    <g id="Thumbnail-Playground/SVG" stroke="none" stroke-width="1" fill="none" fill-rule="evenodd">
        <rect id="Mask" fill="#B4C0ED" x="0" y="0" width="300" height="170"></rect>
        <g id="Group-43" opacity="0.15" transform="translate(10.000000, -33.000000)">
            <path d="M176.308804,31.0024916 C175.698749,31.323162 175.347575,31.9887486 175.173162,32.4298659 C174.659307,33.7281899 174.814168,35.2181341 175.295173,35.6827151 C175.487575,35.8680782 175.841877,35.8508715 176.349475,35.6287486 C176.973609,35.3557877 176.87819,33.0195866 176.362771,31.297352 C176.33305,31.1995866 176.315844,31.1010391 176.308804,31.0024916 M175.547799,44.0514351 C174.854838,44.0522123 174.158749,43.9607039 173.465006,43.7776872 C170.259866,42.9314302 167.610816,40.1408156 166.716849,36.6666257 C165.919866,33.569419 166.602659,30.0913184 168.543888,27.3624916 C170.457743,24.6735531 173.371151,23.0389162 176.749922,22.7604804 C180.452492,22.4593631 183.164894,25.1655084 183.927464,27.9999218 C184.715061,30.9227151 183.512156,33.6257318 180.863888,34.8841676 C180.362547,35.1227151 179.879978,35.2259553 179.428693,35.1977989 C179.240201,36.4398101 178.692715,37.5840559 177.443665,38.1307598 C175.895061,38.8080782 174.421542,38.6321006 173.399307,37.6474078 C171.866346,36.1684134 171.853832,33.3981341 172.634391,31.4264022 C173.449363,29.363162 175.083218,28.1148939 177.004894,28.0875196 C177.011151,28.0867374 177.017408,28.0867374 177.024447,28.0867374 C177.769028,28.0867374 178.378302,28.6858436 178.389251,29.4327709 C178.390034,29.5344469 178.380648,29.6329944 178.361877,29.7291955 C178.600425,29.8684134 178.798302,30.0811508 178.917966,30.3509832 C179.082994,30.7217095 179.224559,31.0830503 179.355955,31.4217095 C179.478749,31.7353408 179.634391,32.1350056 179.762659,32.3845028 C181.821207,31.3560112 181.454391,29.3162346 181.290927,28.7093073 C180.822436,26.9675196 179.190927,25.2922123 176.975173,25.481486 C173.688693,25.7528827 171.78657,27.5142235 170.769028,28.9447263 C169.310369,30.9954525 168.770704,33.6929944 169.360425,35.9861788 C170.011933,38.5179106 171.896849,40.5404804 174.161877,41.1380223 C176.346346,41.7144469 178.55819,40.9198101 180.565117,38.8424916 C181.08914,38.3004804 181.954168,38.2864022 182.496179,38.8096425 C183.03819,39.3336648 183.052268,40.1979106 182.529028,40.7399218 C180.426682,42.9157877 178.005229,44.0514351 175.547799,44.0514351" id="Fill-9" fill="#6429A3"></path>
            <path d="M238.414994,86.1074302 C238.239799,86.0675419 238.063821,86.0190503 237.884715,85.9611732 C234.918123,85.0046369 232.391866,81.5718994 233.303039,76.8635196 C234.021028,73.1554749 236.001363,70.2029609 238.600358,68.9648603 C240.381251,68.1170391 242.315441,68.1592737 244.05019,69.0860894 C244.701698,69.4341341 244.948067,70.2444134 244.59924,70.8951397 C244.250413,71.5474302 243.440134,71.7922346 242.789408,71.4449721 C241.79533,70.9139106 240.773877,70.8927933 239.75086,71.3792737 C237.94181,72.2411732 236.477676,74.5367039 235.928626,77.3711173 C235.313095,80.5527933 236.860134,82.8209497 238.705944,83.4161453 C240.279575,83.9213966 241.712425,83.1658659 242.533654,81.3873184 C242.844156,80.7170391 243.639575,80.4253073 244.309073,80.7342458 C244.979352,81.0439665 245.271866,81.8386034 244.962145,82.5088827 C243.875777,84.859162 241.461363,86.8027374 238.414994,86.1074302" id="Fill-11" fill="#6429A3"></path>
            <path d="M251.73705,68.2056536 C251.493028,68.2697877 251.247441,68.3378324 251.002637,68.4090056 C250.904089,68.4363799 250.806324,68.4637542 250.707777,68.4903464 C250.594369,68.1454302 250.481743,67.7997318 250.369117,67.4540335 C250.022637,66.4380559 248.438056,66.9284469 248.773587,67.9553743 C248.88543,68.2830838 248.980067,68.6131397 249.074704,68.9424134 C248.62733,69.0667709 248.179955,69.1903464 247.733363,69.3139218 C246.550793,69.6408492 246.853475,71.6595084 248.114257,71.4772737 C248.60152,71.4068827 249.089564,71.3364916 249.576827,71.2668827 C249.669899,71.574257 249.77314,71.8824134 249.896715,72.1921341 C250.11962,72.7497877 250.860291,72.8585028 251.238056,72.5370503 C251.343642,72.4877765 251.436715,72.4173855 251.486771,72.3094525 C251.693251,71.8589497 251.64867,71.421743 251.528223,70.9861006 C251.764425,70.9532514 251.995151,70.9204022 252.209453,70.8875531 C254.171017,70.6044246 253.669676,67.6996201 251.73705,68.2056536" id="Fill-13" fill="#6429A3"></path>
            <path d="M259.795106,66.673162 C259.551084,66.7372961 259.305497,66.8053408 259.060693,66.876514 C258.962145,66.9038883 258.86438,66.9312626 258.765832,66.9586369 L258.426391,65.9215419 C258.080693,64.9055642 256.496112,65.3959553 256.831642,66.4228827 C256.943486,66.7505922 257.038123,67.080648 257.13276,67.4099218 C256.685385,67.5342793 256.238011,67.6578547 255.791419,67.7814302 C254.608849,68.1083575 254.910749,70.1270168 256.172313,69.9447821 L257.634101,69.7343911 C257.727955,70.0417654 257.831196,70.3499218 257.954771,70.6604246 C258.177676,71.2172961 258.918346,71.3267933 259.296112,71.0045587 C259.401698,70.9552849 259.494771,70.8848939 259.544827,70.777743 C259.751307,70.3264581 259.706726,69.8892514 259.586279,69.4536089 C259.82248,69.4207598 260.052425,69.3879106 260.267508,69.3550615 C262.229073,69.071933 261.727732,66.1679106 259.795106,66.673162" id="Fill-15" fill="#6429A3"></path>
            <path d="M207.180525,193.976961 C206.995162,193.976961 206.80667,193.933162 206.632257,193.843218 C206.045665,193.538972 205.815721,192.818637 206.119184,192.232045 L213.950581,177.090145 C214.254045,176.502771 214.975944,176.274391 215.562536,176.577073 C216.149128,176.881318 216.378291,177.601654 216.074827,178.188246 L208.242648,193.330145 C208.030693,193.741542 207.613039,193.976961 207.180525,193.976961" id="Fill-17" fill="#6429A3"></path>
            <path d="M203.004849,190.843933 C202.573899,190.843933 202.15781,190.61086 201.945073,190.202592 L197.506525,181.718123 C197.211665,181.154994 197.40876,180.460469 197.955464,180.135888 L206.310101,175.175665 C206.876358,174.837788 207.611553,175.023933 207.947866,175.592536 C208.284961,176.16114 208.098816,176.893989 207.530212,177.231084 L200.150883,181.613318 L204.063061,189.093542 C204.368872,189.679352 204.142838,190.402034 203.55781,190.707061 C203.38105,190.800134 203.190994,190.843933 203.004849,190.843933" id="Fill-19" fill="#6429A3"></path>
            <g id="Group-23" transform="translate(211.955307, 178.596983)">
                <mask id="mask-2" fill="white">
                    <use xlink:href="#path-1"></use>
                </mask>
                <g id="Clip-22"></g>
                <path d="M1.88319553,16.4248939 C1.41548603,16.4248939 0.972022346,16.1480223 0.780402235,15.6904804 C0.525430168,15.0812067 0.811687151,14.3812067 1.42096089,14.1262346 L10.0368268,10.5159553 L6.89112849,1.6615419 C6.66978771,1.03975419 6.99515084,0.355396648 7.61772067,0.134837989 C8.23950838,-0.0872849162 8.92386592,0.239642458 9.14442458,0.861430168 L12.6686704,10.781095 C12.8814078,11.379419 12.5888939,12.0395307 12.0038659,12.2843352 L2.34464804,16.3310391 C2.19369832,16.3943911 2.03727374,16.4248939 1.88319553,16.4248939" id="Fill-21" fill="#6429A3" mask="url(#mask-2)"></path>
            </g>
            <path d="M17.9938324,161.020101 C15.5715978,162.122894 13.9533855,160.363117 13.4371844,159.184458 C12.9217654,158.006581 12.4110391,156.095073 14.9091397,154.482335 C16.9520447,153.156637 19.2428827,154.25943 19.7583017,155.362223 C20.2745028,156.464235 20.4215419,159.918089 17.9938324,161.020101 M27.1720447,151.845799 C26.4063464,150.473955 25.4638883,149.202223 24.3751732,148.069709 C23.5265698,148.828369 22.6787486,149.586246 21.8301453,150.344905 C20.5889162,149.565911 18.9503687,149.03876 17.1804246,149.083341 C17.1334972,147.962559 16.985676,146.844905 16.7291397,145.752279 C14.7691397,145.724905 12.8075754,146.437419 11.3215419,147.716972 C11.6695866,148.550715 12.1458994,149.329709 12.7309274,150.017978 C12.8216536,150.124346 12.9155084,150.231497 13.008581,150.33943 C12.9444469,150.379318 12.8795307,150.415296 12.8153966,150.456749 C10.4408715,151.994402 9.26299441,153.64781 8.77964246,155.248816 C8.05930726,155.122112 7.33897207,154.990715 6.6162905,154.878089 C6.44735196,154.852279 6.26902793,154.827251 6.10947486,154.889821 C5.95070391,154.951609 5.83494972,155.091609 5.75673743,155.242559 C5.48690503,155.76267 5.60656983,156.390715 5.7317095,156.963229 C5.9092514,157.768034 6.08601117,158.572838 6.26277095,159.377642 C6.35740782,159.804682 6.51539665,160.306022 6.93617877,160.428034 C7.2443352,160.517978 7.56500559,160.358425 7.84969832,160.209039 C8.19696089,160.026804 8.55360894,159.863341 8.90947486,159.698313 C9.07450279,160.232503 9.27081564,160.731497 9.46791061,161.182 C9.99584358,162.387251 11.0329385,163.863117 12.5158436,164.89552 C11.9089162,165.400771 11.3012067,165.904458 10.6942793,166.409709 L11.9941676,167.085464 C13.4301453,167.830827 14.9419888,168.595743 16.5602011,168.569151 C16.8441117,167.775296 17.0584134,166.955631 17.202324,166.123453 C18.0313743,166.035855 18.9159553,165.801218 19.8545028,165.374179 C21.1512626,164.78524 22.1218771,163.899877 22.8390838,162.859654 C23.3936089,163.195966 23.9137207,163.590156 24.3759553,164.045352 C24.4346145,164.102447 24.5065698,164.165799 24.5871285,164.150939 C24.6559553,164.13686 24.6997542,164.071944 24.7357318,164.011721 C25.0837765,163.434514 25.4318212,162.857307 25.7790838,162.278536 C26.3539441,161.324346 26.671486,160.538313 26.9444469,159.457419 C26.0848939,159.231385 25.2863464,158.939654 24.4244469,158.653397 C24.7060112,156.845128 24.5926034,155.06267 24.2946145,153.751832 C25.2941676,153.342 26.2460112,152.814849 27.1180782,152.177419 C27.1595307,152.146916 27.2025475,152.114067 27.2213184,152.06714 C27.2486927,151.99362 27.2103687,151.913061 27.1720447,151.845799" id="Fill-24" fill="#6429A3"></path>
            <path d="M36.8953966,162.697441 C35.6494749,163.265263 34.8172961,162.359564 34.5521564,161.753419 C34.2870168,161.148056 34.0242235,160.164145 35.3092514,159.334313 C36.3596425,158.653084 37.5383017,159.220123 37.8034413,159.787162 C38.068581,160.354201 38.1444469,162.130402 36.8953966,162.697441 M41.6170726,157.978112 C41.2228827,157.272637 40.7379665,156.618782 40.1779665,156.036101 C39.7415419,156.42638 39.3051173,156.815877 38.8686927,157.206156 C38.2304804,156.806492 37.387352,156.534313 36.4769609,156.556994 C36.4534972,155.98057 36.3768492,155.406492 36.2446704,154.844145 C35.236514,154.830067 34.2275754,155.196883 33.4634413,155.85543 C33.6425475,156.284034 33.8881341,156.68448 34.1884693,157.038782 C34.2353966,157.093531 34.2838883,157.148279 34.3315978,157.20381 C34.2987486,157.224145 34.2651173,157.242134 34.2322682,157.264034 C33.0105922,158.05476 32.4052291,158.905709 32.1557318,159.729285 C31.7857877,159.663587 31.4150615,159.596324 31.0435531,159.538447 C30.9567374,159.525151 30.8644469,159.512637 30.7831061,159.544704 C30.7009832,159.575989 30.6407598,159.648726 30.6008715,159.726156 C30.4624358,159.993642 30.5242235,160.315877 30.5883575,160.610737 C30.6798659,161.02448 30.7705922,161.439006 30.8621006,161.852749 C30.9098101,162.072525 30.991933,162.329844 31.2077989,162.392413 C31.3665698,162.439341 31.5315978,162.356436 31.6778547,162.28057 C31.8561788,162.186715 32.0399777,162.102246 32.2229944,162.017777 C32.3074637,162.292302 32.4091397,162.54962 32.5100335,162.780346 C32.7814302,163.40057 33.314838,164.160011 34.0781899,164.691073 L33.1412067,165.470067 C33.3641117,165.585039 33.5870168,165.701575 33.8099218,165.816547 C34.5482458,166.20057 35.325676,166.593978 36.1578547,166.580682 C36.3041117,166.171631 36.4143911,165.750067 36.4879106,165.322246 C36.9149497,165.277665 37.3693631,165.157218 37.8527151,164.936659 C38.5198659,164.63476 39.0188603,164.178782 39.3880223,163.64381 C39.6734972,163.816659 39.9409832,164.019229 40.1787486,164.253866 C40.2084693,164.282804 40.2452291,164.315654 40.2866816,164.307832 C40.3218771,164.301575 40.3453408,164.267162 40.3633296,164.236659 C40.5424358,163.939453 40.7215419,163.642246 40.900648,163.345039 C41.1962905,162.853866 41.3589721,162.450291 41.4997542,161.894201 C41.0570726,161.777665 40.6464581,161.627497 40.2029944,161.479676 C40.3484693,160.550514 40.2898101,159.633084 40.136514,158.959676 C40.6503687,158.747721 41.1399777,158.477106 41.5889162,158.149397 C41.6100335,158.133754 41.6327151,158.11733 41.6413184,158.092302 C41.6561788,158.053978 41.6366257,158.013307 41.6170726,157.978112" id="Fill-26" fill="#6429A3"></path>
            <path d="M256.016592,127.110067 C253.593575,128.212078 251.976145,126.452302 251.460726,125.274425 C250.944525,124.095765 250.433799,122.184257 252.931899,120.57152 C254.974804,119.246603 257.265642,120.348615 257.781061,121.451408 C258.297263,122.554201 258.444302,126.008056 256.016592,127.110067 M265.194804,117.934983 C264.429106,116.563922 263.486648,115.291408 262.397933,114.159676 C261.54933,114.917553 260.700726,115.67543 259.852123,116.434089 C258.610894,115.655877 256.973128,115.127944 255.203184,115.172525 C255.155475,114.051743 255.008436,112.934089 254.751899,111.842246 C252.791899,111.814089 250.829553,112.527385 249.344302,113.806939 C249.691564,114.639899 250.168659,115.418894 250.753687,116.107162 C250.844413,116.214313 250.938268,116.320682 251.031341,116.428615 C250.967207,116.468503 250.902291,116.50448 250.838156,116.545933 C248.463631,118.083587 247.286536,119.737777 246.802402,121.338782 C246.082067,121.211296 245.361732,121.080682 244.63905,120.968056 C244.46933,120.941464 244.291788,120.917218 244.132235,120.979006 C243.973464,121.040793 243.856927,121.181575 243.779497,121.331743 C243.509665,121.851855 243.628547,122.479899 243.754469,123.052413 C243.932011,123.857218 244.108771,124.662022 244.285531,125.466827 C244.379385,125.894648 244.538156,126.395207 244.958156,126.517218 C245.267095,126.607162 245.586983,126.447609 245.871676,126.299006 C246.219721,126.115989 246.576369,125.952525 246.932235,125.787497 C247.097263,126.321687 247.293575,126.821464 247.49067,127.271966 C248.017821,128.477218 249.055698,129.953084 250.538603,130.984704 C249.931676,131.489955 249.323966,131.994425 248.717039,132.498894 C249.150335,132.724145 249.583631,132.949397 250.016927,133.174648 C251.452905,133.920011 252.964749,134.685709 254.582179,134.659117 C254.866089,133.86448 255.081173,133.044816 255.224302,132.213419 C256.054134,132.125039 256.938715,131.890402 257.877263,131.463363 C259.174022,130.874425 260.144637,129.989061 260.861844,128.948838 C261.416369,129.285151 261.935698,129.679341 262.398715,130.134536 C262.456592,130.192413 262.52933,130.255765 262.609888,130.240123 C262.678715,130.226827 262.722514,130.161128 262.758492,130.100905 C263.105754,129.523698 263.454581,128.946492 263.801844,128.368503 C264.376704,127.414313 264.694246,126.627497 264.967207,125.547385 C264.107654,125.321352 263.308324,125.028838 262.447207,124.742581 C262.727989,122.935095 262.616145,121.151855 262.317374,119.841799 C263.316927,119.431966 264.268771,118.904816 265.140838,118.267385 C265.182291,118.236883 265.225307,118.204034 265.244078,118.156324 C265.271453,118.082804 265.233128,118.003028 265.194804,117.934983" id="Fill-28" fill="#6429A3"></path>
            <g id="Group-32" transform="translate(268.268156, 120.719888)">
                <mask id="mask-4" fill="white">
                    <use xlink:href="#path-3"></use>
                </mask>
                <g id="Clip-31"></g>
                <path d="M6.65,8.06744134 C5.40407821,8.63448045 4.57189944,7.72878212 4.30675978,7.12341899 C4.04083799,6.51727374 3.77882682,5.53414525 5.06385475,4.70353073 C6.11424581,4.02230168 7.29212291,4.59012291 7.55804469,5.15637989 C7.82318436,5.72341899 7.89905028,7.49962011 6.65,8.06744134 M11.3708939,3.34811173 C10.977486,2.64185475 10.4925698,1.98878212 9.93256983,1.40531844 C9.49614525,1.79559777 9.05972067,2.18587709 8.62329609,2.57615642 C7.9850838,2.1757095 7.14195531,1.90431285 6.23156425,1.92699441 C6.20810056,1.35056983 6.13145251,0.775709497 6.00005587,0.214145251 C4.99111732,0.199284916 3.98217877,0.566100559 3.21804469,1.22464804 C3.39715084,1.6532514 3.64195531,2.05448045 3.94307263,2.408 C3.99,2.4627486 4.0377095,2.51749721 4.08620112,2.57381006 C4.05335196,2.59336313 4.01972067,2.61213408 3.98687151,2.63403352 C2.76519553,3.42397765 2.1598324,4.27492737 1.9103352,5.09850279 C1.54039106,5.03280447 1.1696648,4.9655419 0.798156425,4.90844693 C0.710558659,4.89436872 0.619050279,4.88185475 0.537709497,4.91392179 C0.455586592,4.94598883 0.396145251,5.01794413 0.35547486,5.0953743 C0.216256983,5.36286034 0.278826816,5.68587709 0.343743017,5.97995531 L0.615921788,7.22196648 C0.665195531,7.44174302 0.74575419,7.69906145 0.962402235,7.76241341 C1.12117318,7.80855866 1.28620112,7.72643575 1.4324581,7.64978771 C1.61156425,7.55671508 1.79458101,7.47146369 1.97759777,7.38699441 C2.06206704,7.66151955 2.16374302,7.91883799 2.26541899,8.15034637 C2.53603352,8.76978771 3.06944134,9.52922905 3.83201117,10.0602905 L2.89502793,10.8392849 C3.11793296,10.9550391 3.34162011,11.0707933 3.56452514,11.1865475 C4.30284916,11.5705698 5.08027933,11.9631955 5.9124581,11.9506816 C6.05871508,11.5416313 6.16899441,11.120067 6.24251397,10.6922458 C6.66955307,10.6468827 7.12396648,10.5264358 7.60731844,10.3066592 C8.27446927,10.0039777 8.77346369,9.548 9.1426257,9.01302793 C9.42810056,9.18665922 9.69558659,9.38844693 9.93256983,9.6230838 C9.96307263,9.65280447 9.9998324,9.68487151 10.0412849,9.6778324 C10.0772626,9.6707933 10.099162,9.63716201 10.117933,9.60587709 C10.2970391,9.30867039 10.4761453,9.01146369 10.6544693,8.71425698 C10.9501117,8.2230838 11.1135754,7.81950838 11.2543575,7.26341899 C10.811676,7.14688268 10.4010615,6.99671508 9.95759777,6.84889385 C10.1022905,5.91973184 10.0444134,5.00230168 9.89111732,4.32889385 C10.4049721,4.11772067 10.894581,3.84710615 11.3435196,3.51939665 C11.3646369,3.50297207 11.3873184,3.48654749 11.3959218,3.46151955 C11.4107821,3.42397765 11.3912291,3.38330726 11.3708939,3.34811173" id="Fill-30" fill="#6429A3" mask="url(#mask-4)"></path>
            </g>
            <path d="M5.58529609,109.236212 C5.44294972,109.236212 5.29825698,109.229173 5.15043575,109.216659 C2.68987709,109.000793 0.133117318,106.794425 0.00719553073,102.997218 C-0.0929162011,100.00638 0.916022346,97.3768827 2.70630168,95.9612402 C3.93188827,94.9929721 5.43591061,94.6855978 6.93680447,95.0938659 C7.50071508,95.2479441 7.83389944,95.8306257 7.67982123,96.3953184 C7.52574302,96.9592291 6.94306145,97.2924134 6.37915084,97.1383352 C5.51881564,96.9036983 4.72496089,97.0663799 4.02026816,97.6240335 C2.77434637,98.6087263 2.04853631,100.639899 2.12440223,102.926045 C2.21043575,105.49219 3.80518436,106.971184 5.33579888,107.105709 C6.64272626,107.219899 7.61334078,106.382246 7.9347933,104.863363 C8.05602235,104.290849 8.61602235,103.924034 9.19088268,104.046045 C9.76339665,104.167274 10.1294302,104.72962 10.0082011,105.302134 C9.58350838,107.308279 8.06149721,109.236212 5.58529609,109.236212" id="Fill-33" fill="#6429A3"></path>
            <path d="M12.9909832,95.4780447 C11.8733296,95.2840782 10.9191397,96.192905 11.1099777,97.3238547 C11.2836089,98.3578212 12.6061788,98.8364804 13.4805922,98.3758101 C13.6299777,98.2968156 13.7629385,98.1818436 13.8716536,98.0473184 C14.0726592,97.9049721 14.2314302,97.7000559 14.3127709,97.4474302 C14.5958994,96.568324 13.8505363,95.6274302 12.9909832,95.4780447" id="Fill-35" fill="#6429A3"></path>
            <path d="M14.1420335,102.287207 C14.1420335,102.28486 14.1420335,102.28486 14.1412514,102.283296 C14.1404693,102.284078 14.1396872,102.284078 14.138905,102.28486 C14.1396872,102.286425 14.1412514,102.286425 14.1420335,102.287207" id="Fill-37" fill="#6429A3"></path>
            <path d="M15.6699888,102.326547 C15.6121117,102.15448 15.5252961,102.012134 15.410324,101.894034 C15.2054078,101.431799 14.7650726,101.110346 14.264514,101.043084 C13.6974749,100.966436 13.1233966,101.205765 12.8246257,101.710235 C12.5555754,102.16543 12.5305475,102.71057 12.7346816,103.19314 C13.0162458,103.861073 13.6990391,104.207553 14.4052961,104.112916 C15.1647374,104.010458 15.9359106,103.115709 15.6699888,102.326547" id="Fill-39" fill="#6429A3"></path>
            <path d="M19.9537542,105.679978 C19.4125251,105.679978 18.9510726,105.267017 18.9002346,104.717966 L17.5495084,90.0695866 C17.4955419,89.4861229 17.9241453,88.9707039 18.5068268,88.9167374 C19.0926369,88.8612067 19.6057095,89.2921564 19.659676,89.874838 L21.0104022,104.523218 C21.0635866,105.105899 20.6349832,105.621318 20.0523017,105.675285 C20.0186704,105.678413 19.9866034,105.679978 19.9537542,105.679978" id="Fill-41" fill="#6429A3"></path>
        </g>
        <g id="SVG-icon-by-Darius-Dan" transform="translate(105.000000, 40.000000)" fill-rule="nonzero">
            <path d="M78.7698318,15.7698318 L78.7698318,85.0853365 C78.7698318,86.8251203 77.3590745,88.2358775 75.6192909,88.2358775 L17.3293269,88.2358775 C15.5895434,88.2358775 14.178786,86.8251203 14.178786,85.0853365 L14.178786,4.74068515 C14.178786,3.00090138 15.5895434,1.59014423 17.3293269,1.59014423 L64.5910456,1.59014423" id="Path" fill="#FFFFFF"></path>
            <path d="M77.1941105,15.7698318 L77.1941105,85.0853365 C77.1923077,85.9543269 76.4882813,86.6583533 75.6192909,86.6601563 L17.3293269,86.6601563 C16.4603365,86.6583533 15.7554088,85.9543269 15.7545072,85.0853365 L15.7545072,4.74068515 C15.7554088,3.87169477 16.4603365,3.16676677 17.3293269,3.164964 L64.5910456,3.164964 C65.4609374,3.164964 66.1658654,2.460036 66.1658654,1.59014423 C66.1658654,0.719351077 65.4609374,0.0144230769 64.5910456,0.0144230769 L17.3293269,0.0144230769 C14.71875,0.0153245077 12.6048678,2.12920662 12.6030648,4.74068515 L12.6030648,85.0853365 C12.6048678,87.6959135 14.71875,89.8097956 17.3293269,89.8106972 L75.6192909,89.8106972 C78.2298678,89.8097956 80.34375,87.6959135 80.3446514,85.0853365 L80.3446514,15.7698318 C80.3446514,14.8990385 79.6397236,14.1941105 78.7698318,14.1941105 C77.8990385,14.1941105 77.1941105,14.8990385 77.1941105,15.7698318 Z" id="Path" fill="#54596E"></path>
            <polygon id="Path" fill="#D8D8D8" points="78.7698318 15.7680288 64.5910456 15.7680288 64.5910456 1.59014423"></polygon>
            <g id="Group" transform="translate(29.769231, 0.000000)" fill="#54596E">
                <path d="M49.0006011,15.7680288 L49.0006011,14.1932091 L36.397536,14.1932091 L36.397536,5.39332938 L47.8864182,16.8822115 L49.0006011,15.7680288 L49.0006011,14.1932091 L49.0006011,15.7680288 L50.1138822,14.6538462 L35.9359975,0.475961538 C35.4852764,0.024339 34.8073918,-0.109975846 34.21875,0.134314846 C33.6301082,0.377704385 33.2460937,0.952824462 33.2460937,1.59014423 L33.2460937,15.7680288 C33.2460937,16.1890025 33.4101563,16.5838341 33.7076322,16.8822115 C34.0051082,17.1796874 34.4008412,17.3428486 34.8218148,17.3428486 L48.9996995,17.3428486 C49.6370192,17.3428486 50.2112379,16.9588341 50.4555288,16.3710937 C50.6989182,15.7824519 50.5646033,15.1045673 50.1138822,14.6538462 L49.0006011,15.7680288 Z" id="Path"></path>
                <path d="M8.23557692,56.321214 C10.3070912,58.5721154 13.6929088,59.8647835 17.4924879,59.8783052 C21.2551082,59.8656852 24.6102764,58.5973558 26.6881011,56.3879206 C27.2803486,55.7506011 27.2433895,54.7536058 26.6060698,54.1622596 C25.9678486,53.5700121 24.9717549,53.6069712 24.3795072,54.2442909 C23.1256011,55.6225962 20.5240385,56.741286 17.4924879,56.7286659 C14.4311898,56.7421874 11.8079928,55.5982572 10.5685096,54.2028245 C9.98347362,53.5591948 8.98647831,53.5105168 8.34284862,54.0964544 C7.69831731,54.680589 7.65054092,55.6775841 8.23557692,56.321214 L8.23557692,56.321214 Z" id="Path"></path>
                <path d="M6.46514423,39.399339 C6.46514423,41.1391225 5.05438708,42.5498797 3.31460331,42.5498797 C1.57391815,42.5498797 0.163161,41.1391225 0.163161,39.399339 C0.163161,37.6586538 1.57391815,36.2478967 3.31460331,36.2478967 C5.05438708,36.2478967 6.46514423,37.6586538 6.46514423,39.399339 Z" id="Path"></path>
                <path d="M34.8218148,39.399339 C34.8218148,41.1391225 33.4110577,42.5498797 31.6712742,42.5498797 C29.9314904,42.5498797 28.5207332,41.1391225 28.5207332,39.399339 C28.5207332,37.6586538 29.9314904,36.2478967 31.6712742,36.2478967 C33.4110577,36.2478967 34.8218148,37.6586538 34.8218148,39.399339 Z" id="Path"></path>
            </g>
            <path d="M64.5910456,48.8509615 C64.5910456,50.5916467 63.1802885,52.0024038 61.4405049,52.0024038 C59.7007212,52.0024038 58.289964,50.5916467 58.289964,48.8509615 C58.289964,47.111178 59.7007212,45.7004206 61.4405049,45.7004206 C63.1802885,45.7004206 64.5910456,47.111178 64.5910456,48.8509615 Z" id="Path" fill="#FF927D"></path>
            <path d="M36.234375,48.8509615 C36.234375,50.5916467 34.8236178,52.0024038 33.0838341,52.0024038 C31.3431489,52.0024038 29.9323918,50.5916467 29.9323918,48.8509615 C29.9323918,47.111178 31.3431489,45.7004206 33.0838341,45.7004206 C34.8236178,45.7004206 36.234375,47.111178 36.234375,48.8509615 Z" id="Path" fill="#FF927D"></path>
            <path d="M88.2223558,86.6601563 L61.4405049,86.6601563 C60.5706129,86.6601563 59.8647835,87.3650841 59.8647835,88.2358775 C59.8647835,89.1057692 60.5706129,89.8115986 61.4405049,89.8115986 L88.2223558,89.8115986 C89.0922475,89.8115986 89.7971755,89.1057692 89.7971755,88.2358775 C89.7971755,87.3659857 89.0922475,86.6601563 88.2223558,86.6601563" id="Path" fill="#54596E"></path>
            <path d="M47.9170673,29.9468148 L1.57572115,29.9468148 L1.57572115,7.89122585 L49.4927885,7.89122585 C50.6051682,7.89122585 51.3019832,9.09284862 50.7493989,10.0573918 L47.6069712,18.045072 C47.3852165,18.6066706 47.3852165,19.2313703 47.6069712,19.7929687 L50.7493989,27.7806489 C51.3019832,28.7451923 49.0294472,29.9468148 47.9170673,29.9468148 Z" id="Path" fill="#F4A14E"></path>
            <path d="M47.9170673,29.9468148 L47.9170673,28.3710937 L3.15054092,28.3710937 L3.15054092,9.46694723 L49.4927885,9.46694723 L49.4927885,9.33173077 L49.3981371,9.42277638 L49.4927885,9.46604562 L49.4927885,9.33173077 L49.3981371,9.42277638 L49.4837742,9.33984369 L49.3674879,9.33984369 L49.3981371,9.42277638 L49.4837742,9.33984369 L49.3674879,9.33984369 L49.4927885,9.33984369 L49.3810096,9.27674285 L49.3674879,9.33984369 L49.4927885,9.33984369 L49.3810096,9.27674285 L49.2836538,9.48046869 L46.1403245,17.4681489 C45.9573318,17.9332934 45.8653846,18.4263822 45.8653846,18.9185698 C45.8653846,19.4116588 45.9573318,19.9047475 46.1412258,20.3707934 L49.2836538,28.3566706 L49.383714,28.5640025 L50.2076322,28.0916467 L49.2593148,28.0916467 C49.2566105,28.2530049 49.3106972,28.4441105 49.383714,28.5640025 L50.2076322,28.0916467 L49.2593148,28.0916467 L50.0615986,28.0916467 L49.3341346,27.7373797 C49.3070912,27.7932692 49.2593148,27.9176682 49.2593148,28.0916467 L50.0615986,28.0916467 L49.3341346,27.7373797 L49.6757813,27.9032451 L49.361178,27.6905049 L49.3341346,27.7373797 L49.6757813,27.9032451 L49.361178,27.6905049 L49.3602764,27.6914063 C49.3260217,27.7481972 49.0042066,27.9978967 48.6607572,28.1448318 C48.3272236,28.3079928 47.9251802,28.383714 47.9179687,28.3710937 L47.9179687,31.5216346 C48.4155648,31.5180288 48.8455528,31.4188703 49.2800481,31.2809495 C49.9272835,31.0664063 50.5591948,30.7572115 51.1334135,30.3209135 C51.420072,30.0991588 51.6950121,29.8458533 51.9393028,29.5015025 C52.1772835,29.1625602 52.4071514,28.6938102 52.4107572,28.0925481 C52.4134615,27.7202525 52.3052885,27.3200121 52.1168871,26.9972956 L50.7503005,27.7815505 L52.2160456,27.2046275 L49.0736178,19.2169472 L49.0150242,18.9185698 L49.0718148,18.6237981 L52.2151442,10.6343148 L50.7493989,10.0573918 L52.1177885,10.8380409 C52.3855168,10.3701923 52.5189302,9.84555277 52.5180334,9.33984369 C52.5162258,8.53936292 52.2034255,7.79837746 51.6706731,7.241286 C51.1433294,6.68419477 50.3518629,6.31189892 49.4918871,6.31547896 L1.57572115,6.31547896 C1.16105769,6.31547896 0.755408769,6.48317308 0.461538462,6.77704338 C0.168569769,7.07001208 0,7.47656262 0,7.89122585 L0,29.9468148 C0,30.3668871 0.164062615,30.7626203 0.462439846,31.0600962 C0.759915923,31.3584736 1.15474754,31.5216346 1.57572115,31.5216346 L47.9170673,31.5216346 L47.9170673,29.9468148 Z" id="Path" fill="#54596E"></path>
            <path d="M15.7545072,11.0417668 L7.87770438,11.0417668 C7.46304092,11.0417668 7.05649038,11.2094352 6.76352169,11.5033052 C6.46965138,11.7962742 6.30198323,12.2028245 6.30198323,12.6174879 L6.30198323,18.9185698 C6.30198323,19.3395434 6.46604562,19.7352764 6.76352169,20.0327525 C7.06099754,20.3302283 7.45673077,20.4942909 7.87770438,20.4942909 L14.178786,20.4942909 L14.178786,23.6448318 L7.87770438,23.6457332 C7.006911,23.6457332 6.30198323,24.350661 6.30198323,25.2205528 C6.30198323,26.0913462 7.006911,26.7962742 7.87770438,26.7962742 L15.7545072,26.7962742 C16.1745794,26.7962742 16.5703126,26.6322115 16.8677885,26.3347357 C17.1661659,26.0372596 17.3293269,25.6415264 17.3293269,25.2205528 L17.3293269,18.9185698 C17.3293269,18.5039063 17.1616588,18.0982572 16.8677885,17.8043871 C16.5748198,17.5114182 16.1691706,17.34375 15.7545072,17.34375 L9.45252415,17.34375 L9.45252415,14.1923077 L15.7545072,14.1923077 C16.6234975,14.1932091 17.3293269,13.4873797 17.3293269,12.6174879 C17.3293269,11.7475962 16.6234975,11.0426682 15.7545072,11.0417668 Z" id="Path" fill="#54596E"></path>
            <polygon id="Path" fill="#F4A14E" points="1.57572115 29.9468148 14.178786 29.9468148 14.178786 37.8236178"></polygon>
            <path d="M1.57572115,29.9468148 L1.57572115,31.5216346 L12.6030648,31.5216346 L12.6030648,34.9813703 L2.41045662,28.6099758 L1.57572115,29.9468148 L1.57572115,31.5216346 L1.57572115,29.9468148 L0.740985692,31.2827525 L13.3440505,39.1595552 C13.829928,39.4633412 14.4420072,39.4795673 14.9423077,39.2010217 C15.4435096,38.9233775 15.7536058,38.3969352 15.7536058,37.8236178 L15.7536058,29.9468148 C15.7536058,29.53125 15.5859374,29.1256011 15.2929687,28.8326322 C14.9990986,28.5396635 14.5934495,28.3710937 14.178786,28.3710937 L1.57572115,28.3710937 C0.871694769,28.3710937 0.256009615,28.8353365 0.0612980769,29.5114182 C-0.132512077,30.1893028 0.143329385,30.9086538 0.740985692,31.2818511 L1.57572115,29.9468148 Z" id="Path" fill="#54596E"></path>
            <path d="M19.0051082,13.1709736 L23.7313703,25.7740385 C23.9612379,26.388822 24.5498797,26.7962742 25.2061297,26.7962742 C25.8623797,26.7962742 26.4510217,26.3879206 26.6808895,25.7740385 L31.4071514,13.1709736 C31.7127404,12.3560698 31.2998797,11.4483173 30.4849758,11.1427283 C29.670072,10.8371395 28.7623198,11.25 28.4576322,12.0649038 L25.2061297,20.7340745 L21.9546275,12.0640025 C21.6490385,11.2490986 20.741286,10.8371395 19.9263822,11.1427283 C19.1123797,11.4483173 18.6995192,12.3560698 19.0051082,13.1709736 Z" id="Path" fill="#54596E"></path>
            <path d="M40.9606371,11.0417668 L34.6586538,11.0417668 C34.2439904,11.0417668 33.8383412,11.2094352 33.5444712,11.5033052 C33.2515025,11.7962742 33.0838341,12.2019231 33.0838341,12.6174879 L33.0838341,25.2205528 C33.0838341,25.6415264 33.2469951,26.0363582 33.5453725,26.3347357 C33.8428486,26.6322115 34.2385818,26.7953725 34.6586538,26.7953725 L42.5354566,26.7953725 C42.9564302,26.7953725 43.3521635,26.6322115 43.6496395,26.3347357 C43.9471154,26.0363582 44.111178,25.6415264 44.111178,25.2205528 L44.111178,18.9185698 C44.111178,18.5039063 43.9426082,18.0982572 43.6496395,17.8043871 C43.3557692,17.5114182 42.9501203,17.34375 42.5354566,17.34375 L39.3849159,17.34375 C38.5150242,17.34375 37.8100962,18.048678 37.8100962,18.9185698 C37.8100962,19.7893629 38.5150242,20.4942909 39.3849159,20.4942909 L40.9606371,20.4942909 L40.9606371,23.6448318 L36.234375,23.6448318 L36.234375,14.1932091 L40.9606371,14.1932091 C41.8305288,14.1932091 42.5354566,13.4873797 42.5354566,12.6174879 C42.5354566,11.7475962 41.8305288,11.0417668 40.9606371,11.0417668 Z" id="Path" fill="#54596E"></path>
        </g>
    </g>
</svg>