<?xml version="1.0" encoding="UTF-8"?>
<svg width="300px" height="170px" viewBox="0 0 300 170" version="1.1" xmlns="http://www.w3.org/2000/svg" xmlns:xlink="http://www.w3.org/1999/xlink">
    <!-- Generator: Sketch 63.1 (92452) - https://sketch.com -->
    <title>Thumbnail Playground/TMDB</title>
    <desc>Created with Sketch.</desc>
    <defs>
        <rect id="path-1" x="0" y="0" width="300" height="170"></rect>
    </defs>
    <g id="Thumbnail-Playground/TMDB" stroke="none" stroke-width="1" fill="none" fill-rule="evenodd">
        <g id="Group-13">
            <mask id="mask-2" fill="white">
                <use xlink:href="#path-1"></use>
            </mask>
            <use id="Mask" fill="#F2BA7D" xlink:href="#path-1"></use>
            <g opacity="0.2" mask="url(#mask-2)" fill="#DE8132">
                <g transform="translate(0.000000, -23.000000)">
                    <path d="M0,-0.000333333333 L0,2.62833333 L2.75466667,3.04033333 L1.808,9.369 L0,9.09833333 L0,11.7263333 L61.8046667,20.977 L65.4993333,21.5303333 L161.752667,35.9363333 L163.469333,24.4656667 L67.216,10.0596667 L63.5213333,9.507 L0,-0.000333333333 Z M5.99066667,9.995 L6.93866667,3.667 L14.8753333,4.855 L13.928,11.183 L5.99066667,9.995 Z M18.1113333,11.809 L19.0586667,5.48033333 L26.9946667,6.669 L26.048,12.997 L18.1113333,11.809 Z M30.2306667,13.623 L31.178,7.295 L39.1153333,8.48233333 L38.168,14.8103333 L30.2306667,13.623 Z M42.3513333,15.437 L43.2986667,9.109 L51.2353333,10.2963333 L50.288,16.625 L42.3513333,15.437 Z M54.4706667,17.251 L55.4186667,10.923 L63.1366667,12.0783333 L62.1893333,18.4063333 L54.4706667,17.251 Z M65.884,18.959 L66.8313333,12.631 L74.7686667,13.819 L73.8213333,20.147 L65.884,18.959 Z M78.004,20.773 L78.9513333,14.4443333 L86.8886667,15.6323333 L85.9406667,21.961 L78.004,20.773 Z M90.124,22.587 L91.0706667,16.2583333 L99.0086667,17.447 L98.0606667,23.775 L90.124,22.587 Z M102.244,24.401 L103.191333,18.073 L111.128667,19.261 L110.180667,25.589 L102.244,24.401 Z M114.364,26.215 L115.311333,19.887 L123.248,21.075 L122.300667,27.403 L114.364,26.215 Z M126.484,28.029 L127.431333,21.701 L135.368667,22.8883333 L134.421333,29.217 L126.484,28.029 Z M138.604,29.843 L139.551333,23.515 L147.488667,24.703 L146.540667,31.031 L138.604,29.843 Z M150.724,31.657 L151.671333,25.3283333 L159.608,26.5163333 L158.661333,32.845 L150.724,31.657 Z" id="Fill-1"></path>
                    <path d="M0,50.0234667 L0.722666667,45.1961333 L8.65933333,46.3841333 L7.71266667,52.7121333 L0,51.5574667 L0,54.1861333 L55.5893333,62.5061333 L59.2833333,63.0588 L155.537333,77.4648 L157.254,65.9948 L61.0006667,51.5888 L57.306,51.0361333 L0,42.4594667 L0,50.0234667 Z M11.8953333,53.3381333 L12.8426667,47.0094667 L20.7793333,48.1974667 L19.8326667,54.5261333 L11.8953333,53.3381333 Z M24.0153333,55.1514667 L24.9626667,48.8241333 L32.8993333,50.0114667 L31.9526667,56.3394667 L24.0153333,55.1514667 Z M36.1353333,56.9661333 L37.0826667,50.6381333 L45.0193333,51.8261333 L44.0726667,58.1541333 L36.1353333,56.9661333 Z M48.2553333,58.7801333 L49.2026667,52.4514667 L56.9213333,53.6074667 L55.974,59.9348 L48.2553333,58.7801333 Z M59.6686667,60.4881333 L60.6153333,54.1601333 L68.5526667,55.3481333 L67.6053333,61.6761333 L59.6686667,60.4881333 Z M71.7886667,62.3028 L72.7353333,55.9734667 L80.6726667,57.1614667 L79.7253333,63.4901333 L71.7886667,62.3028 Z M83.9086667,64.1161333 L84.8553333,57.7881333 L92.7926667,58.9761333 L91.8453333,65.3034667 L83.9086667,64.1161333 Z M96.0286667,65.9301333 L96.976,59.6021333 L104.912667,60.7901333 L103.965333,67.1181333 L96.0286667,65.9301333 Z M108.148667,67.7441333 L109.095333,61.4154667 L117.032667,62.6034667 L116.085333,68.9321333 L108.148667,67.7441333 Z M120.268667,69.5581333 L121.215333,63.2294667 L129.152667,64.4181333 L128.205333,70.7461333 L120.268667,69.5581333 Z M132.388667,71.3721333 L133.336,65.0441333 L141.272667,66.2321333 L140.325333,72.5601333 L132.388667,71.3721333 Z M144.508667,73.1861333 L145.455333,66.8581333 L153.392667,68.0454667 L152.445333,74.3741333 L144.508667,73.1861333 Z" id="Fill-2"></path>
                    <polygon id="Fill-3" points="115.972667 62.4452667 121.241333 27.2446 127.544 28.1879333 122.276 63.3886"></polygon>
                    <polygon id="Fill-4" points="79.5745333 56.9973333 84.8425333 21.7966667 91.1458667 22.74 85.8772 57.9406667"></polygon>
                    <polygon id="Fill-5" points="43.1761333 51.5497333 48.4448 16.3490667 54.7474667 17.2924 49.4794667 52.4930667"></polygon>
                    <polygon id="Fill-6" points="6.778 46.1021333 12.0466667 10.9014667 18.3493333 11.8448 13.0806667 47.0454667"></polygon>
                    <path d="M158.0202,35.3234667 L254.273533,49.7294667 L257.9682,50.2828 L300.0002,56.5734667 L300.0002,53.9448 L294.712867,53.1534667 L295.6602,46.8254667 L300.0002,47.4748 L300.0002,44.8468 L259.684867,38.8121333 L255.9902,38.2601333 L159.736867,23.8534667 L158.0202,35.3234667 Z M162.099533,33.3054667 L163.046867,26.9774667 L170.983533,28.1654667 L170.0362,34.4934667 L162.099533,33.3054667 Z M174.2202,35.1194667 L175.167533,28.7914667 L183.103533,29.9794667 L182.156867,36.3074667 L174.2202,35.1194667 Z M186.339533,36.9334667 L187.286867,30.6054667 L195.223533,31.7928 L194.2762,38.1214667 L186.339533,36.9334667 Z M198.459533,38.7474667 L199.406867,32.4194667 L207.343533,33.6074667 L206.3962,39.9354667 L198.459533,38.7474667 Z M210.5802,40.5614667 L211.5262,34.2334667 L219.463533,35.4214667 L218.516867,41.7494667 L210.5802,40.5614667 Z M222.699533,42.3761333 L223.646867,36.0468 L231.583533,37.2348 L230.636867,43.5634667 L222.699533,42.3761333 Z M234.819533,44.1894667 L235.766867,37.8614667 L243.703533,39.0488 L242.7562,45.3774667 L234.819533,44.1894667 Z M246.9402,46.0034667 L247.887533,39.6754667 L255.605533,40.8301333 L254.6582,47.1588 L246.9402,46.0034667 Z M258.352867,47.7114667 L259.3002,41.3834667 L267.236867,42.5714667 L266.289533,48.8994667 L258.352867,47.7114667 Z M270.473533,49.5254667 L271.420867,43.1974667 L279.356867,44.3854667 L278.4102,50.7134667 L270.473533,49.5254667 Z M282.592867,51.3401333 L283.5402,45.0108 L291.476867,46.1988 L290.5302,52.5281333 L282.592867,51.3401333 Z" id="Fill-7"></path>
                    <path d="M151.8048,76.8524667 L248.058133,91.2584667 L251.7528,91.8118 L300.000133,99.0324667 L300.000133,87.3058 L253.469467,80.3411333 L249.7748,79.7891333 L153.521467,65.3824667 L151.8048,76.8524667 Z M155.884133,74.8344667 L156.831467,68.5064667 L164.768133,69.6944667 L163.8208,76.0224667 L155.884133,74.8344667 Z M168.0048,76.6484667 L168.9508,70.3204667 L176.887467,71.5084667 L175.9408,77.8364667 L168.0048,76.6484667 Z M180.124133,78.4624667 L181.071467,72.1338 L189.008133,73.3218 L188.0608,79.6504667 L180.124133,78.4624667 Z M192.244133,80.2764667 L193.191467,73.9484667 L201.128133,75.1364667 L200.1808,81.4644667 L192.244133,80.2764667 Z M204.3648,82.0904667 L205.3108,75.7624667 L213.248133,76.9504667 L212.3008,83.2784667 L204.3648,82.0904667 Z M216.484133,83.9044667 L217.431467,77.5764667 L225.368133,78.7638 L224.4208,85.0924667 L216.484133,83.9044667 Z M228.604133,85.7184667 L229.551467,79.3904667 L237.488133,80.5778 L236.5408,86.9064667 L228.604133,85.7184667 Z M240.7248,87.5324667 L241.6708,81.2044667 L249.390133,82.3598 L248.4428,88.6871333 L240.7248,87.5324667 Z M252.137467,89.2404667 L253.0848,82.9124667 L261.021467,84.1004667 L260.074133,90.4284667 L252.137467,89.2404667 Z M264.258133,91.0544667 L265.204133,84.7264667 L273.1408,85.9144667 L272.194133,92.2424667 L264.258133,91.0544667 Z M276.377467,92.8691333 L277.3248,86.5404667 L285.261467,87.7284667 L284.314133,94.0571333 L276.377467,92.8691333 Z M288.497467,94.6824667 L289.4448,88.3544667 L297.381467,89.5424667 L296.434133,95.8704667 L288.497467,94.6824667 Z" id="Fill-8"></path>
                    <polygon id="Fill-9" points="272.0436 85.7499333 277.3116 50.5492667 283.614267 51.4926 278.346267 86.6932667"></polygon>
                    <polygon id="Fill-10" points="235.6452 80.3023333 240.9132 45.1016667 247.215867 46.045 241.947867 81.2456667"></polygon>
                    <polygon id="Fill-11" points="199.246733 74.8547333 204.5154 39.6540667 210.818067 40.5974 205.5494 75.7980667"></polygon>
                    <polygon id="Fill-12" points="162.848333 69.4068 168.117 34.2061333 174.419667 35.1494667 169.151667 70.3501333"></polygon>
                </g>
            </g>
            <g opacity="0.2" mask="url(#mask-2)" fill="#DE8132">
                <g transform="translate(149.970948, 161.998732) rotate(5.000000) translate(-149.970948, -161.998732) translate(-0.029052, 110.998732)">
                    <path d="M56.8944,39.3358667 L53.2064,39.9318667 L-0.000266666667,48.5292 L-0.000266666667,51.1625333 L5.44706667,50.2825333 L6.46706667,56.5985333 L-0.000266666667,57.6445333 L-0.000266666667,60.2772 L55.0564,51.3812 L58.7444,50.7852 L154.823067,35.2598667 L152.9744,23.8105333 L56.8944,39.3358667 Z M141.995733,28.2185333 L149.9184,26.9378667 L150.939067,33.2545333 L143.0164,34.5345333 L141.995733,28.2185333 Z M129.897733,30.1725333 L137.819733,28.8925333 L138.8404,35.2098667 L130.9184,36.4898667 L129.897733,30.1725333 Z M117.799067,32.1278667 L125.7224,30.8478667 L126.743067,37.1645333 L118.8204,38.4445333 L117.799067,32.1278667 Z M105.701067,34.0825333 L113.623733,32.8025333 L114.6444,39.1192 L106.7224,40.3998667 L105.701067,34.0825333 Z M93.6037333,36.0378667 L101.525733,34.7572 L102.5464,41.0738667 L94.6244,42.3545333 L93.6037333,36.0378667 Z M81.5050667,37.9925333 L89.4277333,36.7118667 L90.4490667,43.0285333 L82.5257333,44.3085333 L81.5050667,37.9925333 Z M69.4077333,39.9465333 L77.3297333,38.6665333 L78.3504,44.9845333 L70.4277333,46.2638667 L69.4077333,39.9465333 Z M57.3090667,41.9018667 L65.2317333,40.6225333 L66.2517333,46.9385333 L58.3297333,48.2185333 L57.3090667,41.9018667 Z M45.9170667,43.7425333 L53.6210667,42.4978667 L54.6417333,48.8145333 L46.9370667,50.0598667 L45.9170667,43.7425333 Z M33.8184,45.6978667 L41.7410667,44.4178667 L42.7617333,50.7338667 L34.8390667,52.0145333 L33.8184,45.6978667 Z M21.7204,47.6525333 L29.6430667,46.3725333 L30.6637333,52.6885333 L22.7410667,53.9692 L21.7204,47.6525333 Z M9.6224,49.6072 L17.5444,48.3265333 L18.5650667,54.6445333 L10.6430667,55.9238667 L9.6224,49.6072 Z" id="Fill-1"></path>
                    <path d="M63.5928,80.7898667 L59.9054667,81.3858667 L0.000133333333,91.0652 L0.000133333333,93.6985333 L0.0468,93.6912 L1.06746667,100.0072 L0.000133333333,100.179867 L0.000133333333,101.068533 L10.7968,101.068533 L61.7548,92.8352 L65.4428,92.2392 L161.522133,76.7145333 L159.672133,65.2652 L63.5928,80.7898667 Z M148.693467,69.6725333 L156.6168,68.3918667 L157.637467,74.7085333 L149.714133,75.9885333 L148.693467,69.6725333 Z M136.596133,71.6265333 L144.518133,70.3465333 L145.5388,76.6638667 L137.6168,77.9432 L136.596133,71.6265333 Z M124.497467,73.5812 L132.420133,72.3018667 L133.441467,78.6178667 L125.5188,79.8985333 L124.497467,73.5812 Z M112.399467,75.5365333 L120.322133,74.2565333 L121.3428,80.5732 L113.420133,81.8532 L112.399467,75.5365333 Z M100.302133,77.4912 L108.224133,76.2112 L109.2448,82.5278667 L101.322133,83.8085333 L100.302133,77.4912 Z M88.2034667,79.4465333 L96.1261333,78.1658667 L97.1468,84.4825333 L89.2241333,85.7632 L88.2034667,79.4465333 Z M76.1054667,81.4012 L84.0281333,80.1205333 L85.0488,86.4378667 L77.1261333,87.7172 L76.1054667,81.4012 Z M64.0074667,83.3558667 L71.9294667,82.0758667 L72.9501333,88.3932 L65.0281333,89.6725333 L64.0074667,83.3558667 Z M52.6154667,85.1972 L60.3194667,83.9518667 L61.3401333,90.2685333 L53.6354667,91.5132 L52.6154667,85.1972 Z M40.5168,87.1512 L48.4394667,85.8712 L49.4594667,92.1885333 L41.5374667,93.4685333 L40.5168,87.1512 Z M28.4181333,89.1065333 L36.3414667,87.8265333 L37.3614667,94.1425333 L29.4394667,95.4232 L28.4181333,89.1065333 Z M16.3208,91.0612 L24.2428,89.7805333 L25.2634667,96.0978667 L17.3414667,97.3778667 L16.3208,91.0612 Z M4.22213333,93.0158667 L12.1448,91.7365333 L13.1654667,98.0532 L5.24346667,99.3325333 L4.22213333,93.0158667 Z" id="Fill-2"></path>
                    <polygon id="Fill-3" points="119.264333 74.4274 113.586333 39.2900667 119.878333 38.2740667 125.555667 73.4114"></polygon>
                    <polygon id="Fill-4" points="82.9316667 80.2978 77.2543333 45.1611333 83.5456667 44.1444667 89.2236667 79.2818"></polygon>
                    <polygon id="Fill-5" points="46.5992667 86.1689333 40.9219333 51.0316 47.2132667 50.0156 52.8912667 85.1522667"></polygon>
                    <polygon id="Fill-6" points="10.2669333 92.0394 4.5896 56.9020667 10.8809333 55.8860667 16.5589333 91.0234"></polygon>
                    <path d="M248.9988,8.24146667 L245.311467,8.8368 L149.232133,24.3614667 L151.081467,35.8108 L247.1608,20.2861333 L250.849467,19.6908 L300.000133,11.7481333 L300.000133,9.1148 L298.8268,9.30413333 L297.806133,2.98813333 L300.000133,2.63346667 L300.000133,0.0008 L248.9988,8.24146667 Z M285.707467,4.9428 L293.630133,3.66213333 L294.6508,9.97946667 L286.7288,11.2594667 L285.707467,4.9428 Z M273.610133,6.89746667 L281.532133,5.61746667 L282.5528,11.9341333 L274.630133,13.2141333 L273.610133,6.89746667 Z M261.512133,8.85213333 L269.434133,7.57213333 L270.4548,13.8894667 L262.532133,15.1688 L261.512133,8.85213333 Z M249.413467,10.8068 L257.335467,9.52746667 L258.3568,15.8441333 L250.434133,17.1241333 L249.413467,10.8068 Z M238.0208,12.6481333 L245.725467,11.4034667 L246.745467,17.7194667 L239.041467,18.9648 L238.0208,12.6481333 Z M225.923467,14.6034667 L233.845467,13.3228 L234.866133,19.6394667 L226.943467,20.9194667 L225.923467,14.6034667 Z M213.8248,16.5574667 L221.747467,15.2774667 L222.768133,21.5941333 L214.845467,22.8748 L213.8248,16.5574667 Z M201.7268,18.5128 L209.6488,17.2321333 L210.670133,23.5494667 L202.747467,24.8288 L201.7268,18.5128 Z M189.6288,20.4668 L197.5508,19.1874667 L198.571467,25.5041333 L190.6488,26.7841333 L189.6288,20.4668 Z M177.530133,22.4221333 L185.453467,21.1421333 L186.474133,27.4588 L178.551467,28.7394667 L177.530133,22.4221333 Z M165.432133,24.3774667 L173.3548,23.0968 L174.375467,29.4134667 L166.453467,30.6934667 L165.432133,24.3774667 Z M153.3348,26.3314667 L161.2568,25.0514667 L162.277467,31.3688 L154.3548,32.6488 L153.3348,26.3314667 Z" id="Fill-7"></path>
                    <path d="M255.6972,49.6948667 L252.0092,50.2908667 L155.929867,65.8155333 L157.779867,77.2648667 L253.8592,61.7402 L257.5472,61.1442 L299.999867,54.2842 L299.999867,51.6515333 L293.426533,52.7135333 L292.406533,46.3968667 L299.999867,45.1695333 L299.999867,42.5362 L255.6972,49.6948667 Z M280.307867,48.3515333 L288.230533,47.0708667 L289.2512,53.3882 L281.328533,54.6682 L280.307867,48.3515333 Z M268.209867,50.3062 L276.131867,49.0262 L277.1532,55.3428667 L269.229867,56.6228667 L268.209867,50.3062 Z M256.111867,52.2615333 L264.033867,50.9808667 L265.054533,57.2982 L257.132533,58.5775333 L256.111867,52.2615333 Z M244.719867,54.1022 L252.423867,52.8568667 L253.444533,59.1735333 L245.739867,60.4188667 L244.719867,54.1022 Z M232.6212,56.0568667 L240.543867,54.7762 L241.563867,61.0935333 L233.641867,62.3735333 L232.6212,56.0568667 Z M220.522533,58.0115333 L228.4452,56.7315333 L229.466533,63.0482 L221.5432,64.3282 L220.522533,58.0115333 Z M208.4252,59.9662 L216.3472,58.6862 L217.367867,65.0028667 L209.445867,66.2835333 L208.4252,59.9662 Z M196.326533,61.9215333 L204.249867,60.6408667 L205.269867,66.9582 L197.347867,68.2375333 L196.326533,61.9215333 Z M184.228533,63.8755333 L192.1512,62.5962 L193.171867,68.9128667 L185.2492,70.1935333 L184.228533,63.8755333 Z M172.1312,65.8315333 L180.0532,64.5508667 L181.0732,70.8675333 L173.151867,72.1482 L172.1312,65.8315333 Z M160.032533,67.7862 L167.9552,66.5055333 L168.975867,72.8222 L161.0532,74.1022 L160.032533,67.7862 Z" id="Fill-8"></path>
                    <polygon id="Fill-9" points="275.036467 49.2034 269.358467 14.0660667 275.650467 13.0500667 281.3278 48.1867333"></polygon>
                    <polygon id="Fill-10" points="238.7038 55.0738667 233.0258 19.9365333 239.3178 18.9205333 244.9958 54.0578667"></polygon>
                    <polygon id="Fill-11" points="202.371067 60.9443333 196.693733 25.8076667 202.985067 24.791 208.663067 59.9283333"></polygon>
                    <polygon id="Fill-12" points="166.039067 66.8154 160.361067 31.6780667 166.653067 30.6620667 172.3304 65.7987333"></polygon>
                </g>
            </g>
        </g>
        <g id="camera" opacity="0.8" transform="translate(105.000000, 42.000000)" fill-rule="nonzero">
            <path d="M73.4765625,48.4166602 L84.0176367,42.2128125 C85.8861914,41.113125 88.2421875,42.4603125 88.2421875,44.6283984 L88.2421875,78.4183008 C88.2421875,80.5863867 85.8860156,81.9335742 84.0176367,80.8338867 L73.4765625,74.6302148 L73.4765625,48.4166602 Z" id="XMLID_1700_" fill="#9BC6FF"></path>
            <polygon id="XMLID_1699_" fill="#98A1B3" transform="translate(69.960938, 61.523438) rotate(-180.000000) translate(-69.960938, -61.523438) " points="66.4453125 49.5703125 73.4765625 49.5703125 73.4765625 73.4765625 66.4453125 73.4765625"></polygon>
            <path d="M5.9765625,39.7265625 L62.2265625,39.7265625 C64.556543,39.7265625 66.4453125,41.615332 66.4453125,43.9453125 L66.4453125,79.1015625 C66.4453125,81.431543 64.556543,83.3203125 62.2265625,83.3203125 L5.9765625,83.3203125 C3.64658203,83.3203125 1.7578125,81.431543 1.7578125,79.1015625 L1.7578125,43.9453125 C1.7578125,41.615332 3.64658203,39.7265625 5.9765625,39.7265625 Z" id="XMLID_1698_" fill="#8690A6"></path>
            <circle id="XMLID_1697_" fill="#F5737F" cx="53.7890625" cy="52.3828125" r="4.21875"></circle>
            <g id="XMLID_759_" transform="translate(1.757812, 1.757812)">
                <circle id="XMLID_1696_" fill="#98A1B3" cx="14.0625" cy="23.90625" r="14.0625"></circle>
                <g id="XMLID_1203_" transform="translate(27.597656, 0.000000)">
                    <circle id="XMLID_1188_" fill="#8690A6" cx="19.1501367" cy="18.984375" r="18.984375"></circle>
                    <circle id="XMLID_1695_" fill="#D3D7DF" cx="19.1501367" cy="18.984375" r="11.953125"></circle>
                </g>
                <circle id="XMLID_757_" fill="#D3D7DF" cx="14.0625" cy="23.90625" r="6.328125"></circle>
            </g>
            <polygon id="XMLID_1308_" fill="#E1E3E9" points="11.25 58.0078125 41.8359375 58.0078125 41.8359375 74.8828125 11.25 74.8828125"></polygon>
            <polygon id="XMLID_1341_" fill="#FFFB7C" points="49.5703125 65.0390625 58.0078125 65.0390625 58.0078125 73.4765625 49.5703125 73.4765625"></polygon>
            <g id="XMLID_190_" fill="#000000">
                <path d="M87.7032422,40.6692773 C86.2646484,39.8467969 84.5539453,39.8575195 83.1260742,40.6979297 L72.585,46.9016016 C72.2292188,47.1111328 71.9671289,47.4361523 71.8291406,47.8123242 L68.203125,47.8123242 L68.203125,43.9451367 C68.203125,40.6495898 65.5221094,37.9685742 62.2265625,37.9685742 L60.0465234,37.9685742 C65.591543,34.2414844 69.2476172,27.9108984 69.2476172,20.7420117 C69.2476172,9.30480469 59.9426367,-0.00017578125 48.5054297,-0.00017578125 C38.7084375,-0.00017578125 30.4767773,6.82751953 28.3171289,15.9744727 C25.4202539,12.2468555 20.8959961,9.84375 15.8203125,9.84375 C7.09699219,9.84375 1.2490009e-14,16.9407422 1.2490009e-14,25.6640625 C1.2490009e-14,30.6302344 2.30080078,35.0683594 5.89166016,37.9708594 C2.63513672,38.0167383 1.2490009e-14,40.678418 1.2490009e-14,43.9453125 L1.2490009e-14,79.1015625 C1.2490009e-14,82.3971094 2.68101563,85.078125 5.9765625,85.078125 L26.1914063,85.078125 C27.1620703,85.078125 27.9492188,84.2911523 27.9492188,83.3203125 C27.9492188,82.3494727 27.1620703,81.5625 26.1914063,81.5625 L5.9765625,81.5625 C4.61953125,81.5625 3.515625,80.4585938 3.515625,79.1015625 L3.515625,43.9453125 C3.515625,42.5882812 4.61953125,41.484375 5.9765625,41.484375 L62.2265625,41.484375 C63.5835938,41.484375 64.6875,42.5882812 64.6875,43.9453125 L64.6875,79.1015625 C64.6875,80.4585938 63.5835938,81.5625 62.2265625,81.5625 L42.0117188,81.5625 C41.0410547,81.5625 40.2539063,82.3494727 40.2539063,83.3203125 C40.2539063,84.2911523 41.0410547,85.078125 42.0117188,85.078125 L62.2265625,85.078125 C65.5221094,85.078125 68.203125,82.3971094 68.203125,79.1015625 L68.203125,75.234375 L71.8291406,75.234375 C71.9671289,75.6105469 72.229043,75.9357422 72.585,76.1450977 L83.1260742,82.3487695 C83.8483594,82.7738086 84.643418,82.9866797 85.4386523,82.9866797 C86.2154297,82.9866797 86.9925586,82.7838281 87.7032422,82.3774219 C89.1414844,81.5549414 90,80.0748633 90,78.4183008 L90,44.6285742 C90,42.9718359 89.1413086,41.4917578 87.7032422,40.6692773 Z M48.5054297,3.515625 C58.0041211,3.515625 65.7319922,11.2433203 65.7319922,20.7421875 C65.7319922,30.2410547 58.0041211,37.96875 48.5054297,37.96875 C39.0067383,37.96875 31.2788672,30.2410547 31.2788672,20.7421875 C31.2788672,11.2433203 39.0067383,3.515625 48.5054297,3.515625 Z M3.515625,25.6640625 C3.515625,18.8792578 9.03550781,13.359375 15.8203125,13.359375 C22.6051172,13.359375 28.125,18.8792578 28.125,25.6640625 C28.125,32.4488672 22.6051172,37.96875 15.8203125,37.96875 C9.03550781,37.96875 3.515625,32.4488672 3.515625,25.6640625 Z M25.7517773,37.96875 C27.9221484,36.2135742 29.6203711,33.8973047 30.624082,31.2423047 C32.2085742,33.9305273 34.3810547,36.2323828 36.9643359,37.96875 L25.7517773,37.96875 Z M68.203125,51.328125 L71.71875,51.328125 L71.71875,71.71875 L68.203125,71.71875 L68.203125,51.328125 Z M86.484375,78.4183008 C86.484375,78.9655078 86.1162891,79.2349805 85.9580859,79.3255078 C85.799707,79.4160352 85.3808203,79.5965625 84.9091992,79.3190039 L75.234375,73.6250977 L75.234375,73.4765625 L75.234375,49.5703125 L75.234375,49.4217773 L84.9091992,43.7278711 C85.3806445,43.4506641 85.7998828,43.6308398 85.9580859,43.7213672 C86.1162891,43.8118945 86.484375,44.0813672 86.484375,44.6285742 L86.484375,78.4183008 Z" id="XMLID_217_"></path>
                <path d="M53.7890625,58.359375 C57.0846094,58.359375 59.765625,55.6783594 59.765625,52.3828125 C59.765625,49.0872656 57.0846094,46.40625 53.7890625,46.40625 C50.4935156,46.40625 47.8125,49.0872656 47.8125,52.3828125 C47.8125,55.6783594 50.4935156,58.359375 53.7890625,58.359375 Z M53.7890625,49.921875 C55.1460938,49.921875 56.25,51.0257812 56.25,52.3828125 C56.25,53.7398437 55.1460938,54.84375 53.7890625,54.84375 C52.4320312,54.84375 51.328125,53.7398437 51.328125,52.3828125 C51.328125,51.0257812 52.4320312,49.921875 53.7890625,49.921875 Z" id="XMLID_1198_"></path>
                <path d="M34.1015625,81.5625 C33.6392578,81.5625 33.1857422,81.7505859 32.8587891,82.0775391 C32.5318359,82.4044922 32.34375,82.8580078 32.34375,83.3203125 C32.34375,83.7826172 32.5316602,84.2361328 32.8587891,84.5630859 C33.185918,84.8900391 33.6392578,85.078125 34.1015625,85.078125 C34.5638672,85.078125 35.0173828,84.8900391 35.3441602,84.5630859 C35.6711133,84.2361328 35.859375,83.784375 35.859375,83.3203125 C35.859375,82.8580078 35.6712891,82.4044922 35.3441602,82.0775391 C35.0173828,81.7505859 34.5638672,81.5625 34.1015625,81.5625 Z" id="XMLID_1201_"></path>
                <path d="M48.5054297,34.453125 C56.0657813,34.453125 62.2163672,28.3023633 62.2163672,20.7421875 C62.2163672,13.1820117 56.0657813,7.03125 48.5054297,7.03125 C40.9450781,7.03125 34.7944922,13.1820117 34.7944922,20.7421875 C34.7944922,28.3023633 40.9452539,34.453125 48.5054297,34.453125 Z M48.5054297,10.546875 C54.1270898,10.546875 58.7007422,15.1205273 58.7007422,20.7421875 C58.7007422,26.3638477 54.1270898,30.9375 48.5054297,30.9375 C42.8837695,30.9375 38.3101172,26.3638477 38.3101172,20.7421875 C38.3101172,15.1205273 42.8837695,10.546875 48.5054297,10.546875 Z" id="XMLID_1508_"></path>
                <path d="M48.5049023,17.6958984 C48.967207,17.6958984 49.4207227,17.5078125 49.7476758,17.1808594 C50.0746289,16.8539062 50.2627148,16.4003906 50.2627148,15.9380859 C50.2627148,15.4740234 50.0748047,15.0222656 49.7476758,14.6953125 C49.4207227,14.3666016 48.9689648,14.1802734 48.5049023,14.1802734 C48.0425977,14.1802734 47.589082,14.3666016 47.2623047,14.6953125 C46.9353516,15.0205078 46.7470898,15.4740234 46.7470898,15.9380859 C46.7470898,16.4003906 46.9351758,16.8539062 47.2623047,17.1808594 C47.589082,17.5078125 48.0427734,17.6958984 48.5049023,17.6958984 L48.5049023,17.6958984 Z" id="XMLID_1509_"></path>
                <path d="M48.5049023,27.3041016 C48.967207,27.3041016 49.4207227,27.1177734 49.7476758,26.7890625 C50.0746289,26.4621094 50.2627148,26.0085937 50.2627148,25.5462891 C50.2627148,25.0839844 50.0748047,24.6304687 49.7476758,24.3035156 C49.4205469,23.9765625 48.9689648,23.7884766 48.5049023,23.7884766 C48.0425977,23.7884766 47.589082,23.9765625 47.2623047,24.3035156 C46.9353516,24.6304688 46.7470898,25.0839844 46.7470898,25.5462891 C46.7470898,26.0103516 46.9351758,26.4621094 47.2623047,26.7890625 C47.589082,27.1177734 48.0427734,27.3041016 48.5049023,27.3041016 Z" id="XMLID_1511_"></path>
                <path d="M53.3107617,22.5 C53.7732422,22.5 54.2248242,22.3119141 54.5535352,21.9849609 C54.8804883,21.6580078 55.0685742,21.2044922 55.0685742,20.7421875 C55.0685742,20.2798828 54.8806641,19.8263672 54.5535352,19.4994141 C54.2267578,19.1724609 53.7732422,18.984375 53.3107617,18.984375 C52.8466992,18.984375 52.3949414,19.1724609 52.0681641,19.4994141 C51.7394531,19.8263672 51.5529492,20.2798828 51.5529492,20.7421875 C51.5529492,21.2044922 51.7394531,21.6580078 52.0681641,21.9849609 C52.3949414,22.3119141 52.846875,22.5 53.3107617,22.5 Z" id="XMLID_1513_"></path>
                <path d="M43.7008008,22.5 C44.1632813,22.5 44.6166211,22.3119141 44.9435742,21.9849609 C45.2705273,21.6580078 45.4586133,21.2044922 45.4586133,20.7421875 C45.4586133,20.2798828 45.2707031,19.8263672 44.9435742,19.4994141 C44.6166211,19.1724609 44.1632812,18.984375 43.7008008,18.984375 C43.2384961,18.984375 42.7849805,19.1724609 42.4582031,19.4994141 C42.13125,19.8263672 41.9429883,20.2798828 41.9429883,20.7421875 C41.9429883,21.2044922 42.1310742,21.6580078 42.4582031,21.9849609 C42.7849805,22.3119141 43.2384961,22.5 43.7008008,22.5 L43.7008008,22.5 Z" id="XMLID_1514_"></path>
                <path d="M15.8203125,33.75 C20.2788281,33.75 23.90625,30.1225781 23.90625,25.6640625 C23.90625,21.2055469 20.2788281,17.578125 15.8203125,17.578125 C11.3617969,17.578125 7.734375,21.2055469 7.734375,25.6640625 C7.734375,30.1225781 11.3617969,33.75 15.8203125,33.75 Z M15.8203125,21.09375 C18.3404883,21.09375 20.390625,23.1440625 20.390625,25.6640625 C20.390625,28.1840625 18.3404883,30.234375 15.8203125,30.234375 C13.3001367,30.234375 11.25,28.1840625 11.25,25.6640625 C11.25,23.1440625 13.3001367,21.09375 15.8203125,21.09375 Z" id="XMLID_1517_"></path>
                <path d="M43.59375,74.8828125 L43.59375,58.0078125 C43.59375,57.0369727 42.8066016,56.25 41.8359375,56.25 L11.25,56.25 C10.2793359,56.25 9.4921875,57.0369727 9.4921875,58.0078125 L9.4921875,74.8828125 C9.4921875,75.8536523 10.2793359,76.640625 11.25,76.640625 L41.8359375,76.640625 C42.8066016,76.640625 43.59375,75.8536523 43.59375,74.8828125 Z M40.078125,73.125 L13.0078125,73.125 L13.0078125,59.765625 L40.078125,59.765625 L40.078125,73.125 Z" id="XMLID_1993_"></path>
                <path d="M47.8125,73.4765625 C47.8125,74.4474023 48.5996484,75.234375 49.5703125,75.234375 L58.0078125,75.234375 C58.9784766,75.234375 59.765625,74.4474023 59.765625,73.4765625 L59.765625,65.0390625 C59.765625,64.0682227 58.9784766,63.28125 58.0078125,63.28125 L49.5703125,63.28125 C48.5996484,63.28125 47.8125,64.0682227 47.8125,65.0390625 L47.8125,73.4765625 Z M51.328125,66.796875 L56.25,66.796875 L56.25,71.71875 L51.328125,71.71875 L51.328125,66.796875 Z" id="XMLID_1996_"></path>
            </g>
        </g>
    </g>
</svg>