<svg xmlns="http://www.w3.org/2000/svg" viewBox="0 0 26 21"><path fill-rule="evenodd" d="M26 2.493a11.184 11.184 0 01-2.672 2.739 15.03 15.03 0 01-.61 4.947 15.383 15.383 0 01-1.905 4.075 16.072 16.072 0 01-3.043 3.454c-1.178 1-2.594 1.799-4.255 2.395-1.664.599-3.441.897-5.333.897-2.98 0-5.71-.794-8.182-2.38.385.045.814.066 1.287.066 2.475 0 4.68-.754 6.616-2.263a5.212 5.212 0 01-3.101-1.058 5.195 5.195 0 01-1.881-2.617 6.74 6.74 0 001.006.082c.472 0 .939-.061 1.403-.18a5.234 5.234 0 01-3.059-1.828c-.812-.971-1.215-2.095-1.215-3.374v-.066a5.285 5.285 0 002.409.672 5.3 5.3 0 01-1.733-1.886 5.124 5.124 0 01-.644-2.525c0-.963.241-1.854.727-2.675a15.092 15.092 0 004.857 3.913 14.931 14.931 0 006.129 1.633 5.896 5.896 0 01-.133-1.214c0-1.467.52-2.715 1.56-3.749C15.268.517 16.523 0 17.998 0c1.54 0 2.84.557 3.895 1.673a10.5 10.5 0 003.383-1.28c-.406 1.259-1.189 2.232-2.343 2.92A10.624 10.624 0 0026 2.494z"/></svg>