<svg xmlns="http://www.w3.org/2000/svg" width="120" height="47" viewBox="0 0 120 47">
    <g fill="none" fill-rule="nonzero">
        <path fill="#000" d="M82.488 4.437l-.027-.257-.414.035.026.257.415-.035zm2.786 6.732l.01.142.29-.027c-.009-.088.027-.23.088-.407l-.026-.257c-.124.009-.247.195-.362.55zm-10.872 8.477c-.018-.239-.759-1.169-2.222-2.808-.027-.3.476-.753 1.507-1.346l2.946-2.578c.661-.841 1.049-2.206 1.164-4.101l-.036-.434c-.114-1.311-1.058-2.365-2.848-3.171C73.855 4.49 71.95 4.09 69.2 4.02c-2.275.194-5.247 1.01-8.906 2.453a36.54 36.54 0 0 1-3.44 2.18l.018.22a.816.816 0 0 0 .344-.15c.15-.017.238.053.247.195l.22-.115.106-.009.01.098c.008.115-.786.744-2.39 1.869l.123.23-.106.009-.264-.098c.008.08-.106.133-.327.15l.01.098.255.32c-.08.008-.203-.027-.37-.09-.37.036-.732.231-1.094.603l.15-.655c.538-2.33.908-4.394 1.102-6.183l-.026-.116a4.483 4.483 0 0 1-1.067-1 3.562 3.562 0 0 0 0-.47l-.027-.097-.105.026c-1.164 1.754-3.404 4.748-6.729 8.982-2.53 3.012-3.835 4.686-3.915 5.023-1.032 1.072-1.525 1.718-1.472 1.94-.274.177-.388.354-.344.549-.08.018-.133-.009-.15-.089-.441.718-1.094 1.178-1.967 1.382l-.917.213c-.123.026-.185.115-.176.265l.026.116.344-.08.027.097-.776.302-1.376.318-.723.045c-.106.106.573-.01.309.053l-.9.212c-.547.124-.846.08-.9-.141l-.105.026a.522.522 0 0 1 .009.23l-.053-.22-.723.167c-.053-.336-1.032-1.559-2.928-3.667-.035-.407.635-1 2.002-1.771l3.862-3.41c.864-1.117 1.376-2.906 1.543-5.369l-.053-.576c-.15-1.736-1.402-3.135-3.756-4.216-1.393-.948-3.898-1.453-7.513-1.532-2.998.256-6.913 1.328-11.728 3.197-1.323.966-2.83 1.923-4.524 2.87l.027.302c.114-.01.264-.071.45-.178.193-.017.3.071.317.248l.3-.168.15-.009.008.142c.01.142-1.04.965-3.165 2.471l.167.266-.15.009-.326-.115c.009.088-.141.15-.45.177l.018.16.353.39c-.115.008-.274-.027-.477-.098-.687.062-1.358.558-2.019 1.497l.168.265c.573-.531.908-.797 1.005-.806l.035.434c-.097.01-.247.071-.45.178l.362.549c.697-.753 1.464-1.4 2.302-1.94.414.106.634.24.643.38l.318-.026c2.275-1.692 4.523-2.914 6.754-3.667l.027.301c-.415.62-.697.94-.847.957a.975.975 0 0 0 .22.558c.036.38-.978 2.95-3.033 7.698C8.1 29.417 4.183 37.584 1 42.863c.009.107.07.248.185.425.785-.186 1.279-.38 1.49-.566l.168-.018.026.301.291-.027.3-.168c.01.089.106.133.309.115l.026.301c.027.293-.14.736-.493 1.347-.318.363-.662 1.125-1.023 2.285l.008.142.291-.027c1.27-1.426 2.231-2.825 2.893-4.19 3.703-1.089 6.525-2.16 8.483-3.215 1.966-.168 3.465-.69 4.488-1.55l-.017-.16-.741.222-.168.018-.017-.16c1.446-.221 2.442-.54 2.998-.983 2.813-2.18 4.938-3.72 6.375-4.633 2.954-2.179 4.877-4.305 5.75-6.369.158-.035.317-.07.493-.115.415-.018.644-.027.706-.044-.018-.08.018-.124.097-.142.661-.07.344.044.767-.053l1.111-.257c-.07.018-.097.053-.08.124l.168-.106c-.035 0-.061-.01-.088-.018l.185-.044-.088.053c.124.018.256.009.406-.027l.08.328-5.054 8.07-1.12 1.408-.546 1.843.106-.027.546-.23-.176.717.053.213.15.186c-.07.018-.097.062-.08.142l.027.115.23-.053c.334-.293.475-.558.422-.798.362.062.6.089.723.054l.027.115c-.22.053-.335.23-.353.531l.027.115.123-.026c1.834-2.011 6.331-8.894 9.938-13.562-.115-.505 1.764-1.205 5.644-2.108l.123-.027c.141.611-.159 2.09-.9 4.438-.476 1.417-.705 2.197-.67 2.321-.617 1.887-.908 2.905-.873 3.065l-1.375 4.526a41.471 41.471 0 0 0-2.046 7.326c.08-.018.203-.009.38.035l.193-.168c.018.08.07.106.15.089l-.08-.328.6-.018c.177-.044.327-.266.45-.673-.026-.611.097-.939.37-1.01.37-1.453.6-2.179.68-2.205.343-1.444.6-2.268.767-2.472.52-1.878.9-2.843 1.146-2.905l.053.23-.38.983c-.66 2.95-1.33 5.28-2.01 6.99l.194.85.124-.027c1.64-3.543 4.003-10.559 7.08-21.047.089-.921.53-1.638 1.315-2.143L52.18 20l-.026-.098c.352-.08.6-.221.74-.416-.017-.08-.326-.195-.925-.355l1.534-6.608c.335-.3.529-.46.59-.46l.027.336a.816.816 0 0 0-.344.15l.291.417a9.451 9.451 0 0 1 1.729-1.488c.317.089.476.195.493.301l.23-.017c1.746-1.285 3.456-2.206 5.14-2.764l.018.221c-.308.47-.52.709-.635.718.018.16.062.301.141.425.027.292-.731 2.241-2.283 5.855-3.545 8.371-6.517 14.563-8.933 18.584.009.08.062.186.159.328.59-.142.97-.292 1.12-.434l.105-.009.018.222.247-.018.22-.115c.01.062.088.088.238.08l.018.239c.018.212-.106.549-.38 1.01-.255.274-.52.85-.802 1.727l.01.115.228-.018c.962-1.08 1.693-2.143 2.196-3.189 2.813-.832 4.956-1.638 6.437-2.436 1.508-.132 2.646-.522 3.422-1.178l-.01-.115-.572.168-.124.01-.009-.116c1.094-.16 1.861-.407 2.276-.735 2.134-1.648 3.747-2.826 4.84-3.517 3.404-2.489 4.992-4.88 4.798-7.175zm-.582.15l.08.896c-.107.221-.221.336-.327.345l-.132-1.524c.246.089.37.178.379.284zm-66.77-7.21l-.15.01-.027-.275.608-.054.01.142c-.098.01-.248.062-.442.177zm-2.972 29.86c-.353-.158-.67-.22-.944-.194l-.035-.434c-.018-.168.08-.283.29-.328.195-.017.31.124.327.408.511-.63.794-.948.847-.957l.326.133c-.106.886-.38 1.338-.811 1.373zM35.83 9.08c-.15.017-.45-.452-.881-1.382l-.027-.275c.282-.026.573.434.882 1.382l.026.275zm-.423-3.304l-.123.292-4.312-1.807c2.874.097 4.356.602 4.435 1.515zM17.198 21.48l-.608.053-.026-.275.608-.053.027.275zm-.493-9.434l.15-.009.035.434c-.14.01-.326.222-.555.63l-.027-.302c.274-.328.415-.576.397-.753zm-1.279 3.03l.053.575-.15.01-.053-.577.15-.009zm-.67 1.08l.291-.026c-.026.478-.159.735-.397.753l-.15.008c.186-.318.274-.567.256-.735zm-.502 1.506l.167-.018.009.142-.273.46-.291.027-.01-.141c.292-.027.424-.178.398-.47zm-.494 1.355l-.088.727-.15.009-.062-.718.3-.018zM8.813 33.146c-.194.992-.406 1.497-.626 1.515l-.01-.142c-.052-.487.16-.948.636-1.373zm-.908 1.975l.008.142c.018.195-.07.31-.264.319l-.009-.142c-.018-.168.07-.274.265-.319zm-.265 4.102l.459-.045.017.16c-.114.009-.264.07-.45.177l-.29.026c-.018-.15.079-.265.264-.318zm13.05-4.049c-2.574 1.276-4.09 2.144-4.54 2.596-2.787.974-4.171 1.577-4.145 1.816-2.478.983-4.11 1.71-4.894 2.161-.185.018-.45-.053-.803-.212-.044-.505.186-.913.67-1.24.433-.036.847.026 1.244.194.459-.239 1.261-.505 2.399-.788l-.027-.301-.917.08c.115-.16.996-.576 2.654-1.25l.459-.044.009.142c-.785.07-1.217.301-1.314.717.017.186.123.266.317.248.591-.372.882-.593.873-.655 1.12-.213 4.215-1.843 9.286-4.88l.026.274c.009.133-.423.505-1.296 1.142zm-7.777 2.57a2.997 2.997 0 0 0 1.905-.886c.212-.018.326.062.335.248-.362.035-1.058.336-2.072.92l-.15.01-.018-.293zm12.548-9.683l-3.888 3.092c-2.893 1.904-4.445 2.861-4.665 2.879-4.603 2.542-7.47 3.862-8.58 3.96l-.168.017c.141-.523 2.187-4.73 6.155-12.65 1.746-.15 4.498-.965 8.245-2.453l.917-.08c1.896-.168 3.316.204 4.25 1.09l.054.576c-.706 2.037-1.482 3.224-2.32 3.57zm-7.6-4.296l.625-.053.01.142-.627.053-.009-.142zm8.79-1.497l.46-.044c.423.204.643.38.66.54l.01.142c-.406.035-.785-.177-1.13-.638zm1.244-7.113c-.405.487-1.517 1.32-3.333 2.49-.6.052-2.83.92-6.693 2.621a1.217 1.217 0 0 0-.617-.106l-.027-.275c-.044-.558.203-1.257.75-2.108.3-1.594.626-2.507.987-2.728l3.219-7.273c-.035-.451.653-.797 2.063-1.036l.459-.044.035.416c1.385-.213 2.249-.337 2.584-.363 2.557-.222 3.889.301 3.995 1.55l.29-.027-.061-.735.317-.026c.75.416 1.155.92 1.208 1.514.036.408-.185.913-.652 1.515-.194.018-.309-.124-.326-.407l-.318.026-.07.886c-1.297 1.949-2.24 2.95-2.822 3.003-.53.735-.856 1.098-.988 1.107zm1.975 5.094c-.264-.178-.476-.257-.635-.248l-.035-.434.291-.027.644.38c.026.205-.062.31-.265.329zm2.046 2.436c.282.115.45.239.485.354l-.14.035.008.01a.312.312 0 0 0-.088.017l-.212.168-.053-.584zm.194 1.222l-.026-.115.37-.089.027.115-.37.089zm.89 1.001c.38-.062.565-.089 1.27-.248l.027.115-1.34.31c.017-.062.035-.124.044-.177zm1.306.558c-.564.053-.441-.018-1.34.186l-.027-.115 1.12-.363.538-.124.053.212c-.238.053-.062.053-.344.204zm1.19-.283c-.132.035-.238-.027-.3-.178l.344-.08c.15-.035.247.027.283.178l-.327.08zm3.228-3.49l-.027-.116.556-.133.053.213-.582.035zm3.448 21.241c.035-.16.044-.274.026-.354l.124-.027c.15-.035.238.018.273.16l.026.115-.45.106zm2.416-20.33l-.247-.043c-.397.159-.732.274-1.005.336l-.23.053c-.132.036-.238-.017-.29-.16l1.613-.371.53-.248.175.204c-.255.053-.44.132-.546.23zm1.243-.398l-.026-.115a.674.674 0 0 0 .3-.195l1.146-.266.026.116c-.608.15-1.093.3-1.446.46zm.176-2.33c-.079.018-.185.09-.317.195-.018-.08-.176-.08-.476-.008-.053-.222.793-.532 2.548-.94l.247-.053.053.213c-1.234.363-1.922.567-2.055.594zm3.087-3.348c-.124 1.409-.617 2.206-1.49 2.41l-.027-.116-.776.302-.344.08a.862.862 0 0 1-.476-.01l-.07-.31c-.027-.115 1.093-1.674 3.368-4.668l.265.045c.097.407-.053 1.16-.45 2.267zm5.458-4.695l-.106.01-.017-.222.458-.044.01.115c-.08.017-.195.062-.345.141zM52.304 34.52c-.265-.124-.503-.177-.706-.16l-.026-.336c-.01-.115.061-.195.211-.24.15-.017.238.09.256.32.38-.488.59-.736.635-.736l.238.098c-.088.673-.291 1.027-.608 1.054zM76.412 9.185c-.114.009-.335-.346-.679-1.063l-.017-.222c.22-.017.45.328.679 1.037l.017.248zm-.317-2.534l-.106.23-3.263-1.372c2.178.07 3.307.452 3.369 1.142zM62.259 18.583l-.458.045-.018-.222.459-.035.017.212zm-.379-7.166l.123-.009.027.337c-.115.009-.256.168-.423.478l-.018-.221c.203-.257.3-.452.291-.585zm-.961 2.303l.035.434-.123.01-.036-.435.124-.009zm-.52.824l.229-.018c-.027.372-.124.567-.291.585l-.124.009c.133-.248.194-.443.186-.576zm-.37 1.134l.105-.009.009.115-.203.354-.23.018-.008-.115c.238-.018.344-.142.326-.363zm-.371 1.027l-.08.567-.105.01-.044-.559.229-.018zM55.893 27.45c-.15.744-.31 1.125-.477 1.143l-.008-.098c-.027-.372.132-.726.485-1.045zm-.697 1.497l.009.098c.017.16-.053.248-.212.257l-.009-.116c-.009-.115.062-.194.212-.239zm-.194 3.118l.353-.026.008.115c-.079.009-.202.053-.343.133l-.23.017c-.009-.124.062-.203.212-.239zm9.903-3.073c-1.94.965-3.096 1.62-3.457 1.957-2.116.744-3.166 1.205-3.148 1.39-1.878.754-3.113 1.294-3.695 1.64-.141.008-.344-.045-.608-.169-.036-.38.14-.69.511-.92a1.98 1.98 0 0 1 .944.14c.352-.176.96-.371 1.825-.593l-.018-.221-.723.053c.088-.124.767-.443 2.028-.957l.353-.026.009.097c-.6.053-.935.23-1.005.55.009.141.097.212.247.194.44-.292.652-.46.652-.513.847-.151 3.192-1.391 7.046-3.712l.017.221c.01.098-.317.381-.978.869zm-5.908 1.948a2.363 2.363 0 0 0 1.463-.664c.15-.018.238.053.247.195-.264.026-.785.248-1.57.673l-.123.009-.017-.213zm9.54-7.36l-2.936 2.373c-2.195 1.444-3.386 2.17-3.571 2.188-3.492 1.931-5.661 2.932-6.517 3.003l-.123.009c.106-.399 1.667-3.596 4.682-9.602 1.314-.115 3.395-.744 6.252-1.878l.715-.062c1.437-.124 2.513.16 3.218.841l.035.434c-.537 1.524-1.12 2.419-1.754 2.693zm-5.766-3.26l.458-.045.009.115-.459.045-.008-.116zm6.675-1.143l.353-.027c.326.16.493.301.502.417l.01.097c-.31.027-.6-.133-.865-.487zm.926-5.395c-.309.372-1.147 1.01-2.513 1.896-.459.044-2.152.7-5.08 1.975-.14-.053-.3-.07-.467-.062l-.018-.221c-.035-.425.15-.957.556-1.604.23-1.222.485-1.904.75-2.064l2.46-5.527c-.027-.328.494-.593 1.552-.797l.353-.027.026.337c1.04-.168 1.693-.266 1.958-.292 1.94-.169 2.954.221 3.033 1.178l.23-.018-.045-.532.23-.017c.564.31.864.682.899 1.125.026.319-.132.708-.467 1.16-.15.018-.239-.088-.256-.319l-.23.018-.07.664c-.979 1.497-1.693 2.268-2.143 2.303-.397.54-.644.815-.758.824zm1.032 3.685l-.027-.336.23-.018.493.301c.009.142-.062.221-.211.24-.212-.134-.37-.196-.485-.187zM30.355 38.983l-.229.054-.194.168c.035.142.124.195.273.16.15-.036.212-.125.177-.266l-.027-.116zm-.873-1.745l.027.116c.15-.036.211-.124.176-.266l-.026-.115c-.141.035-.203.124-.177.265zm6.208-14.837l.265-.062-.053-.23-.265.062.053.23zm80.016 6.75c-2.681.602-3.016.496-3.58.54l.017.222.247-.018.132-.009-.035-.026.291-.116c2.654-.292 2.963-.186 2.936-.487l-.008-.106zm-14.433 1.922l.02.222h.04l-.02-.222h-.04zm-1.66-5.837l-.238-.08c-.194.523-.291.833-.283.921l.01.098c.184-.01.352-.328.51-.94zm16.64 3.87l.017.222.388.071-.018-.221-.388-.071zm-18.245 2.242l-.6-.071-.106.23.01.115 3.57-.3-.017-.222-2.857.248zm-1.623-7.857l-.009-.115-.123.008-.22.142.123.213c.167-.018.247-.098.23-.248zm21.56 3.986l.168-.018c.097-.009.141-.089.132-.23l-.097-.213c-.608.053-.89.08-1.384.354l-.01-.115-.731.071c-.018-.221-.08-.336-.176-.328l-.38.036c-.44.035-.652.018-.872.186-.01-.08-.036-.115-.08-.115l-.423.035-.247.142c-.009-.08-.035-.115-.08-.115l-.15.133-.008-.116-.59-.044-.142.009.018.221.3.08.282-.017a.51.51 0 0 0 .326.07l.247-.124.009.098c-1.385.345-1.376.283-2.328.443-.106-.071-.186-.107-.238-.098l-.018.018c-.106-.009-.168-.08-.176-.195l.493-.062c.036 0 .062.036.335.089.397-.195.415-.275.627-.293l-.018-.221c-1.358.266-.811.088-2.513.24l-.08.008-.017-.222c2.187-.265 1.455-.115 2.204-.327.01.08.036.115.08.115a.513.513 0 0 1 .3-.15l.15-.01c.767-.062 1.022.089 2.539-.336l.009.097.247-.124.229-.017c-.018-.222.317-.257.432-.266l-.018-.24c-2.663.541-3.36.39-4.1.603l-.009-.097c-.696.124-.723.07-.9.08a.466.466 0 0 0-.22.141c-.009-.08-.035-.115-.088-.115-.026 0-.035.009-.044.009l-2.257.372c-.01-.062-.036-.098-.089-.089-1.172.248-.855.292-2.425.434a.735.735 0 0 0-.29.124c-.01-.062-.045-.097-.124-.088l-.961.08-.644.159c-.009-.062-.044-.098-.123-.089-.362.098-.68.16-.935.177h-.018c-.158.018.08-.044-.044-.097l-.194.115c-.282.027-.132-.018-1.102-.009-1.702.213-1.517.24-1.702.248l-.635-.044c.009.062-.026.106-.097.106-.723-.097-1.093-.212-1.102-.345.097-.691.264-1.045.503-1.063l.123-.009-.106.23.124-.009c.229-.124.335-.239.326-.345l-.018-.24-.229.019-.018-.222a.8.8 0 0 1 .07-.443l.521-.841.018.221.247-.018-.018-.221-.141-.204c.185-.16.326-.248.44-.257l-.008-.115-.335.027-.026-.337c.67-1.4.987-2.214.97-2.445l.238.098c.15-.01.22-.098.211-.257l-.23.018-.008-.098a.848.848 0 0 1 .088-.47c.362-.38.53-.761.494-1.16.07-.009.106.027.115.107.308-.178.546-.647.723-1.427.547-.992 1.323-2.976 2.337-5.943 1.94-5.244 1.86-5.802 2.134-7.043l-.23.018a.802.802 0 0 1-.088.452c-.159-.062-.282-.098-.37-.089l-.009-.097c-.035-.452.15-.992.573-1.63l.106-.009.194.762.23-.018c-.01-.053.052-.354.176-.912-.01-.115-.097-.186-.274-.195l-.22.142c-.018-.16-.009-.576.017-1.24l-.114.008c-.194-.194-.291-.354-.3-.487l-1.261.124a1.174 1.174 0 0 0-.141-.39c-.009-.115.273-.23.855-.345l.256.097.238-.141c.009.08.053.115.141.106l.238-.142c.01.08.053.115.141.107l.115-.01-.018-.256c-.176.018-.643.018-1.384-.009l-.238.16-.009-.142c-5.917.487-9.277.762-10.08.841-.105.01-.52 0-1.251-.017.009.097-.08.15-.256.168l-.256-.115-.864.221c-.203.018-.547.009-1.023-.044a.877.877 0 0 1-.485.186c-.106.009 1.261-.071 2.531-.16-.132.107-.335.169-.617.195a.843.843 0 0 1-.503-.088c-.194.088-.82.23-1.87.443l-.255-.098-4.127.638a1.026 1.026 0 0 0-.555-.089c-.22.018-.591.098-1.103.24l-1.993.832.15.248c.097-.009.238-.062.406-.16l.705.063-.088.664c-.652.292-1.031.726-1.137 1.276-.98.434-1.464.744-1.464.93l.009.115.15-.009.264-.142.309.372.044.514c.018.16-1.631 3.64-4.93 10.444-2.856 6.555-4.356 10.142-4.497 10.789-.978.275-1.543.673-1.71 1.205.017.168.308.283.873.327l.026.257-.256.426.044.513c.027.266.741.47 2.143.611-.009-.088.036-.141.133-.15.026.319-.062.939-.265 1.86l.15-.009c.582-.797.855-1.346.829-1.647l.123-.01c.141-.008.291.151.468.497-.177.07-.794 1.48-1.852 4.234l.15.248.15-.009c1.296-3.295 2.107-5.12 2.442-5.465 1.702-.15 4.647-.452 8.827-.904l.265-.16c.008.09.061.134.158.125l.274-.027.264-.16c.01.09.062.134.159.125l3.166-.275c.837-.07 1.234-.328 1.199-.762-.009-.115.485-.248 1.481-.39.097-.008.239.018.432.08-.008-.08.494-.16 1.5-.248.026-.531.194-.815.493-.841l-.026-.257c-.282.026-.6.097-.97.221-.661-.035-1.085-.088-1.261-.15-.176.097-.309.15-.406.16l-2.204.07-.265.142c-.009-.08-.061-.115-.158-.106l-.124.008-.282.142c-.009-.08-.238-.142-.697-.204l-.282.169-.547.044-.008-.142c2.839-.31 4.241-.7 4.206-1.16.185-.018.282.07.3.257l.828-.213-.026-.257-6.799.186c.01.089-.035.142-.132.15l-.829-.07a.998.998 0 0 0-.529.186l-.309-.115c-.855.07-1.49.177-1.913.31a11.998 11.998 0 0 0-1.94.026l-1.526.133-.705-.08c-.035-.451.838-2.675 2.637-6.66.52-1.347.996-2.189 1.455-2.508.097-.008.238.027.432.107l1.084-.372.556.088c.934-.08 2.02-.345 3.262-.806.31-.026.538-.009.706.062l.829-.195 2.469-.212c1.05-.089 2.187-.32 3.421-.7l-.026-.257c-.459.044-.697-.035-.714-.221-.027-.346-.362-.488-1.006-.434l-.026-.257.679-.195 1.781-.15-.026-.258c-.07.01-.432 0-1.103-.026l-.026-.275.688-.062c.185-.018.264-.106.247-.283-.926.026-1.394-.018-1.402-.142-6.455.319-9.691.38-9.71.177-.096.009-.228.071-.405.177l-.167-.265c1.71-3.65 2.716-5.492 3.007-5.519.008.142-.062.372-.22.682l.008.115.273-.026c.68-1.63 1.253-2.472 1.729-2.507 2.028-.177-.282-.31 4.056-.992.176.08.3.115.388.106 1.702-.345 4.074-.709 7.116-1.08l-.017-.258-1.623.151-.018-.257a.877.877 0 0 0 .485-.186l.01.142c.087-.009.21-.071.37-.177.282-.027.493 0 .643.08a9.332 9.332 0 0 1 1.358-.275l1.014-.098c.247-.16.362-.3.353-.434l-.009-.115a3.187 3.187 0 0 1-.89-.053c-.01-.142.061-.24.229-.283l1.887-.178.864-.221c.009.097.053.133.124.133.088-.009.211-.071.37-.177.044.009.097.009.141.017-.115.24-.247.585-.38 1.037l-.246.017a1.087 1.087 0 0 0-.141-.451l-.124.009c-2.292 6.413-3.315 9.398-5.431 14.323-.388 1.258-.715 1.958-.997 2.108.009.142.097.213.247.195.053.62-.088 1.231-.432 1.834-.979 2.834-1.631 4.385-1.967 4.668l.22 1.338c.01.141-.06.221-.21.239l-.23.017c-.035-.372-.168-.549-.406-.522l-.123.009c-.3.47-.53 1.01-.68 1.638l.23-.017c.309-.204.45-.443.423-.718l.459-.044.265.097c-.212.337-.31.603-.291.806l.123.213-.3.709.009.115c.265-.027.556.062.864.248.212-.018.441-.115.697-.284.264-.026 1.252-.035 2.954-.035l.855-.292c1.04-.01 1.208.017 2.108-.062l.37-.036.194-.133.009.116c.943-.08 1.005-.018 1.746.07l.009.116-.52.044.017.221a.745.745 0 0 0 .415-.16c.132-.008.211.063.22.222-.212.018-.45.071-.714.16l-.23-.08c-.361.097-.282.124-.529.142l-.361-.071c.009.062-.027.106-.088.106.008.142.088.213.22.204l.37-.036 1.932-.168.732-.16c.008.063.035.098.097.09l.352-.134.662-.053c.511-.044.502-.08 1.613-.257-.009-.07.018-.097.07-.106l.01.098c1.807-.31 1.922-.328 2.213-.426l.026.054c.45-.107.194-.08.318-.169.009.08.035.115.08.115l.317-.026-.018-.24-.644-.008-.008-.018c-.027.009-.045.009-.071.018h-.088v.017c-.432.09-.441.027-.723.054l-1.614.088-.009-.115.9-.124.326-.027.185-.132.009.115c1.27-.107 1.72.212 7.592-1.046.318-.026.291-.292.494-.841a.547.547 0 0 1-.309-.07c-.485.185-.74.097-1.675.247-.08.009-.141-.062-.168-.204l-.008-.097.9.027c.167-.018.493-.045.978-.32 0 .08-.176.125-.07.116zm-43.42.7l-.414.035c-.018-.168.203-.806.661-1.896l.273-.026c.01.257-.158.886-.52 1.887zm.503-2.02l-.009-.115c-.009-.142.08-.24.273-.284l.01.115c.008.169-.08.266-.274.284zm5.511 4.278l.009.116-.688.062-.009-.116.688-.062zm-.829-.07c.009.141-.203.3-.661.46l-.847-.062-.273.027-.027-.257 1.808-.168zm5.573-25.769l-.414.036-.01-.142c-.008-.142.071-.24.248-.283l.15-.01.282.116c.009.168-.07.266-.256.283zm6.305-1.24l.132-.009.018.257-.38.036c-.008-.142.063-.24.23-.284zm-1.587.558l-.626-.07-.009-.116c.82-.07 1.093-.16 1.596-.3.009.097.097.132.256.114l.017.257-.246.027a.843.843 0 0 1-.503-.089c-.15.098-.309.16-.485.177zm.785 2.295l-.01-.116 1.015-.097.009.115-1.014.098zm1.084-.886l-.008-.142.493-.044.01.141-.495.045zm.115-1.736l-.132.008.114-.274 1.129-.106.009.141c-.291.027-.67.107-1.12.23zm.573 2.444l-.018-.256.494-.045c.168-.018.256.062.265.24l-.74.061zm2.99-4.092l-.635.177-.115.009c-.3.027-.688.018-1.146-.027.82-.053 1.604-.115 1.895-.159zm-.68 2.835l.01.115-.874.08-.009-.116.873-.08zm1.429.682c-.009-.107-.176-.178-.52-.213l-.873.248-.67.027c-.15-.107-.23-.178-.239-.23l.776.044 1.746-.284.891.036.009.141c-.441.045-.811.124-1.12.23zm8.986-2.33c.105.009.176.009.202.009.31-.301.653-.54 1.05-.709-.318 1.4-.811 2.436-1.49 3.11l-.494-.302c.414-1.054.661-1.754.732-2.108zm-1.517 2.613l.123-.009c-.167.32-.317.487-.44.496l-.027-.336c.08 0 .194-.053.344-.15zm-.979 2.347c.238-.956.467-1.497.68-1.638l.008.115c-.124.886-.318 1.355-.573 1.39l.044.559c-.212.3-.309.531-.3.708l-.123.01-.071-.771c.141-.018.256-.142.335-.373zm-.38 1.276c.01.133-.078.443-.255.921l-.123.01-.027-.337c.168-.39.309-.585.406-.594zm-7.115 20.746l-.01-.098.23-.018.027.337c-.124.009-.212-.062-.247-.221zm10.167.265c-.009-.08-.044-.115-.123-.106l-.574.053-.008-.115h.052l1.358-.115.01.115c-.398.018-.636.08-.715.168zm-.673-.282c.06.03.03.06 0 .08-.03-.01-.07-.04 0-.08zm.065-1.596l-.759.062-.009-.115.688-.062.6-.15c.009.07.044.097.123.088.715-.124.644-.16.988-.186.115-.009.185.062.194.204l-1.825.16zm2.654-.23c-.423-.044-.45-.08-.75-.053l-.009-.097.68-.062.008.097c-.07.009.185.027.07.115zm.053-.124l-.01-.097.371-.036.009.098-.37.035zm.82-.07l-.009-.098c.062-.009.15-.053.264-.142.186-.018.283.106.3.248l-.555-.009zm1.05-.134l-.01-.115.45-.035.009.115-.45.035zm.625-.053c-.009-.133.044-.212.159-.23l.15.195c-.009-.062.017-.098.07-.106l.115.212-.494-.07zm-6.646 2.888l-.02-.221-.08.008.02.222.08-.009zm15.482-4.03c.07-.045.106-.089-.062-.116-.08.089.088.116-.088.124l.009.08c.017-.018.062-.044.097-.07l-.097.079v.009l-.185.239.37-.133h.044l-.018-.221-.07.009zm.644.504l-.07.01.017.22.52-.043c-.009-.142-.353-.187-.467-.187zm-.797-.382l.01-.01v-.01s-.01.01-.01.02z"/>
        <path fill="#F9DC3E" d="M84.274 10.17l.01.14.29-.026c-.009-.088.027-.23.088-.407l-.026-.257c-.124.009-.247.195-.362.55zm-2.786-6.733l-.027-.257-.414.035.026.257.415-.035zm-8.086 15.21c-.018-.24-.759-1.17-2.222-2.809-.027-.3.476-.753 1.507-1.346l2.946-2.578c.661-.841 1.049-2.206 1.164-4.101l-.036-.434c-.114-1.311-1.058-2.365-2.848-3.171C72.855 3.49 70.95 3.09 68.2 3.02c-2.275.194-5.247 1.01-8.906 2.453a36.54 36.54 0 0 1-3.44 2.18l.018.22a.816.816 0 0 0 .344-.15c.15-.017.238.053.247.195l.22-.115.106-.009.01.098c.008.115-.786.744-2.39 1.869l.123.23-.106.009-.264-.098c.008.08-.106.133-.327.15l.01.098.255.32c-.08.008-.203-.027-.37-.09-.37.036-.732.231-1.094.603l.15-.655c.538-2.33.908-4.394 1.102-6.183l-.026-.116a4.483 4.483 0 0 1-1.067-1 3.562 3.562 0 0 0 0-.47l-.027-.097-.105.026c-1.164 1.754-3.404 4.748-6.729 8.982-2.53 3.012-3.835 4.686-3.915 5.023-1.032 1.072-1.525 1.718-1.472 1.94-.274.177-.388.354-.344.549-.08.018-.133-.009-.15-.089-.441.718-1.094 1.178-1.967 1.382l-.917.213c-.123.026-.185.115-.176.265l.026.116.344-.08.027.097-.776.302-1.376.318-.723.045c-.106.106.573-.01.309.053l-.9.212c-.547.124-.846.08-.9-.141l-.105.026a.522.522 0 0 1 .009.23l-.053-.22-.723.167c-.053-.336-1.032-1.559-2.928-3.667-.035-.407.635-1 2.002-1.771l3.862-3.41c.864-1.117 1.376-2.906 1.543-5.369l-.053-.576c-.15-1.736-1.402-3.135-3.756-4.216-1.393-.948-3.898-1.453-7.513-1.532-2.998.256-6.913 1.328-11.728 3.197-1.323.966-2.83 1.923-4.524 2.87l.027.302c.114-.01.264-.071.45-.178.193-.017.3.071.317.248l.3-.168.15-.009.008.142c.01.142-1.04.965-3.165 2.471l.167.266-.15.009-.326-.115c.009.088-.141.15-.45.177l.018.16.353.39c-.115.008-.274-.027-.477-.098-.687.062-1.358.558-2.019 1.497l.168.265c.573-.531.908-.797 1.005-.806l.035.434c-.097.01-.247.071-.45.178l.362.549c.697-.753 1.464-1.4 2.302-1.94.414.106.634.24.643.38l.318-.026c2.275-1.692 4.523-2.914 6.754-3.667l.027.301c-.415.62-.697.94-.847.957a.975.975 0 0 0 .22.558c.036.38-.978 2.95-3.033 7.698C7.1 28.417 3.183 36.584 0 41.863c.009.107.07.248.185.425.785-.186 1.279-.38 1.49-.566l.168-.018.026.301.291-.027.3-.168c.01.089.106.133.309.115l.026.301c.027.293-.14.736-.493 1.347-.318.363-.662 1.125-1.023 2.285l.008.142.291-.027c1.27-1.426 2.231-2.825 2.893-4.19 3.703-1.089 6.525-2.16 8.483-3.215 1.966-.168 3.465-.69 4.488-1.55l-.017-.16-.741.222-.168.018-.017-.16c1.446-.221 2.442-.54 2.998-.983 2.813-2.18 4.938-3.72 6.375-4.633 2.954-2.179 4.877-4.305 5.75-6.369.158-.035.317-.07.493-.115.415-.018.644-.027.706-.044-.018-.08.018-.124.097-.142.661-.07.344.044.767-.053l1.111-.257.185-.044-.088.053c.124.018.256.009.406-.027l.08.328-5.054 8.07-1.12 1.408-.546 1.843.106-.027.546-.23-.176.717.053.213.15.186c-.07.018-.097.062-.08.142l.027.115.23-.053c.334-.293.475-.558.422-.798.362.062.6.089.723.054l.027.115c-.22.053-.335.23-.353.531l.027.115.123-.026c1.834-2.011 6.331-8.894 9.938-13.562-.115-.505 1.764-1.205 5.644-2.108l.123-.027c.141.611-.159 2.09-.9 4.438-.476 1.417-.705 2.197-.67 2.321-.617 1.887-.908 2.905-.873 3.065l-1.375 4.526a41.471 41.471 0 0 0-2.046 7.326c.08-.018.203-.009.38.035l.193-.168c.018.08.07.106.15.089l-.08-.328.6-.018c.177-.044.327-.266.45-.673-.026-.611.097-.939.37-1.01.37-1.453.6-2.179.68-2.205.343-1.444.6-2.268.767-2.472.52-1.878.9-2.843 1.146-2.905l.053.23-.38.983c-.66 2.95-1.33 5.28-2.01 6.99l.194.85.124-.027c1.64-3.543 4.003-10.559 7.08-21.047.089-.921.53-1.638 1.315-2.143L51.18 19l-.026-.098c.352-.08.6-.221.74-.416-.017-.08-.326-.195-.925-.355l1.534-6.608c.335-.3.529-.46.59-.46l.027.336a.816.816 0 0 0-.344.15l.291.417a9.451 9.451 0 0 1 1.729-1.488c.317.089.476.195.493.301l.23-.017c1.746-1.285 3.456-2.206 5.14-2.764l.018.221c-.308.47-.52.709-.635.718.018.16.062.301.141.425.027.292-.731 2.241-2.283 5.855-3.545 8.371-6.517 14.563-8.933 18.584.009.08.062.186.159.328.59-.142.97-.292 1.12-.434l.105-.009.018.222.247-.018.22-.115c.01.062.088.088.238.08l.018.239c.018.212-.106.549-.38 1.01-.255.274-.52.85-.802 1.727l.01.115.228-.018c.962-1.08 1.693-2.143 2.196-3.189 2.813-.832 4.956-1.638 6.437-2.436 1.508-.132 2.646-.522 3.422-1.178l-.01-.115-.572.168-.124.01-.009-.116c1.094-.16 1.861-.407 2.276-.735 2.134-1.648 3.747-2.826 4.84-3.517 3.404-2.489 4.992-4.88 4.798-7.175zm-.582.15l.08.895c-.107.221-.221.336-.327.345l-.132-1.524c.246.089.37.178.379.284zm-66.77-7.21l-.15.008-.027-.274.608-.054.01.142c-.098.01-.248.062-.442.177zm-2.972 29.86c-.353-.16-.67-.222-.944-.195l-.035-.434c-.018-.168.08-.283.29-.328.195-.017.31.124.327.408.511-.63.794-.948.847-.957l.326.133c-.106.886-.38 1.338-.811 1.373zM34.83 8.079c-.15.017-.45-.452-.881-1.382l-.027-.275c.282-.026.573.434.882 1.382l.026.275zm-.423-3.304l-.123.292-4.312-1.807c2.874.097 4.356.602 4.435 1.515zM16.198 20.48l-.608.053-.026-.275.608-.053.027.275zm-.493-9.434l.15-.009.035.434c-.14.01-.326.222-.555.63l-.027-.302c.274-.328.415-.576.397-.753zm-1.279 3.03l.053.575-.15.01-.053-.577.15-.009zm-.67 1.08l.291-.026c-.026.478-.159.735-.397.753l-.15.008c.186-.318.274-.567.256-.735zm-.502 1.506l.167-.018.009.142-.273.46-.291.027-.01-.141c.292-.027.424-.178.398-.47zm-.494 1.355l-.088.727-.15.009-.062-.718.3-.018zM7.813 32.146c-.194.992-.406 1.497-.626 1.515l-.01-.142c-.052-.487.16-.948.636-1.373zm-.908 1.975l.008.142c.018.195-.07.31-.264.319l-.009-.142c-.018-.168.07-.274.265-.319zm-.265 4.102l.459-.045.017.16c-.114.009-.264.07-.45.177l-.29.026c-.018-.15.079-.265.264-.318zm13.05-4.049c-2.574 1.276-4.09 2.144-4.54 2.596-2.787.974-4.171 1.577-4.145 1.816-2.478.983-4.11 1.71-4.894 2.161-.185.018-.45-.053-.803-.212-.044-.505.186-.913.67-1.24.433-.036.847.026 1.244.194.459-.239 1.261-.505 2.399-.788l-.027-.301-.917.08c.115-.16.996-.576 2.654-1.25l.459-.044.009.142c-.785.07-1.217.301-1.314.717.017.186.123.266.317.248.591-.372.882-.593.873-.655 1.12-.213 4.215-1.843 9.286-4.88l.026.274c.009.133-.423.505-1.296 1.142zm-7.777 2.57a2.997 2.997 0 0 0 1.905-.886c.212-.018.326.062.335.248-.362.035-1.058.336-2.072.92l-.15.01-.018-.293zm12.548-9.683l-3.888 3.1c-2.893 1.905-4.445 2.862-4.674 2.88-4.603 2.542-7.469 3.862-8.58 3.96l-.168.017c.142-.523 2.187-4.73 6.155-12.65 1.746-.15 4.498-.965 8.245-2.453l.917-.08c1.896-.168 3.316.204 4.25 1.09l.054.575c-.697 2.029-1.473 3.216-2.31 3.561zm-7.6-4.296l.625-.053.01.142-.627.053-.009-.142zm8.79-1.497l.46-.044c.423.204.643.38.66.54l.01.142c-.406.035-.785-.177-1.13-.638zm1.244-7.113c-.405.487-1.517 1.32-3.333 2.49-.6.052-2.83.92-6.693 2.621a1.217 1.217 0 0 0-.617-.106l-.027-.275c-.044-.558.203-1.257.75-2.108.3-1.594.626-2.507.987-2.728l3.219-7.273c-.035-.451.653-.797 2.063-1.036l.459-.044.035.416c1.385-.213 2.249-.337 2.584-.363 2.557-.222 3.889.301 3.995 1.55l.29-.027-.061-.735.317-.026c.75.416 1.155.92 1.208 1.514.036.408-.185.913-.652 1.515-.194.018-.309-.124-.326-.407l-.318.026-.07.886c-1.297 1.949-2.24 2.95-2.822 3.003-.53.735-.856 1.098-.988 1.107zm1.975 5.094c-.264-.178-.476-.257-.635-.248l-.035-.434.291-.027.644.38c.026.205-.062.31-.265.329zm2.046 2.436c.282.115.45.239.485.354l-.14.035.008.01a.312.312 0 0 0-.088.017l-.212.168-.053-.584zm.194 1.222l-.026-.115.37-.089.027.115-.37.089zm.89 1.001c.38-.062.565-.089 1.27-.248l.027.115-1.34.31c.017-.062.035-.124.044-.177zm1.306.558c-.564.053-.441-.018-1.34.186l-.027-.115 1.129-.363.538-.124.053.212c-.247.053-.07.053-.353.204zm1.19-.283c-.132.035-.238-.027-.3-.178l.344-.08c.15-.035.247.027.283.178l-.327.08zm3.228-3.49l-.027-.116.556-.133.053.213-.582.035zm3.448 21.241c.035-.16.044-.274.026-.354l.124-.027c.15-.035.238.018.273.16l.026.115-.45.106zm2.416-20.33l-.247-.043c-.397.159-.732.274-1.005.336l-.23.053c-.132.036-.238-.017-.29-.16l1.613-.371.53-.248.175.204c-.255.053-.44.132-.546.23zm1.243-.398l-.026-.115a.674.674 0 0 0 .3-.195l1.146-.266.026.116c-.608.15-1.093.3-1.446.46zm.176-2.33c-.079.018-.185.09-.317.195-.018-.08-.176-.08-.476-.008-.053-.222.793-.532 2.548-.94l.247-.053.053.213c-1.234.363-1.922.567-2.055.594zm3.087-3.348c-.124 1.409-.617 2.206-1.49 2.41l-.027-.116-.776.302-.344.08a.862.862 0 0 1-.476-.01l-.07-.31c-.027-.115 1.093-1.674 3.368-4.668l.265.045c.097.407-.053 1.16-.45 2.267zm5.458-4.695l-.106.01-.017-.222.458-.044.01.115c-.08.017-.195.062-.345.141zM51.304 33.52c-.265-.124-.503-.177-.706-.16l-.026-.336c-.01-.115.061-.195.211-.24.15-.017.238.09.256.32.38-.488.59-.736.635-.736l.238.098c-.088.673-.291 1.027-.608 1.054zM75.412 8.185c-.114.009-.335-.346-.679-1.063l-.017-.222c.22-.017.45.328.679 1.037l.017.248zm-.317-2.534l-.106.23-3.263-1.372c2.178.07 3.307.452 3.369 1.142zM61.259 17.583l-.458.045-.018-.222.459-.044.017.221zm-.379-7.166l.123-.009.027.337c-.115.009-.256.168-.423.478l-.018-.221c.203-.257.3-.452.291-.585zm-.961 2.303l.035.434-.123.01-.036-.435.124-.009zm-.52.824l.229-.018c-.027.372-.124.567-.291.585l-.124.009c.133-.248.194-.443.186-.576zm-.37 1.134l.105-.009.009.115-.203.354-.23.018-.008-.115c.238-.018.344-.142.326-.363zm-.371 1.027l-.08.567-.105.01-.044-.559.229-.018zM54.893 26.45c-.15.744-.31 1.125-.477 1.143l-.008-.098c-.027-.372.132-.726.485-1.045zm-.697 1.497l.009.098c.017.16-.053.248-.212.257l-.009-.116c-.009-.115.062-.194.212-.239zm-.194 3.118l.353-.026.008.115c-.079.009-.202.053-.343.133l-.23.017c-.009-.124.062-.203.212-.239zm9.903-3.073c-1.94.965-3.096 1.62-3.457 1.957-2.116.744-3.166 1.205-3.148 1.39-1.878.754-3.113 1.294-3.695 1.64-.141.008-.344-.045-.608-.169-.036-.38.14-.69.511-.92a1.98 1.98 0 0 1 .944.14c.352-.176.96-.371 1.825-.593l-.018-.221-.714.062c.088-.124.767-.443 2.028-.957l.353-.026.009.097c-.6.053-.935.23-1.005.55.008.141.097.212.246.194.441-.292.653-.46.653-.514.847-.15 3.192-1.39 7.046-3.711l.017.221c0 .089-.326.372-.987.86zm-5.908 1.948a2.363 2.363 0 0 0 1.463-.664c.15-.009.238.053.247.195-.264.026-.785.248-1.57.673l-.123.009-.017-.213zm9.54-7.36l-2.936 2.373c-2.195 1.444-3.386 2.17-3.571 2.188-3.492 1.931-5.661 2.932-6.517 3.003l-.123.009c.106-.399 1.667-3.596 4.682-9.602 1.314-.115 3.395-.744 6.252-1.878l.715-.062c1.437-.124 2.513.16 3.218.841l.035.434c-.537 1.524-1.12 2.419-1.754 2.693zm-5.766-3.26l.458-.045.009.115-.459.045-.008-.116zm6.675-1.143l.353-.027c.326.16.493.301.502.417l.01.097c-.31.027-.6-.133-.865-.487zm.926-5.395c-.309.372-1.147 1.01-2.513 1.896-.459.044-2.152.7-5.08 1.975-.14-.053-.3-.07-.467-.062l-.018-.221c-.035-.425.15-.957.556-1.604.23-1.222.485-1.904.75-2.064l2.46-5.527c-.027-.328.494-.593 1.552-.797l.353-.027.026.337c1.04-.168 1.693-.266 1.958-.292 1.94-.169 2.954.221 3.033 1.178l.23-.018-.045-.532.23-.017c.564.31.864.682.899 1.125.026.319-.132.708-.467 1.16-.15.018-.239-.088-.256-.319l-.23.018-.07.664c-.979 1.497-1.693 2.268-2.143 2.303-.397.54-.644.815-.758.824zm1.032 3.685l-.027-.336.23-.018.493.301c.009.142-.062.221-.211.24-.212-.134-.37-.196-.485-.187zM29.355 37.983l-.229.054-.194.168c.035.142.124.195.273.16.15-.036.212-.125.177-.266l-.027-.116zm-.873-1.745l.027.116c.15-.036.211-.124.176-.266l-.026-.115c-.141.035-.203.124-.177.265zm6.244-11.78l.167-.107c-.035 0-.062-.009-.088-.018-.062.018-.088.062-.08.124zM34.69 21.4l.265-.062-.053-.23-.265.062.053.23zm62.318 8.947l-.6-.071-.106.23.01.115 3.57-.3-.017-.222-2.857.248zm3.265-.275l.02.222h.04l-.02-.222h-.04zm14.98-1.966l.017.221.388.071-.018-.221-.388-.071zm-.547.044c-2.681.602-3.016.496-3.58.54l.017.222.247-.018.132-.009-.035-.026.291-.116c2.654-.292 2.963-.186 2.936-.487l-.008-.106zm-16.093-3.915l-.238-.08c-.194.523-.291.833-.283.921l.01.098c.184-.01.352-.328.51-.94zm-3.228-1.745l-.009-.115-.123.008-.22.142.123.213c.167-.018.247-.098.23-.248zm7.022 7.281l-.02-.221-.08.008.02.222.08-.009zm14.538-3.295l.168-.018c.097-.009.141-.089.132-.23l-.097-.213c-.608.053-.89.08-1.384.354l-.01-.115-.731.071c-.018-.221-.08-.336-.176-.328l-.38.036c-.44.035-.652.018-.872.186-.01-.08-.036-.115-.08-.115l-.423.035-.247.142c-.009-.08-.035-.115-.08-.115l-.15.133-.008-.116-.59-.044-.142.009.018.221.3.08.282-.017a.51.51 0 0 0 .326.07l.247-.124.009.098c-1.385.345-1.376.283-2.328.443-.106-.071-.186-.107-.238-.098l-.018.018c-.106-.009-.168-.08-.176-.195l.493-.062c.036 0 .062.036.335.089.397-.195.415-.275.627-.293l-.018-.221c-1.358.266-.811.088-2.513.24l-.08.008-.017-.222c2.187-.265 1.455-.115 2.204-.327.01.08.036.115.08.115a.513.513 0 0 1 .3-.15l.15-.01c.767-.062 1.022.089 2.539-.336l.009.097.247-.124.229-.017c-.018-.222.317-.257.432-.266l-.018-.24c-2.663.541-3.36.39-4.1.603l-.009-.097c-.696.124-.723.07-.9.08a.466.466 0 0 0-.22.141c-.009-.08-.035-.115-.088-.115-.026 0-.035.009-.044.009l-2.257.372c-.01-.062-.036-.098-.089-.089-1.172.248-.855.292-2.425.434a.735.735 0 0 0-.29.124c-.01-.062-.045-.097-.124-.088l-.961.08-.644.159c-.009-.062-.044-.098-.123-.089-.362.098-.68.16-.935.177h-.018c-.158.018.08-.044-.044-.097l-.194.115c-.282.027-.132-.018-1.102-.009-1.702.213-1.517.24-1.702.248l-.635-.044c.009.062-.026.106-.097.106-.723-.097-1.093-.212-1.102-.345.097-.691.264-1.045.503-1.063l.123-.009-.106.23.124-.009c.229-.124.335-.239.326-.345l-.018-.24-.229.019-.018-.222a.8.8 0 0 1 .07-.443l.521-.841.018.221.247-.018-.018-.221-.141-.204c.185-.16.326-.248.44-.257l-.008-.115-.335.027-.026-.337c.67-1.4.987-2.214.97-2.445l.238.098c.15-.01.22-.098.211-.257l-.23.018-.008-.098a.848.848 0 0 1 .088-.47c.362-.38.53-.761.494-1.16.07-.009.106.027.115.107.308-.178.546-.647.723-1.427.547-.992 1.323-2.976 2.337-5.943 1.94-5.244 1.86-5.802 2.134-7.043l-.23.018a.802.802 0 0 1-.088.452c-.159-.062-.282-.098-.37-.089l-.009-.097c-.035-.452.15-.992.573-1.63l.106-.009.194.762.23-.018c-.01-.053.052-.354.176-.912-.01-.115-.097-.186-.274-.195l-.22.142c-.018-.16-.009-.576.017-1.24l-.114.008c-.194-.194-.291-.354-.3-.487l-1.261.124a1.174 1.174 0 0 0-.141-.39c-.009-.115.273-.23.855-.345l.256.097.238-.141c.009.08.053.115.141.106l.238-.142c.01.08.053.115.141.107l.115-.01-.018-.256c-.176.018-.643.018-1.384-.009l-.238.16-.009-.142c-5.917.487-9.277.762-10.08.841-.105.01-.52 0-1.251-.017.009.097-.08.15-.256.168l-.256-.115-.864.221c-.203.018-.547.009-1.023-.044a.877.877 0 0 1-.485.186c-.106.009 1.261-.071 2.531-.16-.132.107-.335.169-.617.195a.843.843 0 0 1-.503-.088c-.194.088-.82.23-1.87.443l-.255-.098-4.127.638a1.026 1.026 0 0 0-.555-.089c-.22.018-.591.098-1.103.24l-1.993.832.15.248c.097-.009.238-.062.406-.16l.705.063-.088.664c-.652.292-1.031.726-1.137 1.276-.98.434-1.464.744-1.464.93l.009.115.15-.009.264-.142.309.372.044.514c.018.16-1.631 3.64-4.93 10.444-2.856 6.555-4.356 10.142-4.497 10.789-.978.275-1.543.673-1.71 1.205.017.168.308.283.873.327l.026.257-.256.426.044.513c.027.266.741.47 2.143.611-.009-.088.036-.141.133-.15.026.319-.062.939-.265 1.86l.15-.009c.582-.797.855-1.346.829-1.647l.123-.01c.141-.008.291.151.468.497-.177.07-.794 1.48-1.852 4.234l.15.248.15-.009c1.296-3.295 2.107-5.12 2.442-5.465 1.702-.15 4.647-.452 8.827-.904l.265-.16c.008.09.061.134.158.125l.274-.027.264-.16c.01.09.062.134.159.125l3.166-.275c.837-.07 1.234-.328 1.199-.762-.009-.115.485-.248 1.481-.39.097-.008.239.018.432.08-.008-.08.494-.16 1.5-.248.026-.531.194-.815.493-.841l-.026-.257c-.282.026-.6.097-.97.221-.661-.035-1.085-.088-1.261-.15-.176.097-.309.15-.406.16l-2.204.07-.265.142c-.009-.08-.061-.115-.158-.106l-.124.008-.282.142c-.009-.08-.238-.142-.697-.204l-.282.169-.547.044-.008-.142c2.839-.31 4.241-.7 4.206-1.16.185-.018.282.07.3.257l.828-.213-.026-.257-6.799.186c.01.089-.035.142-.132.15l-.829-.07a.998.998 0 0 0-.529.186l-.309-.115c-.855.07-1.49.177-1.913.31a11.998 11.998 0 0 0-1.94.026l-1.526.133-.705-.08c-.035-.451.838-2.675 2.637-6.66.52-1.347.996-2.189 1.455-2.508.097-.008.238.027.432.107l1.084-.372.556.088c.934-.08 2.02-.345 3.262-.806.31-.026.538-.009.706.062l.829-.195 2.469-.212c1.05-.089 2.187-.32 3.421-.7l-.026-.257c-.459.044-.697-.035-.714-.221-.027-.346-.362-.488-1.006-.434l-.026-.257.679-.195 1.781-.15-.026-.258c-.07.01-.432 0-1.103-.026l-.026-.275.688-.062c.185-.018.264-.106.247-.283-.926.026-1.394-.018-1.402-.142-6.455.319-9.691.38-9.71.177-.096.009-.228.071-.405.177l-.167-.265c1.71-3.65 2.716-5.492 3.007-5.519.008.142-.062.372-.212.682l.009.115.273-.026c.68-1.63 1.252-2.472 1.729-2.507 2.028-.177-.283-.31 4.056-.992.176.08.3.115.388.106 1.702-.345 4.074-.709 7.116-1.08l-.018-.258L97 4.181l-.018-.257a.877.877 0 0 0 .485-.186l.01.142c.087-.009.21-.071.37-.177.282-.027.493 0 .643.08a9.332 9.332 0 0 1 1.358-.275l1.014-.098c.247-.16.362-.3.353-.434l-.009-.115a3.187 3.187 0 0 1-.89-.053c-.01-.142.061-.24.229-.283l1.887-.178.864-.221c.009.097.053.133.123.133.089-.009.212-.071.37-.177.045.009.098.009.142.017-.115.24-.247.585-.38 1.037l-.246.017a1.087 1.087 0 0 0-.141-.451l-.124.009c-2.292 6.413-3.315 9.398-5.432 14.323-.388 1.258-.714 1.958-.996 2.108.009.142.097.213.247.195.053.62-.088 1.231-.432 1.834-.98 2.834-1.632 4.385-1.967 4.668l.22 1.338c.01.141-.061.221-.21.239l-.23.017c-.035-.372-.168-.549-.406-.522l-.123.009c-.3.47-.53 1.01-.68 1.638l.23-.017c.309-.204.45-.443.423-.718l.459-.044.264.097c-.211.337-.308.603-.29.806l.123.213-.3.709.009.115c.264-.027.555.062.864.248.212-.018.44-.115.697-.284.264-.026 1.252-.035 2.954-.035l.855-.292c1.04-.01 1.208.017 2.108-.062l.37-.036.194-.133.009.116c.943-.08 1.005-.018 1.746.07l.009.116-.52.044.017.221a.745.745 0 0 0 .414-.16c.133-.008.212.063.22.222-.21.018-.449.071-.713.16l-.23-.08c-.361.097-.282.124-.529.142l-.361-.071c.008.062-.027.106-.089.106.01.142.089.213.22.204l.371-.036 1.931-.168.732-.16c.01.063.036.098.097.09l.353-.134.661-.053c.512-.044.503-.08 1.614-.257-.009-.07.018-.097.07-.106l.01.098c1.807-.31 1.922-.328 2.213-.426l.026.054c.45-.107.194-.08.318-.169.009.08.035.115.08.115l.317-.026-.018-.24-.644-.008-.009-.018c-.026.009-.044.009-.07.018h-.088v.017c-.432.09-.441.027-.723.054l-1.614.088-.009-.115.9-.124.326-.027.185-.132.009.115c1.27-.107 1.72.212 7.592-1.046.318-.026.291-.292.494-.841a.547.547 0 0 1-.309-.07c-.485.185-.74.097-1.675.247-.08.009-.141-.062-.168-.204l-.009-.097.9.027c.167-.018.494-.045.979-.32 0 .08-.185.125-.08.116zm-43.42.7l-.414.035c-.018-.168.203-.806.661-1.896l.273-.026c.01.257-.158.886-.52 1.887zm.503-2.02l-.009-.115c-.009-.142.08-.24.273-.284l.01.115c.008.169-.08.266-.274.284zm5.511 4.278l.009.116-.688.062-.009-.116.688-.062zm-.829-.07c.009.141-.203.3-.661.46l-.847-.062-.273.027-.027-.257 1.808-.168zm5.573-25.769l-.414.036-.01-.142c-.008-.142.071-.24.248-.283l.15-.01.282.116c.009.168-.07.266-.256.283zm6.305-1.24l.132-.009.018.257-.38.036c-.008-.142.063-.24.23-.284zm-1.587.558l-.626-.07-.009-.116c.82-.07 1.093-.16 1.596-.3.009.097.097.132.256.114l.017.257-.246.027a.843.843 0 0 1-.503-.089c-.15.098-.309.16-.485.177zm.785 2.295l-.01-.116 1.015-.097.009.115-1.014.098zm1.084-.886l-.008-.142.493-.044.01.141-.495.045zm.115-1.736l-.132.008.114-.274 1.129-.106.009.141c-.291.027-.67.107-1.12.23zm.573 2.444l-.018-.256.494-.045c.168-.018.256.062.265.24l-.74.061zM94.548.94l-.635.177-.115.009c-.3.027-.688.018-1.146-.027.82-.053 1.604-.115 1.895-.159zm-.68 2.835l.01.115-.874.08-.009-.116.873-.08zm1.429.682c-.009-.107-.176-.178-.52-.213l-.873.248-.67.027c-.15-.107-.23-.178-.239-.23l.776.044 1.746-.284.891.036.009.141c-.441.045-.811.124-1.12.23zm8.986-2.33c.105.009.176.009.202.009.31-.301.653-.54 1.05-.709-.318 1.4-.811 2.436-1.49 3.11l-.494-.302c.414-1.054.661-1.754.732-2.108zm-1.517 2.613l.123-.009c-.167.32-.317.487-.44.496l-.027-.336c.08 0 .194-.053.344-.15zm-.979 2.347c.238-.956.467-1.497.68-1.638l.008.115c-.124.886-.318 1.355-.573 1.39l.044.559c-.212.3-.309.531-.3.708l-.123.01-.071-.771c.141-.018.256-.142.335-.373zm-.38 1.276c.01.133-.078.443-.255.921l-.123.01-.027-.337c.168-.39.309-.585.406-.594zm-7.115 20.746l-.01-.098.23-.018.027.337c-.124.009-.212-.062-.247-.221zm10.167.265c-.009-.08-.044-.115-.123-.106l-.574.053-.008-.115h.052l1.358-.115.01.115c-.398.018-.636.08-.715.168zm-.673-.282c.06.03.03.06 0 .08-.03-.01-.07-.04 0-.08zm.065-1.596l-.759.062-.009-.115.688-.062.6-.15c.009.07.044.097.123.088.715-.124.644-.16.988-.186.115-.009.185.062.194.204l-1.825.16zm2.654-.23c-.423-.044-.45-.08-.75-.053l-.009-.097.68-.062.008.097c-.07.009.185.027.07.115zm.053-.124l-.01-.097.371-.036.009.098-.37.035zm.82-.07l-.009-.098c.062-.009.15-.053.264-.142.186-.018.283.106.3.248l-.555-.009zm1.05-.134l-.01-.115.45-.035.009.115-.45.035zm.625-.053c-.009-.133.044-.212.159-.23l.15.195c-.009-.062.017-.098.07-.106l.115.212-.494-.07zm8.683-1.02l.01-.01v-.01s-.01.01-.01.02zm.153-.122c.07-.045.106-.089-.062-.116-.08.089.088.116-.088.124l.009.08c.017-.018.062-.044.097-.07l-.097.079v.009l-.185.239.37-.133h.044l-.018-.221-.07.009zm.644.504l-.07.01.017.22.52-.043c-.009-.142-.353-.187-.467-.187z"/>
    </g>
</svg>
