<svg xmlns="http://www.w3.org/2000/svg" width="21" height="21" viewBox="0 0 21 21">
    <path fill-rule="nonzero" d="M20.691 6.65L10.89.117a.7.7 0 0 0-.776 0L.311 6.65A.698.698 0 0 0 0 7.233v6.533c0 .234.118.452.31.583l9.802 6.533a.693.693 0 0 0 .776 0l9.801-6.533a.698.698 0 0 0 .31-.583V7.233a.686.686 0 0 0-.308-.583zm-10.189 6.274L6.862 10.5l3.64-2.426L14.14 10.5l-3.637 2.425zm.699-6.066v-4.85l7.84 5.225L15.4 9.66l-4.2-2.8zm-1.4 0l-4.2 2.8-3.64-2.425 7.84-5.226v4.851zm-5.463 3.64L1.4 12.459V8.54L4.338 10.5zm1.262.843l4.201 2.8v4.851l-7.84-5.226 3.64-2.425zm5.6 2.798l4.202-2.8 3.639 2.425-7.84 5.226v-4.85zm5.464-3.64l2.938-1.959v3.917L16.664 10.5z"/>
</svg>
