<svg xmlns="http://www.w3.org/2000/svg" viewBox="0 0 17 17"><path d="M8.5 0C3.817 0 0 3.817 0 8.5S3.817 17 8.5 17 17 13.183 17 8.5 13.183 0 8.5 0zm0 1.976A6.508 6.508 0 0115.022 8.5 6.507 6.507 0 018.5 15.022 6.508 6.508 0 011.976 8.5 6.51 6.51 0 018.5 1.976zm.177 2.17C7.014 4.112 5.34 5.227 4.918 6.868c-.434 1.427-.314 3.068.442 4.361.656 1.032 1.87 1.631 3.086 1.617.834.03 1.707-.06 2.465-.413.348-.33.098-.853.195-1.26.031-.267-.222-.566-.5-.438-.95.245-2.033.497-2.948.03-.8-.472-1.01-1.49-.982-2.354.005-.841.3-1.79 1.094-2.202.828-.421 1.813-.207 2.62.153.378.05.656-.302.72-.636.132-.286.279-.565.397-.857-.848-.507-1.843-.745-2.83-.723z"/></svg>