<svg xmlns="http://www.w3.org/2000/svg" width="23" height="16" viewBox="0 0 23 16" fill="#FAFAFA">
    <g>
        <path d="M2.41.96l8.206 6.629c.372.301.886.434 1.383.408.498.026 1.009-.107 1.383-.408L21.59.96c.658-.529.51-.96-.326-.96H2.737c-.835 0-.983.434-.328.96z"/>
        <path d="M21.777 3.244l-9.052 6.535c-.338.241-.781.36-1.223.355-.443.005-.884-.114-1.225-.355L1.223 3.244C.549 2.76 0 3.019 0 3.822v10.721C0 15.344.69 16 1.533 16h19.934C22.31 16 23 15.344 23 14.543V3.822c0-.803-.55-1.062-1.223-.578z"/>
    </g>
</svg>
