<svg xmlns="http://www.w3.org/2000/svg" xmlns:xlink="http://www.w3.org/1999/xlink" width="388" height="363" viewBox="0 0 388 363">
    <defs>
        <path id="a" d="M.494.537H9.48V27H.493z"/>
    </defs>
    <g fill="none" fill-rule="evenodd">
        <g fill="#216D8E">
            <path d="M150.22 167.163L113.804 258 90 253.175c9.522-22.875 19.628-84.182 44.017-91.668 2.756-.832 19.377-8.818 22.55-7.32 2.84 1.247-9.354 10.148-6.347 12.976zM215.736 167.305L251.875 258 275 248.781c-9.45-22.84-18.981-79.648-43.267-87.123-2.735-.83-20.224-8.97-23.374-7.475-2.652 1.246 10.36 10.299 7.377 13.122z"/>
            <path d="M232 188.22V328h-97V192.531c0-5.638.75-10.612 2.083-15.006 2.834-9.451 6.834-19.732 13.917-22.8 6.083-2.652 9.167-1.409 13.583-2.984 1.084-.414 5.917-1.244 10.25-.166 4.5 1.16.5-.414 2.917-.414 1.167 0 3.25-1.161 4.417-1.161h11.416c.584 0-.166 3.068.417 3.15 2.417.083 4.333 4.975 6.667 5.555 1.083.249 2.25.58 3.333.83.583.165 1.083.33 1.667.497 4.583 1.326 8.916 3.067 12.583 5.223 5.25 3.067 9.333 7.047 11.75 12.353 1.25 2.902 2 6.467 2 10.612z"/>
            <path d="M232 192.53V343h-97V188.219c0-4.063.75-7.628 2.083-10.695 3.75-8.705 12.334-13.845 22.584-17.078 2.166-.663 4.416-1.327 6.75-1.824 2.333-.58 2.916-8.456 5.333-8.622h13.083c1.167 0 2.25 2.073 3.334 2.073 2.416 0 2.083-.498 6.583-.747 4.833-.165 8.5 1.659 8.833 1.741 0 0 6.417-.58 11.334 3.15 6.333 4.726 11.916 11.607 14.833 21.307 1.5 4.311 2.25 9.368 2.25 15.006z"/>
        </g>
        <path fill="#F9D19B" d="M180.844 184.937c0 .084 0 .084 0 0h.084c18.37-9.854 22.879-29.228 21.96-31.817h-9.77V136c-3.924.919-8.099 1.503-12.274 1.503-4.091 0-8.183-.5-12.107-1.42v17.12l-9.603-.417c-1.002 2.589 3.34 22.297 21.71 32.151z"/>
        <g transform="translate(118)">
            <path fill="#F9D19B" d="M40.308 152.608c3.471-.97 7.145-1.82 11.021-2.547.412 3.434.523 5.543.332 6.325l-11.353-3.778zM85.122 153.292c-1.843-1.432-5.252-2.278-10.226-2.539-.95 2.679-1.213 3.543-.788 2.592l11.014-.053z"/>
            <path fill="#DDA66F" d="M50.5 132.025h25.75v20.515H50.5z"/>
            <circle cx="64.604" cy="93.171" r="45.499" fill="#FFDDA8" transform="rotate(-45 64.604 93.17)"/>
            <path fill="#FFDDA8" d="M109 67.998c2.083 25.81-19.167 45.332-44.417 45.332S18.917 93.063 18.917 67.998s20.416-45.332 45.666-45.332c25.25 0 42.334 20.35 44.417 45.332z"/>
            <ellipse cx="20.167" cy="83.467" fill="#F5AF86" rx="8.417" ry="8.355"/>
            <ellipse cx="110.083" cy="83.467" fill="#F5AF86" rx="8.417" ry="8.355"/>
            <ellipse cx="93.79" cy="104.755" fill="#EA9C7A" rx="6.62" ry="6.664" transform="rotate(-76.714 93.79 104.755)"/>
            <ellipse cx="36.459" cy="104.759" fill="#EA9C7A" rx="6.62" ry="6.664" transform="rotate(-76.714 36.459 104.76)"/>
            <path stroke="#BD3A23" stroke-linecap="round" stroke-width="2.722" d="M54.917 112.75c6.666 5.378 14.333 6.619 22.333.166"/>
            <ellipse cx="20.167" cy="83.384" fill="#FFDDA8" rx="8.417" ry="8.769"/>
            <ellipse cx="109.917" cy="83.384" fill="#FFDDA8" rx="8.417" ry="8.769"/>
            <path stroke="#000" stroke-linecap="round" stroke-width="2.131" d="M82.083 83.798c1.834 4.053 8.334 3.888 9.917 0M38.583 83.798c1.834 4.053 8.334 3.888 9.917 0"/>
            <path fill="#000" stroke="#492C26" stroke-linecap="round" stroke-width="5.012" d="M82.667 71.803L91 75.36l-8.333-3.557zM46.917 71.803l-8.334 3.557 8.334-3.557z"/>
            <path fill="#EA9C7A" d="M69.833 104.148c-.333-.497-.833-.828-1.416-.828-.167 0-.25-.082-.417-.082h-6c-.583 0-1.25.248-1.583.827-.584.827-.417 2.068.416 2.73 1.084.827 2.667 1.158 4.167 1.158 1.667 0 3.333-.414 4.333-1.158.917-.58 1.084-1.737.5-2.647z"/>
            <path fill="#4A454C" d="M115.917 25.313c-3.5-6.535-15.417-13.07-15.25-21.26C90.333 2.316 79 2.978 69.167 6.783c.916-2.316 1.083-4.963.666-6.452-10.166.827-21 3.557-29.166 9.844.083-.58-.084-3.888-.334-5.212-9 2.813-19.583 8.438-20.333 19.027-6.333-.083-13.333 3.557-15.5 6.783 1.667-.166 4.167-.414 7.417-1.076-2 2.482-3.667 5.626-4 8.355-1.834 15.718 2.5 30.939 10.916 45.498.417-13.98 3.834-28.043 17.667-34.91 20-4.218 33 3.723 52.167 4.55-1.667-2.067-3.5-6.12-6.417-7.858 18.417 3.309 27 20.763 28.25 37.639 8.667-16.876 14.583-40.617 5.417-57.658z"/>
        </g>
        <g fill="#F9D19B">
            <path d="M131 214.75L113.75 258 90 253.167c4.333-10.334 8.75-28.584 14.5-46.167M234 213.556L251.75 258l23.25-9.221c-4.25-10.218-8.583-27.33-14.167-43.779"/>
        </g>
        <path fill="#B3B6BA" d="M274.67 362.917H93.58c-1.583 0-2.915-1.33-2.915-2.91v-4.239c0-1.58 1.332-2.91 2.914-2.91h181.09c1.583 0 2.915 1.33 2.915 2.91v4.24c0 1.579-1.332 2.909-2.914 2.909z"/>
        <path fill="#E8E8E8" d="M277.667 347.456c0 3.49-2.914 6.4-6.411 6.4H96.993c-3.497 0-6.411-2.91-6.411-6.4V237.149c0-3.492 2.914-6.4 6.411-6.4h174.18c3.497 0 6.41 2.908 6.41 6.4v110.307h.084z"/>
        <path fill="#8D9196" d="M274.67 362.917c0-2.66.083-5.32-3.497-5.32H97.076c-3.58 0-3.497 2.66-3.58 5.32H274.67z"/>
        <path fill="#9FA4AA" d="M271.173 234.322c3.58 0 6.41 2.91 6.41 6.401v110.224c0 3.574-2.913 6.4-6.41 6.4H97.076c-3.58 0-6.494-2.909-6.494-6.4L89.5 240.723c0-3.574 2.83-6.4 6.41-6.4h175.263z"/>
        <path fill="#FFF" d="M249.608 234.322l-49.872 123.109h-46.46l49.873-123.109zM186.248 234.322l-49.873 123.109h-15.57l49.873-123.109z" opacity=".3"/>
        <g transform="translate(171 283)">
            <circle cx="13.243" cy="13.137" r="8.806" fill="#7D848C" transform="rotate(-45 13.243 13.137)"/>
            <circle cx="13.209" cy="15.17" r="8.806" fill="#FFF" transform="rotate(-76.714 13.209 15.17)"/>
        </g>
        <g fill="#DDA66F">
            <path d="M194 151.717c0-2.208-4.22-5.717-12.5-5.717-8.28 0-12.5 3.566-12.5 5.717 0 2.15 5.6 3.283 12.5 3.283s12.5-1.132 12.5-3.283z"/>
        </g>
        <g>
            <path fill="#A63F44" d="M229 76h-5.75V44.047c0-12.813-10.318-23.238-23-23.238h-34.5c-12.682 0-23 10.425-23 23.238V76H137V44.047C137 28.032 149.897 15 165.75 15h34.5C216.103 15 229 28.032 229 44.047V76z"/>
            <path fill="#A63F44" d="M137 83h-3c-1.657 0-3-1.254-3-2.8v-8.4c0-1.546 1.343-2.8 3-2.8h3c1.656 0 3 1.254 3 2.8v8.4c0 1.547-1.344 2.8-3 2.8"/>
            <g transform="translate(133 62)">
                <mask id="b" fill="#fff">
                    <use xlink:href="#a"/>
                </mask>
                <path fill="#F23F44" d="M4.987 27c-2.48 0-4.492-1.975-4.492-4.41V4.946c0-2.436 2.011-4.41 4.492-4.41 2.482 0 4.492 1.974 4.492 4.41v17.642C9.48 25.025 7.47 27 4.987 27" mask="url(#b)"/>
            </g>
            <path fill="#A63F44" d="M229 69h3c1.658 0 3 1.254 3 2.8v8.4c0 1.546-1.342 2.8-3 2.8h-3c-1.656 0-3-1.254-3-2.8v-8.4c0-1.546 1.344-2.8 3-2.8"/>
            <path fill="#F23F44" d="M227.5 63c2.486 0 4.5 1.94 4.5 4.334v17.332c0 2.393-2.014 4.334-4.5 4.334-2.485 0-4.5-1.94-4.5-4.334V67.334c0-2.393 2.015-4.334 4.5-4.334"/>
        </g>
        <g>
            <path fill="#FEDA6F" d="M316.685 89.019l-22.278 4.08c-.527.096-.91.55-.91 1.079v20.046a8.033 8.033 0 0 0-2.923-.543c-3.63 0-6.574 2.31-6.574 5.16s2.943 5.159 6.574 5.159c3.47 0 6.305-2.111 6.55-4.785h.024V98.923l17.202-3.105v13.92a8.033 8.033 0 0 0-2.924-.544c-3.63 0-6.574 2.31-6.574 5.16 0 2.849 2.944 5.159 6.574 5.159 3.47 0 6.305-2.111 6.55-4.786H318V90.097c0-.685-.631-1.203-1.315-1.078z"/>
            <path fill="#54C3C6" d="M82.198 94.027C79.872 90.795 76.094 89 72.175 89h-1.072a.697.697 0 0 0-.688.705v23.163a8.523 8.523 0 0 0-3.206-.619c-3.981 0-7.209 2.63-7.209 5.876 0 3.245 3.228 5.875 7.21 5.875 3.804 0 6.913-2.404 7.182-5.45h.026V94.977c8.947-.174 10.463 11.523 10.463 11.523.536-5.918-.802-9.859-2.683-12.473z"/>
        </g>
        <g>
            <path fill="#FFF" d="M299 308h82v-8h-82z"/>
            <path fill="#4A454C" d="M294 293v7.11h87.059v7.764H294V315h94v-22z"/>
            <path fill="#FFF" d="M302 290h77v-6h-77z"/>
            <path fill="#738694" d="M298 279v4.213h81.944v6.566H298V294h86v-15z"/>
            <path fill="#FFF" d="M307 274h68v-10h-68z"/>
            <path fill="#54C3C6" d="M302 259v20h77v-5.35h-71.713v-9.293H379V259z"/>
        </g>
        <g fill="#1FB2DF">
            <path d="M44 264H.2v38.76c0 6.49 5.7 11.776 12.7 11.776h18.4c7 0 12.7-5.285 12.7-11.776V264z"/>
            <path d="M42.2 303.224h-7.1v-4.359h7.1c3.4 0 6.1-2.503 6.1-5.656v-8.53c0-3.154-2.7-5.657-6.1-5.657h-7.1v-4.358h7.1c5.9 0 10.8 4.45 10.8 10.014v8.531c0 5.564-4.8 10.015-10.8 10.015z"/>
        </g>
    </g>
</svg>
