<svg xmlns="http://www.w3.org/2000/svg" xmlns:xlink="http://www.w3.org/1999/xlink" width="829" height="302" viewBox="0 0 829 302">
    <defs>
        <path id="a" d="M.297.414h107.726v67.1H.297z"/>
        <path id="c" d="M0 244h279.708V.414H0z"/>
        <path id="e" d="M0 .783h62.227v62.91H0z"/>
        <path id="g" d="M.21.124H40.88v87.773H.21z"/>
        <path id="i" d="M.86.124h39.017v87.015H.86z"/>
        <path id="k" d="M0 .848h55.861v49.34H0z"/>
    </defs>
    <g fill="none" fill-rule="evenodd">
        <g opacity=".22">
            <path fill="#D2DCEB" d="M549 153h280v-10H549z"/>
            <path fill="#D4DBEC" d="M566 295h240V154H566z"/>
            <path fill="#BACAE0" d="M566 169h240v-15H566z"/>
            <g transform="translate(549 51)">
                <g transform="translate(24.077)">
                    <mask id="b" fill="#fff">
                        <use xlink:href="#a"/>
                    </mask>
                    <path fill="#D4DBEC" d="M99.744 67.514H8.577c-4.574 0-8.28-3.721-8.28-8.314V8.726c0-4.59 3.706-8.312 8.28-8.312h91.167c4.572 0 8.28 3.721 8.28 8.312V59.2c0 4.593-3.708 8.314-8.28 8.314" mask="url(#b)"/>
                </g>
                <path fill="#BACAE0" d="M126.633.915a8.304 8.304 0 0 0-5.466 7.811V59.2a8.306 8.306 0 0 0 5.466 7.812A8.308 8.308 0 0 0 132.1 59.2V8.726a8.306 8.306 0 0 0-5.467-7.81"/>
                <path fill="#BABFE8" d="M96.726 84.984h-12.01v-45.53H60.823v52.564h35.903a3.51 3.51 0 0 0 3.502-3.517 3.51 3.51 0 0 0-3.502-3.517"/>
                <path fill="#BACAE0" d="M96.527 84.984h-11.81v-45.53H60.822v45.53c0 3.885 3.138 7.034 7.005 7.034h28.898a3.511 3.511 0 0 0 3.498-3.706c-.1-1.902-1.8-3.328-3.696-3.328"/>
                <path fill="#99B3D1" d="M100.228 88.501a3.51 3.51 0 0 0-3.502-3.517h-12.01v-45.53h-8.1v45.53c0 3.885 3.136 7.034 7.006 7.034h13.104a3.51 3.51 0 0 0 3.502-3.517"/>
                <path fill="#BACAE0" d="M100.688 5.452h-53.14a2.326 2.326 0 0 0-2.321 2.332 2.326 2.326 0 0 0 2.321 2.332h53.14a2.329 2.329 0 0 0 2.324-2.332 2.329 2.329 0 0 0-2.324-2.332"/>
                <mask id="d" fill="#fff">
                    <use xlink:href="#c"/>
                </mask>
                <path fill="#BBC9E0" d="M156.441 92.713h89.483V71.166H156.44z" mask="url(#d)"/>
                <path fill="#D4DBEC" d="M147.839 71.166h92.26V56.11h-92.26zM156.827 56.087h88.437V37.23h-88.437z" mask="url(#d)"/>
                <path fill="#BACAE0" d="M156.827 56.089h88.437V49.48h-88.437z" mask="url(#d)"/>
            </g>
        </g>
        <g opacity=".25">
            <g transform="translate(714)">
                <mask id="f" fill="#fff">
                    <use xlink:href="#e"/>
                </mask>
                <path fill="#D3DBEC" d="M62.227 32.238c0 17.372-13.931 31.456-31.114 31.456S0 49.61 0 32.238 13.93.783 31.113.783s31.114 14.083 31.114 31.455" mask="url(#f)"/>
            </g>
            <path fill="#EBF1F5" d="M769 33c0 12.702-10.298 23-23 23s-23-10.298-23-23 10.298-23 23-23 23 10.298 23 23"/>
            <path fill="#BACAE0" d="M737.968 43a.948.948 0 0 1-.733-.352 1.056 1.056 0 0 1 .1-1.437l6.73-6.11V19.018c0-.562.433-1.019.966-1.019.536 0 .969.457.969 1.019v16.547c0 .295-.122.577-.335.77l-7.065 6.416a.94.94 0 0 1-.632.248"/>
        </g>
        <g opacity=".2">
            <path fill="#BBCBE1" d="M67.795 242.718l1.325.282c1.558-4.231 2.967-10.757.678-17.612-3.901-11.687-5.775-26.407-13.241-37.459C46.356 172.832 43.907 140 43.907 140s-12.418 26.046-3.953 50.595c8.463 24.55 18.474 30.981 23.538 35.776 5.408 5.118 5.298 11.76 4.303 16.347"/>
            <path fill="#9BB3D2" d="M68.062 242.778l1.048.222c1.566-4.231 2.982-10.757.682-17.612-3.921-11.687-5.805-26.407-13.31-37.459C46.228 172.832 43.768 140 43.768 140s-6.902 35.1 1.092 47.463c7.992 12.363 8.357 9.352 14.1 21.098 5.742 11.746 7.558 15.078 9.304 21.906 1.118 4.37.436 9.305-.202 12.31"/>
            <path fill="#BBCBE1" d="M74.9 252.626s2.534-3.832 1.048-18.14c-1.487-14.308-5.545-27.993-3.27-43.596 2.274-15.602 19.06-55.178 19.15-57.788.087-2.61 4.445 45.537-4.221 64.72-8.665 19.185-9.762 25.8-9.516 35.787.247 9.988-.315 18.047-1.268 20.391l-1.923-1.374z"/>
            <path fill="#9BB3D2" d="M76.85 223.565c.906 6.37 1.298 22.386-.331 26.257-.152.361-.361.161-.616-.496.514-2.66.89-7.31.08-15.032-1.5-14.296-5.594-27.968-3.3-43.556C74.979 175.148 91.913 135.609 92 133c0 0-2.894 32.71-11.52 55.362-6.177 16.218-4.535 28.83-3.63 35.203"/>
            <g transform="translate(81 161)">
                <mask id="h" fill="#fff">
                    <use xlink:href="#g"/>
                </mask>
                <path fill="#BBCBE1" d="M2.417 87.897s-7.433-20.552 4.982-38.274C19.817 31.902 39.695 9.161 40.061.124c0 0 5.276 42.936-10.924 55.02-16.2 12.088-27.583 13.982-24.703 32.684l-2.017.069z" mask="url(#h)"/>
            </g>
            <g transform="translate(82 161)">
                <mask id="j" fill="#fff">
                    <use xlink:href="#i"/>
                </mask>
                <path fill="#9BB3D2" d="M18.714 46.482C.58 61.13-.848 78.076 2 85.95c.221.613.638.988 1.188 1.189-2.501-18.05 8.835-20.06 24.896-31.994C44.35 43.059 39.053.124 39.053.124s-2.207 31.71-20.34 46.358" mask="url(#j)"/>
            </g>
            <path fill="#BBCBE1" d="M62 253.815l-4.094-14.835C42.664 184.803 0 183 0 183c4.459.89 27.61 18.577 31.196 34.316 1.684 7.39 9.22 12.64 15.875 16.116 4.8 2.507 8.348 6.931 9.833 12.146a88.456 88.456 0 0 1 1.94 8.422l3.156-.185z"/>
            <g transform="translate(0 183)">
                <mask id="l" fill="#fff">
                    <use xlink:href="#k"/>
                </mask>
                <path fill="#9BB3D2" d="M38.724 35.544c4.978 9.488 11.388 13.343 17.137 14.644C39.285 2.523 0 .848 0 .848c.88.175 2.505 1.018 4.548 2.349 8.188 4.542 25.384 15.593 34.176 32.347" mask="url(#l)"/>
            </g>
            <path fill="#D4DBEC" d="M93.54 241H49.46c-5.262 0-9.246 4.833-8.328 10.102l7.915 45.377c.557 3.194 3.288 5.521 6.478 5.521h31.95c3.19 0 5.92-2.327 6.478-5.52l7.915-45.378c.918-5.269-3.066-10.102-8.329-10.102"/>
            <path fill="#BACAE0" d="M102 247c-1.003-3.414-4.254-6-8.227-6H49.228c-3.974 0-7.224 2.586-8.228 6h61z"/>
            <path fill="#BACAE0" d="M93.464 241H82.119c5.308 0 9.33 4.833 8.402 10.102l-7.986 45.377C81.975 299.673 79.219 302 76 302h11.345c3.22 0 5.973-2.327 6.536-5.52l7.986-45.378c.926-5.269-3.094-10.102-8.403-10.102"/>
            <g>
                <path fill="#D4DBEC" d="M168 295h97v-87h-97z"/>
                <path fill="#BACAE0" d="M175 236h82v-21h-82zM175 262h82v-21h-82zM175 289h82v-21h-82z"/>
                <g fill="#EAF0F6">
                    <path d="M221.25 225.895c0 2.266-1.927 4.104-4.304 4.104-2.377 0-4.304-1.838-4.304-4.104s1.927-4.102 4.304-4.102c2.377 0 4.304 1.836 4.304 4.102M221.25 251.8c0 2.268-1.927 4.105-4.304 4.105-2.377 0-4.304-1.837-4.304-4.104 0-2.266 1.927-4.103 4.304-4.103 2.377 0 4.304 1.837 4.304 4.103M221.25 280.443c0 2.266-1.927 4.103-4.304 4.103-2.377 0-4.304-1.837-4.304-4.103 0-2.267 1.927-4.104 4.304-4.104 2.377 0 4.304 1.837 4.304 4.104"/>
                </g>
            </g>
            <g>
                <path fill="#FFF" d="M252.991 3H99.01C94.033 3 90 7.024 90 11.99v99.02c0 4.966 4.033 8.99 9.009 8.99H252.99c4.976 0 9.009-4.024 9.009-8.99V11.99c0-4.966-4.033-8.99-9.009-8.99"/>
                <path fill="#EEF2F7" d="M99.274 114A2.282 2.282 0 0 1 97 111.714V12.286C97 11.026 98.02 10 99.274 10h153.45A2.283 2.283 0 0 1 255 12.286v99.428a2.283 2.283 0 0 1-2.275 2.286H99.274z"/>
                <path fill="#BACAE0" d="M252.72 10H208c2.414 11.665 11.529 49.934 30.534 69H255V12.286A2.286 2.286 0 0 0 252.72 10"/>
                <path fill="#D3DBEA" d="M239 78v10h15.74l.26-10z"/>
                <path fill="#BBCBE0" d="M255 110.701V88.155l-.272-.155h-16.435s-7.842 20.16-8.293 24.88l.272.12h22.414a2.309 2.309 0 0 0 2.314-2.299"/>
                <path fill="#BACAE0" d="M99.28 10H144c-2.414 11.665-11.529 49.934-30.534 69H97V12.286A2.286 2.286 0 0 1 99.28 10"/>
                <path fill="#D3DBEA" d="M113 78v10H97.26L97 78z"/>
                <path fill="#BACAE0" d="M97 110.701V88.155l.272-.155h16.435s7.84 20.16 8.293 24.88l-.272.12H99.314A2.309 2.309 0 0 1 97 110.701"/>
            </g>
        </g>
    </g>
</svg>
