<svg xmlns="http://www.w3.org/2000/svg" width="169" height="53" viewBox="0 0 169 53">
    <g fill="none" fill-rule="nonzero">
        <path class="icon-label" fill="#515151" d="M101.093 21.983h4.364V37.5h-4.364v-2.017c-1.559 2.327-3.585 2.483-4.832 2.483-4.832 0-7.949-3.725-7.949-8.225 0-4.655 3.117-8.224 7.637-8.224 1.247 0 3.585.155 4.988 2.483v-2.017h.156zm-8.105 7.758c0 2.483 1.715 4.345 4.364 4.345a4.265 4.265 0 0 0 3.12-1.24 4.226 4.226 0 0 0 1.244-3.105c0-2.482-1.714-4.344-4.364-4.344a4.265 4.265 0 0 0-3.12 1.239 4.226 4.226 0 0 0-1.244 3.105zm21.042-4.034V37.5h-4.364V25.707h-1.715v-3.724h1.715v-5.276h4.364v5.276h2.961v3.724h-2.961zm13.248 0c-1.09-.931-2.026-1.086-2.494-1.086-1.09 0-1.714.465-1.714 1.241 0 .466.156.931 1.403 1.397l1.09.31c1.248.465 3.118.931 3.897 2.172.468.621.78 1.552.78 2.638 0 1.397-.468 2.793-1.715 3.88-1.247 1.086-2.805 1.707-4.676 1.707-3.273 0-4.987-1.552-6.078-2.638l2.337-2.638c.936.93 2.183 1.862 3.43 1.862 1.246 0 2.182-.621 2.182-1.707 0-.931-.78-1.397-1.403-1.552l-.935-.31c-1.091-.466-2.338-.931-3.274-1.862-.779-.776-1.246-1.707-1.246-2.949 0-1.551.779-2.793 1.558-3.569 1.247-.93 2.806-1.086 4.053-1.086 1.09 0 2.961.155 4.987 1.707l-2.182 2.483zM136.786 24c1.559-2.172 3.74-2.483 4.988-2.483 4.52 0 7.637 3.57 7.637 8.224 0 4.656-3.117 8.225-7.793 8.225-.935 0-3.273-.156-4.988-2.483V37.5h-4.208V11.431h4.364V24zm-.468 5.741c0 2.483 1.715 4.345 4.365 4.345a4.265 4.265 0 0 0 3.119-1.24 4.226 4.226 0 0 0 1.245-3.105c0-2.482-1.715-4.344-4.364-4.344-2.65 0-4.365 1.862-4.365 4.344zm20.263 5.431l-7.482-13.19h5.144l4.832 8.846 4.364-8.845h4.987l-12.469 23.741h-4.987l5.61-10.552zM87.22 24.621h-10.91v4.345h5.767c-.936 2.948-3.118 4.965-7.17 4.965-4.52 0-7.793-3.724-7.793-8.224s3.117-8.38 7.637-8.38c2.494 0 4.988 1.242 6.546 3.26l3.585-2.328c-2.338-3.259-6.079-5.121-10.131-5.121-6.858 0-12.47 5.586-12.47 12.569 0 6.983 5.3 12.569 12.47 12.569 7.17 0 12.469-5.586 12.469-12.57.156-.465 0-.775 0-1.085z"/>
        <path fill="#FFF" d="M48.247 26.912H34.852v3.775h9.187c-1.34 5.662-5.551 10.38-11.1 12.268L10.926 21.25c2.297-6.606 8.804-11.308 16.268-11.308 5.742 0 10.909 2.83 14.163 7.173l2.871-2.468c-3.828-5.096-9.95-8.493-17.034-8.493-9.95 0-18.373 6.982-20.495 16.23l25.263 24.911c9.204-2.266 16.285-10.572 16.285-20.384zm-42.106.189c0 5.283 2.105 10.379 6.125 14.342 4.019 3.963 9.377 6.04 14.545 6.04L6.14 27.1z"/>
        <path fill="#639" d="M26.755 0C12.04 0 0 11.87 0 26.38c0 14.508 12.04 26.379 26.755 26.379 14.716 0 26.756-11.87 26.756-26.38C53.51 11.87 41.47 0 26.755 0zM11.85 41.078c-4.015-3.959-6.116-9.232-6.116-14.32l20.83 20.35c-5.35-.188-10.7-2.074-14.716-6.03h.002zm19.491 5.478L6.306 21.857C8.41 12.625 16.816 5.654 26.771 5.654c7.07 0 13.185 3.392 17.009 8.479l-2.867 2.464c-3.25-4.334-8.409-7.162-14.142-7.162-7.452 0-13.76 4.71-16.244 11.306l21.977 21.667c5.543-1.883 9.748-6.595 11.084-12.247h-9.186v-3.782H47.78c0 9.796-7.07 18.089-16.434 20.177h-.005z"/>
    </g>
</svg>
