<svg xmlns="http://www.w3.org/2000/svg" width="23" height="21" viewBox="0 0 23 21">
    <path fill-rule="evenodd" d="M10.453.044C9 .158 7.593.536 6.301 1.142c-1.89.894-3.296 2.082-4.467 3.755a10.361 10.361 0 0 0-1.696 4.02c-.186.947-.178 2.81.008 3.725.775 3.793 3.481 6.867 7.221 8.184.614.22.857.227 1.067.03.145-.136.161-.25.161-1.158v-1H7.569c-.888 0-1.09-.022-1.414-.166-.638-.272-1.066-.711-1.47-1.499-.355-.696-.808-1.219-1.365-1.59-.557-.37-.121-.659.67-.447.348.099.542.213.889.553.242.235.574.59.727.795.178.235.444.454.727.606.388.204.517.234 1.05.227.331-.008.743-.06.913-.114.283-.098.323-.159.485-.605.097-.265.258-.59.363-.712l.186-.22-.832-.166c-1.495-.295-2.343-.704-3.11-1.5-.792-.81-1.236-2.073-1.236-3.527 0-1.135.234-1.862.864-2.665l.275-.356-.097-.462c-.17-.825.064-2.286.388-2.4.339-.12 1.712.348 2.633.901l.38.227.75-.136c1.035-.197 3.272-.204 4.306-.007l.735.143.711-.386c.792-.424 1.519-.674 2.052-.704l.363-.023.154.379c.202.485.275 1.56.137 2.067l-.097.386.364.515c.646.923.743 1.257.743 2.559-.008.954-.032 1.234-.186 1.741-.452 1.476-1.413 2.438-2.94 2.96-.194.069-.72.197-1.18.288l-.832.167.178.204c.097.121.25.394.34.606.16.355.177.575.201 2.362.017 1.317.057 1.999.122 2.067.274.318.654.257 1.963-.326 1.575-.689 3.198-1.938 4.273-3.286 1.001-1.241 1.81-2.998 2.108-4.55.186-.961.186-2.672 0-3.634-.468-2.43-1.915-4.8-3.886-6.352a12.078 12.078 0 0 0-8.52-2.574z"/>
</svg>
