<svg xmlns="http://www.w3.org/2000/svg" width="120" height="56" viewBox="0 0 120 56">
    <path fill="#99424F" fill-rule="nonzero" d="M50.469 27.543c0-3.299-2.276-6.16-5.527-6.995L52.054 0H16.78l7.152 20.588c-3.17.914-5.364 3.736-5.364 6.955 0 2.424 1.26 4.57 3.13 5.882-.732 1.033-1.626 1.987-2.601 2.901-1.83 1.67-3.861 2.981-6.096 3.856-1.991-1.312-2.845-3.617-2.073-5.684 3.008-.914 5.243-3.696 5.243-6.915 0-4.015-3.333-7.234-7.396-7.234-4.105 0-7.397 3.26-7.437 7.273a7.07 7.07 0 0 0 2.154 5.088l-.366.715C2.029 35.651.769 38.195.28 41.016c-.975 5.644.61 10.215 4.39 12.798C6.823 55.244 9.14 56 11.7 56c4.348 0 8.777-2.146 13.044-4.213 3.048-1.47 6.177-3.02 9.306-3.776 1.138-.278 2.317-.437 3.576-.596 2.56-.358 5.202-.715 7.559-2.067 2.763-1.59 4.633-4.212 5.202-7.193.406-2.305 0-4.65-1.057-6.677.772-1.272 1.178-2.584 1.138-3.935zm-3.21 0c0 2.265-1.87 4.094-4.186 4.094-2.317-.04-4.186-1.868-4.145-4.134 0-.675.203-1.351.528-1.947.122-.239.284-.437.447-.636a2.3 2.3 0 0 1 .569-.517c.122-.08.284-.199.447-.278a.892.892 0 0 0 .203-.12h.04a.587.587 0 0 1 .245-.079c.08-.04.162-.08.243-.08h.041c.081 0 .122-.039.203-.079h.082l.243-.04.244-.04h1.016c.122 0 .285.04.407.08 1.95.16 3.332 1.828 3.372 3.776zM21.371 3.219h26.049l-5.974 17.25a5 5 0 0 0-.731.198l-6.3-12.52-6.298 12.48c-.244-.08-.528-.119-.772-.159L21.372 3.22zm11.866 22.893a7.31 7.31 0 0 0-2.235-3.895l3.414-6.756 3.454 6.915a7.438 7.438 0 0 0-2.072 3.736h-2.56zm-8.33-2.544l.244-.04h.04c.081 0 .122 0 .203-.039h1.138c.081 0 .122 0 .163.04h.081l.244.04c.081 0 .162.04.203.079h.081c.041 0 .122.04.163.08h.04c.082.04.122.04.204.079.081.04.162.08.203.12.081.039.162.079.203.118h.04a.56.56 0 0 1 .163.12c.203.159.366.318.57.477.162.198.324.357.446.596.447.675.691 1.43.691 2.225 0 2.266-1.87 4.094-4.186 4.094a4.16 4.16 0 0 1-4.185-4.094c.122-1.828 1.463-3.457 3.25-3.895zM8.653 23.45c2.316 0 4.185 1.829 4.185 4.094 0 2.265-1.869 4.054-4.185 4.094a4.16 4.16 0 0 1-4.186-4.094c0-2.265 1.87-4.094 4.186-4.094zm38.484 14.03c-.366 2.067-1.667 3.895-3.577 4.968-1.788 1.033-4.023 1.351-6.34 1.67-1.259.158-2.6.357-3.9.675-3.454.835-6.746 2.464-9.957 4.014-4.104 1.987-7.965 3.855-11.581 3.855-1.87 0-3.536-.516-5.12-1.59-3.658-2.463-3.495-7.074-3.048-9.617.406-2.345 1.503-4.571 2.56-6.717.081-.12.122-.239.162-.358.366.12.772.238 1.138.278-.61 3.418 1.179 6.995 4.633 8.744l.61.318.69-.239c2.886-.993 5.568-2.623 7.965-4.809a21.928 21.928 0 0 0 3.454-4.014c.366.04.773.08 1.138.08 3.373 0 6.3-2.226 7.153-5.406h2.763c.813 3.14 3.739 5.406 7.152 5.406 1.3 0 2.6-.358 3.739-.994.487 1.232.61 2.504.366 3.736zm26.536-1.749a5.588 5.588 0 0 1-1.138 2.027c-.528.596-1.26 1.034-2.154 1.391-.894.358-1.99.517-3.291.517-2.195 0-3.86-.556-5.04-1.67-1.178-1.112-1.747-2.781-1.747-4.967v-1.391h3.13v.993c0 .636.04 1.232.162 1.828.122.557.284 1.034.569 1.431.284.398.69.755 1.138.954.487.239 1.137.358 1.869.358 1.422 0 2.398-.358 2.967-1.113.528-.755.812-1.749.812-3.02V16.215h3.13v17.249a8.865 8.865 0 0 1-.407 2.265zM90.7 38.115c-1.26.954-2.885 1.391-4.795 1.391-1.341 0-2.52-.199-3.536-.636-.975-.397-1.828-1.033-2.52-1.788-.69-.795-1.178-1.67-1.503-2.782-.365-1.074-.528-2.226-.569-3.498 0-1.272.204-2.424.61-3.458a8.333 8.333 0 0 1 1.666-2.742 7.434 7.434 0 0 1 2.52-1.789c.975-.437 2.032-.636 3.21-.636 1.504 0 2.763.318 3.78.915 1.015.596 1.787 1.39 2.397 2.344a9.59 9.59 0 0 1 1.26 3.06c.203 1.034.325 2.107.284 3.18H80.825c-.04.716.082 1.391.244 2.067.203.636.528 1.232.975 1.71a4.54 4.54 0 0 0 1.667 1.191c.69.318 1.462.438 2.397.438 1.179 0 2.154-.279 2.926-.795.772-.517 1.26-1.352 1.504-2.464H93.3c-.488 1.907-1.3 3.338-2.6 4.292zm-.65-10.652a4.36 4.36 0 0 0-1.016-1.47 4.69 4.69 0 0 0-1.504-.994 4.945 4.945 0 0 0-1.91-.357c-.731 0-1.381.119-1.95.357-.57.239-1.057.596-1.504.994a5.985 5.985 0 0 0-1.016 1.47c-.243.557-.365 1.153-.447 1.829h9.753c-.04-.636-.162-1.272-.406-1.829zm8.412 7.99c.244.397.61.754 1.016.993.447.238.935.437 1.422.516.529.12 1.097.16 1.666.16.447 0 .935-.04 1.382-.08.447-.04.894-.16 1.341-.358.407-.159.732-.437 1.016-.755.244-.318.406-.755.406-1.272 0-.715-.284-1.232-.812-1.59-.529-.357-1.22-.675-2.073-.874l-2.682-.596a11.056 11.056 0 0 1-2.682-.795 6.097 6.097 0 0 1-2.073-1.391c-.528-.596-.812-1.43-.812-2.504 0-.835.203-1.55.569-2.146.365-.596.894-1.073 1.463-1.47a7.734 7.734 0 0 1 2.031-.835c.732-.16 1.504-.279 2.236-.279.894 0 1.788.08 2.682.239a6.377 6.377 0 0 1 2.153.835c.61.397 1.138.953 1.504 1.59.366.675.61 1.51.65 2.543h-2.804c-.04-.517-.162-.994-.447-1.312-.244-.357-.569-.636-.934-.874a5.528 5.528 0 0 0-1.22-.477c-.447-.08-.894-.159-1.34-.159-.407 0-.854.04-1.26.08-.407.04-.772.159-1.179.357-.325.16-.61.358-.853.636a1.659 1.659 0 0 0-.325 1.034c0 .476.162.874.528 1.152.325.318.772.557 1.3.795.529.199 1.098.358 1.748.517l1.95.437c.691.159 1.382.318 2.073.556.61.2 1.219.477 1.747.875.529.357.935.795 1.26 1.311.325.517.488 1.193.488 1.988 0 .993-.203 1.828-.65 2.503-.407.636-1.016 1.193-1.667 1.59a7.334 7.334 0 0 1-2.316.875c-.853.159-1.707.238-2.6.238-.895 0-1.83-.08-2.683-.278a6.027 6.027 0 0 1-2.276-.954c-.65-.437-1.178-1.033-1.584-1.71-.407-.714-.61-1.589-.65-2.622h2.803c.082.596.204 1.113.488 1.51zM120 22.574v2.424h-3.373v10.334c0 .318.04.596.081.795.041.198.163.357.325.437.163.08.366.159.65.199.285.04.61.04 1.057.04H120v2.424h-2.154c-.731 0-1.34-.04-1.87-.16a2.785 2.785 0 0 1-1.259-.516c-.325-.238-.528-.596-.731-1.073-.163-.477-.244-1.073-.244-1.868V25.04h-2.885v-2.424h2.885v-4.968h2.804v4.968l3.454-.04z"/>
</svg>
