<svg xmlns="http://www.w3.org/2000/svg" width="25" height="25" viewBox="0 0 25 25">
    <g fill="#9BA0AD" fill-rule="evenodd">
        <path d="M12.272 6.124a6.155 6.155 0 0 0-6.148 6.148 6.155 6.155 0 0 0 6.148 6.148 6.155 6.155 0 0 0 6.147-6.148 6.155 6.155 0 0 0-6.147-6.148zM12.272 4.317a1.2 1.2 0 0 1-1.2-1.199V1.2a1.2 1.2 0 1 1 2.4 0v1.92a1.2 1.2 0 0 1-1.2 1.198zM12.272 20.226a1.2 1.2 0 0 0-1.2 1.199v1.918a1.2 1.2 0 1 0 2.4 0v-1.918a1.2 1.2 0 0 0-1.2-1.2zM17.896 6.647a1.2 1.2 0 0 1 0-1.696l1.357-1.357a1.2 1.2 0 0 1 1.696 1.696l-1.357 1.357a1.2 1.2 0 0 1-1.696 0zM6.647 17.897a1.198 1.198 0 0 0-1.696 0l-1.357 1.356A1.2 1.2 0 0 0 5.29 20.95l1.357-1.357a1.198 1.198 0 0 0 0-1.695zM20.226 12.272a1.2 1.2 0 0 1 1.199-1.2h1.919a1.2 1.2 0 1 1 0 2.399h-1.919c-.663 0-1.2-.537-1.2-1.2zM4.317 12.272a1.2 1.2 0 0 0-1.2-1.2H1.2a1.2 1.2 0 1 0 0 2.399h1.92c.661 0 1.198-.537 1.198-1.2zM17.896 17.897a1.2 1.2 0 0 1 1.696 0l1.357 1.357a1.199 1.199 0 1 1-1.696 1.695l-1.357-1.357a1.199 1.199 0 0 1 0-1.695zM6.647 6.647a1.2 1.2 0 0 0 0-1.696L5.29 3.595A1.2 1.2 0 0 0 3.594 5.29l1.357 1.357a1.198 1.198 0 0 0 1.696 0z"/>
    </g>
</svg>
