<svg xmlns="http://www.w3.org/2000/svg" viewBox="0 0 25 25"><path d="M12.272 6.124a6.155 6.155 0 00-6.148 6.148 6.155 6.155 0 006.148 6.148 6.155 6.155 0 006.147-6.148 6.155 6.155 0 00-6.147-6.148zm0-1.807a1.2 1.2 0 01-1.2-1.199V1.2a1.2 1.2 0 112.4 0v1.92a1.2 1.2 0 01-1.2 1.198zm0 15.909a1.2 1.2 0 00-1.2 1.199v1.918a1.2 1.2 0 102.4 0v-1.918a1.2 1.2 0 00-1.2-1.2zm5.624-13.579a1.2 1.2 0 010-1.696l1.357-1.357a1.2 1.2 0 011.696 1.696l-1.357 1.357a1.2 1.2 0 01-1.696 0zM6.647 17.897a1.198 1.198 0 00-1.696 0l-1.357 1.356A1.2 1.2 0 005.29 20.95l1.357-1.357a1.198 1.198 0 000-1.695zm13.579-5.625a1.2 1.2 0 011.199-1.2h1.919a1.2 1.2 0 110 2.399h-1.919a1.2 1.2 0 01-1.2-1.2zm-15.909 0a1.2 1.2 0 00-1.2-1.2H1.2a1.2 1.2 0 100 2.399h1.92a1.2 1.2 0 001.198-1.2zm13.579 5.625a1.2 1.2 0 011.696 0l1.357 1.357a1.199 1.199 0 11-1.696 1.695l-1.357-1.357a1.199 1.199 0 010-1.695zM6.647 6.647a1.2 1.2 0 000-1.696L5.29 3.595A1.2 1.2 0 003.594 5.29l1.357 1.357a1.198 1.198 0 001.696 0z" fill="#9BA0AD" fill-rule="evenodd"/></svg>