<svg xmlns="http://www.w3.org/2000/svg" width="23" height="21" viewBox="0 0 23 21">
    <g fill-rule="evenodd">
        <path d="M0 7h5.194v14H0zM21.464 7.945C20.44 6.848 19.087 6.3 17.405 6.3c-.62 0-1.185.075-1.691.225-.507.15-.935.359-1.284.632-.35.27-.628.522-.833.754-.197.22-.39.477-.577.768V6.632H8.164l.013.695c.01.463.014 1.895.014 4.292s-.009 5.523-.03 9.379h4.857v-8.016c0-.493.053-.884.162-1.175a3.06 3.06 0 0 1 .937-1.238c.419-.334.937-.5 1.557-.5.847 0 1.47.289 1.868.864.398.574.597 1.37.597 2.385V21H23v-8.236c0-2.115-.511-3.722-1.536-4.82zM2.984 0C2.097 0 1.378.231.827.694.274 1.159 0 1.743 0 2.45c0 .696.266 1.28.802 1.747.535.467 1.24.703 2.117.703h.032c.898 0 1.624-.234 2.175-.703.55-.467.82-1.05.81-1.747A2.278 2.278 0 0 0 5.117.694C4.583.23 3.871 0 2.984 0z"/>
    </g>
</svg>
