<svg xmlns="http://www.w3.org/2000/svg" width="165" height="48" viewBox="0 0 165 48">
    <g fill="none" fill-rule="nonzero">
        <path fill="#83CD29" d="M151.498 17c-.41 0-.81.086-1.163.29l-11.172 6.57c-.724.424-1.163 1.226-1.163 2.078v13.117c0 .852.44 1.652 1.163 2.077l2.917 1.712c1.418.712 1.941.7 2.586.7 2.099 0 3.297-1.296 3.297-3.55V27.053c0-.183-.155-.314-.332-.314h-1.4c-.179 0-.331.134-.331.314V40c0 1-1.022 2.005-2.68 1.16l-3.034-1.812c-.107-.059-.19-.167-.19-.29V25.942c0-.124.082-.25.19-.314l11.15-6.546a.324.324 0 0 1 .331 0l11.15 6.546c.106.065.19.186.19.314V39.06a.366.366 0 0 1-.167.314l-11.172 6.546a.338.338 0 0 1-.332 0l-2.87-1.739a.294.294 0 0 0-.285 0c-.793.458-.942.51-1.684.773-.183.065-.462.166.095.484l3.748 2.25c.356.21.754.313 1.162.313.414 0 .806-.1 1.163-.314l11.172-6.547A2.412 2.412 0 0 0 165 39.062V25.945c0-.852-.44-1.652-1.163-2.078l-11.172-6.57a2.296 2.296 0 0 0-1.163-.29l-.004-.007zm2.989 9.373c-3.182 0-5.076 1.379-5.076 3.672 0 2.484 1.88 3.17 4.934 3.478 3.653.364 3.938.91 3.938 1.643 0 1.27-.995 1.811-3.345 1.811-2.953 0-3.602-.75-3.82-2.249-.025-.16-.146-.29-.308-.29h-1.45a.343.343 0 0 0-.332.338c0 1.915 1.022 4.18 5.907 4.18 3.535 0 5.574-1.41 5.574-3.89 0-2.45-1.647-3.113-5.076-3.576-3.462-.47-3.796-.695-3.796-1.521 0-.683.28-1.595 2.847-1.595 2.292 0 3.14.503 3.487 2.077.03.148.158.269.308.269h1.451c.09 0 .175-.056.237-.12.061-.07.104-.149.095-.243-.224-2.71-1.999-3.986-5.574-3.986l-.001.002z"/>
        <path class="icon-label" fill="#515151" d="M86.814 0a.69.69 0 0 0-.346.094.712.712 0 0 0-.345.61v17.922a.474.474 0 0 1-.715.422l-2.882-1.687a1.362 1.362 0 0 0-1.383 0L69.641 24.11c-.43.252-.693.737-.693 1.241v13.495c0 .503.264.967.692 1.218l11.503 6.748c.428.252.956.252 1.383 0l11.503-6.748c.429-.25.693-.715.692-1.218V5.202c0-.512-.275-.993-.714-1.242L87.16.07a.669.669 0 0 0-.346-.07zM12.817 16.846c-.22.009-.426.047-.623.164L.691 23.757c-.429.25-.692.715-.691 1.218l.023 18.111c0 .252.129.486.346.609a.66.66 0 0 0 .692 0l6.823-3.983c.433-.26.715-.715.715-1.218v-8.458c0-.505.26-.967.692-1.218l2.904-1.71c.21-.124.449-.189.692-.188.243-.001.482.064.691.188l2.904 1.71c.43.25.691.713.691 1.217v8.458c0 .503.289.96.715 1.218l6.823 3.983a.66.66 0 0 0 .692 0 .708.708 0 0 0 .346-.61l.023-18.11a1.398 1.398 0 0 0-.692-1.218L13.578 17.01a1.276 1.276 0 0 0-.623-.164h-.138zm103.365.164c-.242-.001-.481.064-.691.187l-11.503 6.748c-.43.252-.692.714-.692 1.218v13.495c0 .507.281.967.714 1.217l11.41 6.61c.422.245.936.263 1.36.023l6.917-3.912a.696.696 0 1 0 .022-1.218l-11.573-6.748a.759.759 0 0 1-.368-.632v-4.22c0-.252.154-.483.368-.61l3.597-2.108a.682.682 0 0 1 .692 0l3.597 2.109a.702.702 0 0 1 .346.609v3.327c0 .251.131.483.346.609a.678.678 0 0 0 .692 0l6.892-4.076c.428-.253.692-.716.692-1.218v-3.256c0-.503-.264-.967-.692-1.218l-11.434-6.748a1.354 1.354 0 0 0-.691-.188zM81.788 27.085c.065 0 .128.015.185.046l3.942 2.32c.107.062.184.179.184.304v4.639a.362.362 0 0 1-.184.304l-3.942 2.32a.346.346 0 0 1-.346 0l-3.942-2.32a.363.363 0 0 1-.184-.304v-4.64c0-.125.077-.24.184-.304l3.942-2.32a.299.299 0 0 1 .161-.046z"/>
        <path fill="#83CD29" d="M47.865 18c-.243 0-.48.063-.69.183L35.69 24.726c-.429.245-.69.717-.69 1.208v13.131c-.001.49.262.942.69 1.185l11.484 6.566c.427.245.954.245 1.38 0L60.04 40.25c.428-.244.69-.696.69-1.185V25.934c0-.492-.26-.964-.69-1.209l-11.484-6.542a1.376 1.376 0 0 0-.691-.183zm68.673 11.718c-.046 0-.097 0-.138.023l-2.21 1.276a.266.266 0 0 0-.138.228v2.508c0 .095.056.18.139.228l2.209 1.254a.242.242 0 0 0 .253 0l2.209-1.254a.268.268 0 0 0 .138-.228v-2.508a.268.268 0 0 0-.138-.228l-2.21-1.277c-.04-.024-.069-.022-.115-.022h.001z"/>
    </g>
</svg>
