<svg xmlns="http://www.w3.org/2000/svg" width="168" height="42" viewBox="0 0 168 42">
    <g fill="none" fill-rule="evenodd">
        <path fill="#A98258" d="M42.544 11.586L35.303 0H7.786L.544 11.586V42h42z"/>
        <path fill="#DAAE86" d="M.544 11.586h42L35.303 0H7.786z"/>
        <path fill="#D8B18B" d="M17.2 37.655V42h8.69v-4.345l-1.449 1.448-2.897-2.896-2.896 2.896z"/>
        <path fill="#E8D5B2" d="M15.027 21.724h13.035V33.31H15.027z"/>
        <path fill="#D4C3A5" fill-rule="nonzero" d="M22.269 29.69h-4.345a.724.724 0 0 0 0 1.448h4.345a.724.724 0 1 0 0-1.448zm2.896 0h-.724a.724.724 0 0 0 0 1.448h.724a.724.724 0 0 0 0-1.448zm-4.345-4.345h4.345a.724.724 0 0 0 0-1.448H20.82a.724.724 0 1 0 0 1.448zm4.345 1.448h-1.448a.724.724 0 0 0 0 1.448h1.448a.724.724 0 0 0 0-1.448zm-7.241 1.448h1.448a.724.724 0 0 0 0-1.448h-1.448a.724.724 0 0 0 0 1.448zm0-2.896h.724a.724.724 0 0 0 0-1.448h-.724a.724.724 0 0 0 0 1.448zm3.114 1.665a.746.746 0 0 0-.218.507c0 .196.073.377.218.507a.76.76 0 0 0 .506.217.76.76 0 0 0 .515-.21.76.76 0 0 0 .21-.514.76.76 0 0 0-.21-.514.76.76 0 0 0-1.029 0l.008.007z"/>
        <path fill="#F4D5BD" d="M17.2 0h8.69v11.586H17.2z"/>
        <path fill="#D8B18B" d="M25.89 16.655v-5.069H17.2v5.07l1.448-1.45 2.896 2.897 2.897-2.896z"/>
        <path fill="#A98258" fill-rule="nonzero" d="M64.425 9.114c2.712 0 4.584 1.913 4.584 4.681v6.018c0 2.77-1.874 4.68-4.584 4.68h-7.231v8.376h-4.65V9.114h11.88zm2.568 5.143c0-2.045-1.163-3.231-3.163-3.231H54.53v19.913h.647v-8.375h8.653c2.002 0 3.164-1.188 3.164-3.231l-.002-5.076zm-3.163-2.572c1.613 0 2.518.922 2.518 2.572v5.091c0 1.648-.903 2.572-2.518 2.572h-8.652V11.7l8.652-.015zm-.582 8.308c.71 0 1.098-.395 1.098-1.121v-4.154c0-.725-.386-1.122-1.098-1.122h-6.07v6.396l6.07.001zM74.05 32.852h-4.81L76.73 9.114h5.44l7.489 23.738H84.64l-1.517-5.342H75.6l-1.549 5.342zM86.9 30.939l-5.946-19.913h-2.97l-6.07 19.913h.614l1.614-5.342h10.576L86.3 30.94h.6zm-8.556-19.256l-4.035 13.27h10.202l-3.97-13.27h-2.197zm1.065 2.623l2.454 8.702h-4.928l2.474-8.702zm25.47 18.546l-3.748-8.802h-3.747v8.802H92.74V9.114h11.848c2.713 0 4.585 1.913 4.585 4.681v5.555c0 2.242-1.227 3.923-3.164 4.484l3.874 9-5.004.018zm2.033-1.913l-3.747-8.77h.84c2.002 0 3.164-1.188 3.164-3.231v-4.683c0-2.044-1.163-3.23-3.164-3.23H94.74v19.912h.645V22.17h7.101l3.747 8.77.68-.001zm-.387-12.001c0 1.648-.903 2.572-2.518 2.572h-8.62v-9.825h8.62c1.613 0 2.518.922 2.518 2.572v4.68zm-3.097.694c.71 0 1.099-.395 1.099-1.121v-3.793c0-.725-.387-1.122-1.099-1.122H97.39v6.018l6.038.018zm21.63-5.045c0-.725-.386-1.122-1.098-1.122h-5.02c-.71 0-1.1.395-1.1 1.122v12.806c0 .725.388 1.12 1.1 1.12h5.035c.71 0 1.099-.395 1.099-1.12v-2.9h4.649v3.826c0 2.77-1.874 4.681-4.584 4.681h-7.378c-2.712 0-4.584-1.913-4.584-4.681V13.68c0-2.77 1.873-4.681 4.584-4.681h7.361c2.712 0 4.584 1.913 4.584 4.681v3.827h-4.647v-2.921zm-.516-3.033c1.613 0 2.519.922 2.519 2.572v1.516h.642v-1.516c0-2.045-1.164-3.231-3.164-3.231h-6.2c-2.002 0-3.163 1.188-3.163 3.23v13.732c0 2.045 1.163 3.231 3.163 3.231h6.2c2.002 0 3.164-1.188 3.164-3.23v-1.45h-.645v1.45c0 1.647-.904 2.572-2.52 2.572h-6.199c-1.613 0-2.518-.923-2.518-2.573V14.126c0-1.648.903-2.572 2.518-2.572h6.203zm24.503-2.438v4.483h-10.557v4.88h8.556v4.483h-8.556v5.406h10.557v4.484h-15.208V9.114l15.208.002zm-2.002 21.823v-.66h-10.557v-9.23h8.556v-.66h-8.556v-8.701h10.557v-.66h-11.204v19.914l11.204-.003zm10.751-21.825V28.37h9.75v4.483h-14.399V9.114h4.65zm7.748 21.826v-.659h-9.75V11.026h-.645v19.913l10.395.001z"/>
    </g>
</svg>
