<svg xmlns="http://www.w3.org/2000/svg" width="167" height="44" viewBox="0 0 167 44">
    <g fill="none" fill-rule="evenodd">
        <g fill="#764ABC">
            <path d="M24.272 15.676c.86.012 1.624.046 2.123.09 2.15.187 4.162.613 5.85 1.197 2.58.893 4.981 2.215 7.205 3.966 1.878 1.67 3.152 3.038 3.819 4.1.396.631 1.094 1.633 1.624 2.943.148.365.37.894.574 1.592.086.297.21.812.374 1.544.098.931.15 1.591.156 1.98.013.809-.077 1.477-.156 1.959a8.78 8.78 0 0 1-.512 1.906c-.112.277-.331.72-.659 1.327-.934 1.351-1.957 2.418-3.07 3.201-1.112.783-2.534 1.443-4.264 1.98-1.479.472-3.285.607-5.42.405-.966-.092-2.079-.351-3.042-.638-.638-.19-1.545-.547-2.72-1.071l2.62-2.098c.658.27 1.14.454 1.448.55a15.86 15.86 0 0 0 2.023.466c.447.08.983.144 1.616.17.322.013.862.013 1.618 0 .757-.117 1.29-.216 1.6-.299a8.442 8.442 0 0 0 1.872-.746c.433-.232.97-.552 1.495-1.027.233-.211.583-.593 1.051-1.145.602-.879.995-1.518 1.18-1.917.313-.681.43-1.38.511-1.855.096-.56.199-1.305.08-2.206-.046-.358-.192-.951-.438-1.779-.393-1.188-.837-2.154-1.333-2.897-.744-1.115-1.28-1.797-1.753-2.345-.527-.61-1.355-1.388-2.408-2.176-.428-.32-1.153-.805-2.178-1.456-.989-.55-1.749-.94-2.28-1.169a23.962 23.962 0 0 0-3.528-1.191 23.127 23.127 0 0 0-3.678-.543c-.375-.023-1.016-.097-1.656-.09-.227.003-.56.024-1 .063a3.27 3.27 0 0 1-3.01 1.993 3.274 3.274 0 0 1-3.269-3.277 3.268 3.268 0 1 1 6.174-1.507c.616-.004 1.07-.004 1.361 0z"/>
            <path d="M31.009 32.13c-.44.74-.852 1.387-1.14 1.799-1.237 1.773-2.612 3.306-3.961 4.48-2.062 1.793-4.405 3.217-7.031 4.271-2.384.796-4.201 1.218-5.454 1.266-.743.029-1.958.134-3.356-.061-.389-.054-.957-.125-1.662-.298-.3-.074-.807-.223-1.522-.447-.854-.38-1.45-.666-1.789-.855a10.804 10.804 0 0 1-1.615-1.114 8.753 8.753 0 0 1-1.39-1.398c-.185-.236-.457-.648-.819-1.236C.57 37.051.16 35.63.04 34.272c-.12-1.358.02-2.922.422-4.693.331-1.52 1.118-3.155 2.36-4.907.563-.793 1.344-1.63 2.074-2.323.483-.459 1.245-1.067 2.286-1.826l.503 3.325c-.564.435-.964.762-1.2.98a15.92 15.92 0 0 0-1.415 1.525 12.13 12.13 0 0 0-.955 1.318c-.172.273-.442.741-.809 1.404-.278.716-.459 1.23-.543 1.54a8.491 8.491 0 0 0-.29 1.997 7.358 7.358 0 0 0 .14 1.812c.065.307.22.802.463 1.485.458.962.813 1.622 1.067 1.982.432.613.977 1.063 1.347 1.372.435.363 1.028.825 1.866 1.173.333.138.918.308 1.756.508 1.224.253 2.28.35 3.171.292 1.336-.089 2.194-.213 2.904-.35.79-.153 1.877-.482 3.085-1.003.49-.211 1.272-.599 2.348-1.162.97-.584 1.686-1.049 2.15-1.395a24.029 24.029 0 0 0 2.795-2.468 23.23 23.23 0 0 0 2.308-2.922c.208-.314.592-.833.906-1.392.111-.198.26-.498.446-.9a3.284 3.284 0 0 1-.217-3.609 3.267 3.267 0 0 1 4.468-1.2 3.281 3.281 0 0 1 1.197 4.478 3.269 3.269 0 0 1-2.983 1.636 73.84 73.84 0 0 1-.681 1.182z"/>
            <path d="M12.463 28.833a32.045 32.045 0 0 1-.952-1.904c-.88-1.976-1.483-3.946-1.791-5.708-.472-2.694-.483-5.439-.033-8.236.547-2.457 1.122-4.235 1.726-5.335.358-.653.894-1.75 1.78-2.85.248-.306.6-.757 1.112-1.274.217-.22.606-.578 1.165-1.076.766-.538 1.317-.903 1.653-1.097.7-.403 1.326-.648 1.784-.812A8.73 8.73 0 0 1 20.82.066c.297-.037.79-.059 1.478-.066 1.632.164 3.06.544 4.282 1.14 1.223.595 2.488 1.521 3.796 2.778 1.13 1.067 2.123 2.584 2.981 4.553.389.892.702 1.993.92 2.976.143.651.271 1.619.384 2.904l-3.102-1.28a19.785 19.785 0 0 0-.221-1.536 15.95 15.95 0 0 0-.575-2c-.148-.43-.351-.93-.636-1.498a32.156 32.156 0 0 0-.785-1.418c-.469-.607-.814-1.026-1.036-1.258a8.46 8.46 0 0 0-1.559-1.278 7.321 7.321 0 0 0-1.621-.813c-.297-.102-.8-.224-1.509-.367-1.059-.102-1.807-.136-2.245-.104-.747.055-1.413.292-1.867.45-.534.187-1.235.459-1.964.999-.29.214-.736.63-1.34 1.246-.846.92-1.473 1.778-1.882 2.573-.612 1.192-.948 1.992-1.196 2.672-.277.759-.554 1.86-.73 3.166-.072.53-.144 1.4-.216 2.614 0 1.133.028 1.988.086 2.565.138 1.382.441 2.846.671 3.67.234.838.69 2.179 1.31 3.486.162.34.408.938.725 1.495.112.198.292.48.54.847a3.27 3.27 0 0 1 3.198 1.67 3.28 3.28 0 0 1-1.275 4.455 3.267 3.267 0 0 1-4.445-1.277 3.281 3.281 0 0 1 .137-3.404 73.813 73.813 0 0 1-.66-1.193z"/>
        </g>
        <g class="icon-label" fill="#515151">
            <path fill-rule="nonzero" d="M70 9.756h9.744c.826.039 1.433.089 1.82.15.387.06.941.193 1.662.397 1.054.379 1.825.718 2.313 1.02.487.3 1.112.822 1.875 1.566.608.905 1.004 1.653 1.188 2.245.183.593.304 1.51.36 2.755-.093 1.255-.255 2.188-.484 2.798-.23.61-.736 1.457-1.521 2.54-.523.546-.95.93-1.28 1.154-.33.224-.947.56-1.85 1.006.34.235.583.413.73.533.146.12.34.302.58.546l.709.895 5.46 9.254h-5.767c-.471-.027-.799-.087-.982-.178-.184-.092-.427-.318-.73-.678l-4.51-8.06c-.276-.416-.484-.675-.624-.777-.14-.103-.386-.173-.736-.212h-1.956v9.905H70V9.755zm6.016 4.647v7.99h2.825c2.768-.234 4.157-1.593 4.166-4.078.01-2.484-1.38-3.788-4.166-3.912h-2.825z"/>
            <path fill-rule="nonzero" d="M99.069 17.194c2.849 0 5.052 1.008 6.61 3.025 1.557 2.017 2.1 4.443 1.626 7.279-.111.286-.25.46-.414.523-.164.063-.569.095-1.212.096H95.557c.165 2.286 1.05 3.729 2.654 4.327 1.42.53 3.116.238 5.156-.82.176-.09.456-.231.841-.42.329-.08.577-.11.746-.088.168.021.382.11.642.264l1.709 2.282c-.895 1.24-2.207 2.144-3.938 2.709-1.73.565-3.493.74-5.288.522-2.567-.348-4.563-1.425-5.987-3.231-1.424-1.807-2.151-4.09-2.18-6.852-.043-2.49.717-4.686 2.28-6.591 1.563-1.905 3.855-2.913 6.877-3.025zM95.6 24.756h6.866c0-1.127-.3-2.022-.902-2.686-.602-.664-1.445-.968-2.53-.911-1.116.066-1.932.426-2.45 1.08-.517.656-.845 1.494-.984 2.517zM120.852 9.006h5.54v27.608h-3.767c-.426-.072-.713-.222-.86-.45-.146-.228-.356-.85-.628-1.865-1.605 1.753-3.455 2.643-5.552 2.67-2.096.025-3.803-.864-5.12-2.67-1.258-1.868-1.871-4.325-1.838-7.37.033-3.045.84-5.448 2.422-7.209 1.038-1.329 2.55-2.17 4.536-2.524 1.987-.354 3.743.156 5.267 1.529V9.006zm-.064 13.623c-.467-.54-.907-.89-1.319-1.05-.412-.16-1.059-.232-1.94-.216-1.688.233-2.677 1.415-2.968 3.547-.137.999-.223 1.957-.159 3.249.03.585.18 1.438.454 2.56.35 1.24 1.242 1.855 2.672 1.844 1.43-.01 2.518-.625 3.26-1.845v-8.09z"/>
            <path d="M146.121 17.505v19.161h-3.774c-.413-.13-.691-.304-.834-.52-.143-.216-.316-.724-.518-1.523-1.544 1.553-3.34 2.334-5.39 2.342-2.048.008-3.704-.772-4.969-2.342-.625-1.076-1.01-1.945-1.156-2.608-.146-.662-.22-1.882-.224-3.66v-10.85h5.594v12.433c.068 1.463.66 2.35 1.773 2.66 1.114.31 2.42-.169 3.915-1.436V17.505h5.583zM147.43 17.489h5.773c.307.117.51.223.612.318.102.095.23.284.386.567l3.205 5.476 3.107-5.769c.19-.227.347-.376.475-.449.127-.072.315-.12.565-.143h5.207l-6.002 8.988 6.222 10.162h-5.666c-.342-.074-.593-.182-.755-.324-.162-.143-.38-.447-.654-.915l-3.125-5.535-3.212 5.753c-.258.391-.46.646-.604.765-.145.118-.359.204-.642.256h-5.184l6.208-9.848-5.98-9.302h.065z"/>
        </g>
    </g>
</svg>
