<svg xmlns="http://www.w3.org/2000/svg" width="60" height="60" viewBox="0 0 60 60">
    <g fill="none" fill-rule="evenodd">
        <path fill="#007ACC" d="M0 30v30h60V0H0z"/>
        <path fill="#FAFAFA" d="M48.338 27.265c1.463.376 2.65 1.036 3.656 2.166.549.565 1.371 1.695 1.371 1.978 0 .094-2.559 1.883-4.113 2.825-.091 0-.274-.188-.548-.565-.731-1.13-1.554-1.601-2.742-1.695-1.736-.095-2.925.847-2.925 2.448 0 .471.092.754.275 1.13.365.848 1.096 1.319 3.381 2.355 4.204 1.883 5.94 3.108 7.13 4.803 1.279 1.978 1.553 5.085.639 7.346-.914 2.542-3.199 4.238-6.49 4.803-1.005.188-3.38.188-4.478 0-2.376-.471-4.57-1.601-5.94-3.202-.549-.66-1.554-2.166-1.554-2.355l.548-.376 2.194-1.319 1.645-1.036.366.565c.457.754 1.553 1.884 2.193 2.166 1.828 1.036 4.387.848 5.667-.282.548-.471.73-1.036.73-1.79 0-.659-.09-1.036-.456-1.506-.457-.66-1.371-1.225-4.022-2.45-3.016-1.318-4.295-2.165-5.483-3.484-.732-.753-1.371-1.977-1.645-3.013-.183-.848-.275-3.014-.092-3.862.64-3.013 2.833-5.085 6.032-5.744 1.188-.283 3.656-.189 4.661.094zM34 30.467v2.425h-7.712V55h-5.483V32.892H13v-2.425l.093-2.426s4.739-.093 10.407 0h10.407L34 30.467z"/>
    </g>
</svg>
