<svg xmlns="http://www.w3.org/2000/svg" width="196" height="51" viewBox="0 0 196 51">
    <g fill="none" fill-rule="nonzero">
        <path fill="#8ED6FB" d="M43.224 39.019L23.447 50.483v-8.927l12.322-6.947 7.455 4.41zm1.354-1.255v-23.97l-7.234 4.283v15.41l7.234 4.277zM1.933 39.019L21.71 50.483v-8.927L9.38 34.61l-7.447 4.41zM.578 37.764v-23.97l7.234 4.283v15.41L.578 37.763zm.85-25.525L21.71.483V9.11L8.713 16.437l-.103.06-7.183-4.258zm42.301 0L23.447.483V9.11l12.996 7.319.104.06 7.182-4.251z"/>
        <path fill="#1C78C0" d="M21.712 39.483L9.578 32.596V18.964l12.134 7.227v13.292zm1.733 0l12.133-6.88v-13.64l-12.133 7.228v13.292zM10.4 17.389l12.178-6.906 12.179 6.906-12.179 7.253L10.4 17.39z"/>
        <path class="icon-label" fill="#515151" d="M72.243 34.907h5.405l5.51-18.389h-5.267l-3.263 13.047-3.48-13.047h-4.56l-3.512 13.047-3.23-13.047h-5.268l5.478 18.389h5.405l3.407-11.78 3.375 11.78zm11.197-9.142c0 5.52 3.754 9.601 9.658 9.601 4.567 0 7.024-2.743 7.725-4.042l-3.198-2.429c-.524.775-1.965 2.251-4.462 2.251-2.706 0-4.671-1.758-4.776-4.22h12.927c.033-.354.033-.702.033-1.056 0-6.012-3.23-9.811-8.917-9.811-5.236 0-8.99 4.147-8.99 9.706zm5.091-2.008c.21-2.107 1.684-3.728 3.97-3.728 2.215 0 3.827 1.477 3.932 3.728H88.53zm14.644 11.15h4.567V33.01c.491.597 2.32 2.356 5.444 2.356 5.268 0 8.99-3.97 8.99-9.634 0-5.696-3.44-9.667-8.708-9.667-3.158 0-4.986 1.759-5.445 2.389V9.483h-4.842v25.424h-.006zm4.704-9.142c0-3.445 2.038-5.414 4.705-5.414 2.81 0 4.704 2.218 4.704 5.414 0 3.268-1.966 5.31-4.704 5.31-2.949 0-4.705-2.396-4.705-5.31zm16.184 15.718h4.842v-8.48c.458.598 2.28 2.357 5.444 2.357 5.268 0 8.708-3.97 8.708-9.667 0-5.625-3.721-9.634-8.99-9.634-3.125 0-4.953 1.758-5.444 2.388v-1.936h-4.567v24.972h.007zm4.704-15.823c0-2.92 1.756-5.31 4.705-5.31 2.738 0 4.704 2.042 4.704 5.31 0 3.203-1.894 5.414-4.704 5.414-2.667 0-4.705-1.969-4.705-5.414zm15.168 3.55c0 3.866 3.158 6.156 6.88 6.156 2.11 0 3.512-.63 4.462-1.654l.314 1.195h4.285V23.265c0-4.115-1.756-7.206-7.653-7.206-2.81 0-5.582 1.056-7.233 2.178l1.828 3.308c1.37-.702 3.053-1.3 4.881-1.3 2.143 0 3.335 1.09 3.335 2.711v1.195c-.668-.46-2.11-1.018-3.97-1.018-4.285-.006-7.129 2.455-7.129 6.077zm4.842-.144c0-1.51 1.297-2.566 3.158-2.566s3.198.952 3.198 2.566c0 1.549-1.337 2.533-3.159 2.533-1.821 0-3.197-1.017-3.197-2.533zm22.86 2.008c-3.053 0-5.228-2.218-5.228-5.342 0-2.953 1.933-5.381 5.058-5.381 2.07 0 3.479 1.017 4.285 1.759l1.37-4.083c-1.193-.912-3.093-1.968-5.793-1.968-5.582 0-9.762 4.114-9.762 9.706 0 5.591 4.075 9.601 9.795 9.601 2.667 0 4.672-1.122 5.72-1.969l-1.297-3.97c-.813.663-2.287 1.647-4.148 1.647zm7.266 3.833h4.842V25.41l6.146 9.496h5.687l-6.951-10.06 6.46-8.336h-5.445l-5.897 7.738V9.483h-4.842v25.424z"/>
    </g>
</svg>
